<?xml version="1.0" encoding="UTF-8"?>
<svg id="_레이어_2" data-name="레이어 2" xmlns="http://www.w3.org/2000/svg" xmlns:xlink="http://www.w3.org/1999/xlink" viewBox="0 0 194.21 194.21">
  <defs>
    <style>
      .cls-1 {
        fill: url(#_무제_그라디언트_13);
      }

      .cls-2 {
        fill: #561200;
      }
    </style>
    <linearGradient id="_무제_그라디언트_13" data-name="무제 그라디언트 13" x1="0" y1="97.11" x2="194.21" y2="97.11" gradientUnits="userSpaceOnUse">
      <stop offset="0" stop-color="#f9d423"/>
      <stop offset="1" stop-color="#f83600"/>
    </linearGradient>
  </defs>
  <g id="_레이어_1-2" data-name="레이어 1">
    <g>
      <rect class="cls-1" x="0" width="194.21" height="194.21" rx="10.51" ry="10.51"/>
      <path class="cls-2" d="M81.74,112.06v40.38c0,4.83-1.41,8.7-4.24,11.62-2.83,2.92-6.58,4.38-11.24,4.38s-8.57-1.46-11.34-4.38c-2.76-2.92-4.15-6.79-4.15-11.62V45.01c0-12.57,6.02-18.86,18.06-18.86h62.31c4.67,0,8.45,1.08,11.34,3.24,2.89,2.16,4.33,5.65,4.33,10.48s-1.45,8.41-4.33,10.76c-2.89,2.35-6.67,3.52-11.34,3.52h-49.4v30.48h45.9c4.67,0,8.45,1.08,11.34,3.24,2.89,2.16,4.33,5.65,4.33,10.48s-1.45,8.32-4.33,10.48c-2.89,2.16-6.67,3.24-11.34,3.24h-45.9Z"/>
    </g>
  </g>
</svg>