<?xml version="1.0" encoding="UTF-8"?>
<svg id="_레이어_2" data-name="레이어 2" xmlns="http://www.w3.org/2000/svg" xmlns:xlink="http://www.w3.org/1999/xlink" viewBox="0 0 202 202">
  <defs>
    <style>
      .cls-1 {
        fill: url(#_무제_그라디언트_1675);
      }

      .cls-1, .cls-2, .cls-3, .cls-4 {
        stroke: #000;
        stroke-linecap: round;
        stroke-linejoin: round;
        stroke-width: 2px;
      }

      .cls-2 {
        fill: url(#_무제_그라디언트_25);
      }

      .cls-3 {
        fill: none;
      }

      .cls-4 {
        fill: url(#_무제_그라디언트_1646);
      }
    </style>
    <linearGradient id="_무제_그라디언트_1646" data-name="무제 그라디언트 1646" x1="1" y1="100.95" x2="201" y2="100.95" gradientUnits="userSpaceOnUse">
      <stop offset="0" stop-color="#fff5eb"/>
      <stop offset="1" stop-color="#ff9696"/>
    </linearGradient>
    <linearGradient id="_무제_그라디언트_25" data-name="무제 그라디언트 25" x1="67.85" y1="77.83" x2="134.72" y2="77.83" gradientUnits="userSpaceOnUse">
      <stop offset="0" stop-color="#f9d423"/>
      <stop offset="1" stop-color="#f83600"/>
    </linearGradient>
    <linearGradient id="_무제_그라디언트_1675" data-name="무제 그라디언트 1675" x1="1.57" y1="178.66" x2="201" y2="178.66" gradientUnits="userSpaceOnUse">
      <stop offset="0" stop-color="#fff"/>
      <stop offset=".24" stop-color="#fbfbfb"/>
      <stop offset=".43" stop-color="#f2f2f2"/>
      <stop offset=".6" stop-color="#e1e1e1"/>
      <stop offset=".76" stop-color="#cacaca"/>
      <stop offset=".91" stop-color="#adadad"/>
      <stop offset="1" stop-color="#969696"/>
    </linearGradient>
  </defs>
  <g id="_레이어_1-2" data-name="레이어 1">
    <g>
      <path class="cls-4" d="M1,173.61V25.99C1,12.19,14.99,1,32.25,1h156.25c6.9,0,12.5,4.47,12.5,10v179.91c0,5.52-5.6,10-12.5,10H32.25c-17.26,0-31.25-11.19-31.25-24.99,0-.07,0-.14,0-.21"/>
      <path class="cls-3" d="M1,175.92v-2.3"/>
      <path class="cls-2" d="M71.57,90.38c-2.05.01-3.72-2.79-3.73-6.25,0-1.45.29-2.85.83-3.97l36.77-63.97c.67-1.31,1.84-1.45,2.62-.32.54.79.76,2.04.57,3.2l-7.13,37.75c-.72,3.24.26,6.86,2.18,8.07.42.26.86.4,1.31.4h26c2.05-.01,3.72,2.79,3.73,6.25,0,1.45-.29,2.85-.83,3.97l-36.77,63.97c-.67,1.31-1.84,1.45-2.62.32-.54-.79-.76-2.04-.57-3.2l7.13-37.75c.72-3.24-.26-6.86-2.18-8.07-.42-.26-.86-.4-1.31-.4h-26Z"/>
      <path class="cls-1" d="M201,156.31v35.75c0,4.93-5.58,8.94-12.46,8.94H32.73c-17.21,0-31.16-10-31.16-22.34s13.95-22.34,31.16-22.34h168.27"/>
    </g>
  </g>
</svg>