<svg width="200" height="200" viewBox="0 0 200 200" fill="none" xmlns="http://www.w3.org/2000/svg">
<rect width="200" height="200" rx="75" fill="url(#paint0_linear_2158_7)"/>
<rect x="4" y="4" width="192" height="192" rx="71" stroke="white" stroke-opacity="0.3" stroke-width="8"/>
<path d="M71.5663 110.997C70.8937 111.001 70.2343 110.709 69.6647 110.156C69.095 109.603 68.6385 108.811 68.3482 107.872C68.0578 106.933 67.9456 105.887 68.0246 104.853C68.1035 103.82 68.3703 102.843 68.794 102.034L103.981 45.9491C104.245 45.4777 104.604 45.1592 105.001 45.0458C105.397 44.9324 105.807 45.0309 106.162 45.325C106.517 45.6191 106.798 46.0915 106.957 46.6645C107.116 47.2375 107.144 47.8771 107.037 48.4784L100.213 81.5798C100.012 82.413 99.9445 83.3092 100.016 84.1917C100.088 85.0741 100.297 85.9164 100.626 86.6463C100.954 87.3762 101.392 87.972 101.902 88.3824C102.413 88.7929 102.979 89.0058 103.554 89.0029H128.434C129.106 88.9993 129.766 89.2911 130.335 89.8443C130.905 90.3974 131.362 91.1893 131.652 92.1279C131.942 93.0665 132.054 94.1133 131.975 95.1466C131.897 96.18 131.63 97.1575 131.206 97.9655L96.0193 154.051C95.7553 154.522 95.3957 154.841 94.9993 154.954C94.6029 155.068 94.1934 154.969 93.838 154.675C93.4825 154.381 93.2023 153.909 93.0432 153.336C92.8842 152.763 92.8558 152.123 92.9627 151.522L99.7867 118.42C99.988 117.587 100.056 116.691 99.9837 115.808C99.9118 114.926 99.7027 114.084 99.3741 113.354C99.0456 112.624 98.6076 112.028 98.0975 111.618C97.5875 111.207 97.0207 110.994 96.4458 110.997H71.5663Z" fill="white" stroke="white" stroke-width="4" stroke-linecap="round" stroke-linejoin="round"/>
<defs>
<linearGradient id="paint0_linear_2158_7" x1="100" y1="0" x2="100" y2="200" gradientUnits="userSpaceOnUse">
<stop stop-color="#FF9252"/>
<stop offset="1" stop-color="#FF3F15"/>
</linearGradient>
</defs>
</svg>
