<?xml version="1.0" encoding="UTF-8"?>
<svg id="_레이어_2" data-name="레이어 2" xmlns="http://www.w3.org/2000/svg" xmlns:xlink="http://www.w3.org/1999/xlink" viewBox="0 0 24 24">
  <defs>
    <style>
      .cls-1 {
        fill: url(#_무제_그라디언트_656-2);
      }

      .cls-1, .cls-2, .cls-3, .cls-4, .cls-5, .cls-6, .cls-7 {
        stroke: #000;
        stroke-linecap: round;
        stroke-linejoin: round;
      }

      .cls-2 {
        fill: url(#_무제_그라디언트_656-3);
      }

      .cls-3 {
        fill: url(#_무제_그라디언트_656-4);
      }

      .cls-8, .cls-5 {
        fill: none;
      }

      .cls-4 {
        fill: url(#_무제_그라디언트_656-6);
      }

      .cls-6 {
        fill: url(#_무제_그라디언트_656-5);
      }

      .cls-7 {
        fill: url(#_무제_그라디언트_656);
      }
    </style>
    <linearGradient id="_무제_그라디언트_656" data-name="무제 그라디언트 656" x1="4.97" y1="11.99" x2="19.03" y2="11.99" gradientUnits="userSpaceOnUse">
      <stop offset="0" stop-color="#ffff96"/>
      <stop offset=".18" stop-color="#f2ff8f"/>
      <stop offset=".5" stop-color="#d2ff7c"/>
      <stop offset=".93" stop-color="#9fff5f"/>
      <stop offset="1" stop-color="#96ff5a"/>
    </linearGradient>
    <linearGradient id="_무제_그라디언트_656-2" data-name="무제 그라디언트 656" x1="9.54" y1="9.53" x2="9.54" y2="9.53" xlink:href="#_무제_그라디언트_656"/>
    <linearGradient id="_무제_그라디언트_656-3" data-name="무제 그라디언트 656" x1="14.81" y1="14.45" x2="14.81" y2="14.45" xlink:href="#_무제_그라디언트_656"/>
    <linearGradient id="_무제_그라디언트_656-4" data-name="무제 그라디언트 656" x1="12" y1="11.99" x2="12" y2="11.99" xlink:href="#_무제_그라디언트_656"/>
    <linearGradient id="_무제_그라디언트_656-5" data-name="무제 그라디언트 656" x1="11.3" y1="15.51" x2="11.3" y2="15.51" xlink:href="#_무제_그라디언트_656"/>
    <linearGradient id="_무제_그라디언트_656-6" data-name="무제 그라디언트 656" x1="8.48" y1="13.4" x2="8.48" y2="13.4" xlink:href="#_무제_그라디언트_656"/>
  </defs>
  <g id="_레이어_1-2" data-name="레이어 1">
    <g>
      <rect class="cls-8" width="24" height="24"/>
      <g>
        <path class="cls-7" d="M12,4.96c-3.89,0-7.03,3.15-7.03,7.03s3.15,7.03,7.03,7.03,7.03-3.15,7.03-7.03c-1.49.46-3.06-.38-3.52-1.86-.17-.54-.17-1.12,0-1.65-1.49.46-3.06-.38-3.52-1.86-.17-.54-.17-1.12,0-1.65"/>
        <path class="cls-1" d="M9.54,9.53h0"/>
        <path class="cls-2" d="M14.81,14.45h0"/>
        <path class="cls-3" d="M12,11.99h0"/>
        <path class="cls-6" d="M11.3,15.51h0"/>
        <path class="cls-4" d="M8.48,13.4h0"/>
      </g>
      <path class="cls-5" d="M22.55,12c0,5.82-4.72,10.55-10.55,10.55S1.45,17.82,1.45,12,6.18,1.45,12,1.45c2.95,0,5.78,1.17,7.9,3.21l2.65,2.65"/>
      <path class="cls-5" d="M22.55,3.2v4.11h-4.11"/>
    </g>
  </g>
</svg>