<?xml version="1.0" encoding="UTF-8"?>
<svg id="_레이어_2" data-name="레이어 2" xmlns="http://www.w3.org/2000/svg" viewBox="0 0 777.43 776.99">
  <defs>
    <style>
      .cls-1 {
        fill: #fce72b;
      }

      .cls-2 {
        fill: #fcc116;
      }

      .cls-3 {
        fill: #fcd019;
      }

      .cls-4 {
        fill: #872401;
      }

      .cls-5 {
        fill: #fc8d0a;
      }

      .cls-6 {
        fill: #fcec33;
      }

      .cls-7 {
        fill: #fce82c;
      }

      .cls-8 {
        fill: #fcaa11;
      }

      .cls-9 {
        fill: #fcbf15;
      }

      .cls-10 {
        fill: #fcdf1e;
      }

      .cls-11 {
        fill: #fcb112;
      }

      .cls-12 {
        fill: #fce325;
      }

      .cls-13 {
        fill: #fc9d0e;
      }

      .cls-14 {
        fill: #fce72a;
      }

      .cls-15 {
        fill: #fcc217;
      }

      .cls-16 {
        fill: #fcbc15;
      }

      .cls-17 {
        fill: #fc8309;
      }

      .cls-18 {
        fill: #fcb814;
      }

      .cls-19 {
        fill: #fcbb15;
      }

      .cls-20 {
        fill: #fc950c;
      }

      .cls-21 {
        fill: #fce629;
      }

      .cls-22 {
        fill: #fccc18;
      }

      .cls-23 {
        fill: #fc980d;
      }

      .cls-24 {
        fill: #fcdb1c;
      }

      .cls-25 {
        fill: #fce426;
      }

      .cls-26 {
        fill: #fcd41a;
      }

      .cls-27 {
        fill: #fce01f;
      }

      .cls-28 {
        fill: #fbf9f9;
      }

      .cls-29 {
        fill: #fce92d;
      }

      .cls-30 {
        fill: #fc9c0e;
      }

      .cls-31 {
        fill: #fca00f;
      }

      .cls-32 {
        fill: #fcd81b;
      }

      .cls-33 {
        fill: #fcaf12;
      }

      .cls-34 {
        fill: #fcc617;
      }

      .cls-35 {
        fill: #fc8108;
      }

      .cls-36 {
        fill: #fce122;
      }

      .cls-37 {
        fill: #fc910b;
      }

      .cls-38 {
        fill: #fceb31;
      }

      .cls-39 {
        fill: #fce528;
      }

      .cls-40 {
        fill: #fccf19;
      }

      .cls-41 {
        fill: #fce527;
      }

      .cls-42 {
        fill: #fcb413;
      }

      .cls-43 {
        fill: #fcb714;
      }

      .cls-44 {
        fill: #fca20f;
      }

      .cls-45 {
        fill: #521100;
      }

      .cls-46 {
        fill: #fce628;
      }

      .cls-47 {
        fill: #fca410;
      }

      .cls-48 {
        fill: #fcbe15;
      }

      .cls-49 {
        fill: #fcab11;
      }

      .cls-50 {
        fill: #fcee35;
      }

      .cls-51 {
        fill: #fce425;
      }

      .cls-52 {
        fill: #fc8709;
      }

      .cls-53 {
        fill: #fcb613;
      }

      .cls-54 {
        fill: #fca510;
      }

      .cls-55 {
        fill: #fcd31a;
      }

      .cls-56 {
        fill: #fced33;
      }

      .cls-57 {
        fill: #fcbd15;
      }

      .cls-58 {
        fill: #fce223;
      }

      .cls-59 {
        fill: #fcad11;
      }

      .cls-60 {
        fill: #fce121;
      }

      .cls-61 {
        fill: #fc940c;
      }

      .cls-62 {
        fill: #fcc517;
      }

      .cls-63 {
        fill: #fcea2f;
      }
    </style>
  </defs>
  <g id="_레이어_1-2" data-name="레이어 1">
    <g>
      <path class="cls-45" d="M379.26.17c327.31-9.49,517.4,372.05,314.6,629.6-180.04,228.64-544.25,183.36-660.57-83.22C-77.9,291.72,102.64,8.19,379.26.17Z"/>
      <path class="cls-56" d="M272.46,39.88c1.73,1.82,3.58,3.07,5.55,3.74,10.71-1.44,21.27-2.68,31.68-3.72.14,2.83,2.27,3.24,6.39,1.24,4.97,2.54,10.33,2.81,16.09.83,3.4,3.05,7.27,3.04,11.61,0,4.3,1.3,9.11,1.26,14.43-.12,3.56,2,6.52,1.72,8.88-.85,7.53,2,15.54,2.28,24.01.82,5.58,2.36,11.52,2.38,17.82.06,3.42.99,6.31.3,8.68-2.09,6.71,2.68,13.63,2.37,20.75-.94l2.22.92c1.43,6.15,7.94,3.83,12.14,1.17,4.58,1.13,6.87.35,6.87-2.32,4.47-1.05,9.4.71,14.79,5.28,1.54-3.56,5.14-3.69,10.81-.39l3.21.64c1.65-2.81,3.81-3.73,6.48-2.75,5.24,3.35,8.44,3.51,9.61.48,34.08,11.21,62.99,27.37,92,48,2.39,5.25-6.12,6.64-10.27,4.68l-1.11,2.13c-5.05-1.14-10.26-1.69-15.63-1.65l-1.25-2.13c-3.14,4.36-6.39,6.01-9.75,4.97-7.75-2.12-15.28-5.47-22.58-10.05-41.22-21.76-83.93-29.12-129.43-34.62-2.15-.26-4.12-1.3-6-2.33-2.11-1.16-3.88-1.11-6,0-1.47,2.52-2.53,2.53-4,0-2.92-.88-6.08-.88-9,0-1.19,1.91-3.19,1.91-6,0-.18.89-.52.86-1,0-2.04,3.03-7.83,2.84-10,0-6.43-.85-12.1-.18-17,2-.66,2.92-2.69,2.6-4,0-7.48-1.27-13.48-.27-18,3-.33.86-.67.87-1,0-3.91-.55-7.61-1.69-11.11-3.41,0,2.84-.63,4.98-1.89,6.41-1.77,1.36-3.63,2.73-5.79,3.37-12.24,3.65-24.34,7.35-36.53,11.17-2.15.67-4.45.59-6.68.46l-3.71-.17c-5.12,2.44-8.66,4.03-13.85.23-3.18,3.5-8.04,3.57-14.6.2l-17.41,1.57c-6.26,1.03-9.74-.26-10.44-3.84,9.52-5.54,18.73-10.82,29-15,2.01.11,3.01-.55,3-2,.28-.04.73-.05,1,0,3.55-.85,6.83-.81,9.83.13,3.34-2.6,4.47-3.87,6.17-7.13,6.91-2.71,13.93-5.73,21-8Z"/>
      <path class="cls-10" d="M66.46,357.88c2.52-2.21,3.57-1.34,4.88,1.53l3.13-1.11c.66-3.93,3.89-4.53,6.71-1.95,5.34-1.35,21.7-.97,12.47,6.07l-.19,2.46c.67,1.75.2,3.49-1.42,5.22,33.15-7.09,67.23-12.53,101.17-10.61,4.27,10.42,4.16,27.67-10.45,29.14-42.19.82-85.23,9.14-126.41,23.22l-3.9.03c.27,4.98-1.48,6.66-5.26,5.06-4.86,1.81-9.94,1.76-15.25-.15-4.25,1.31-7.08,1.01-8.49-.91-1.38-18.23-1.1-35.88,0-54,4.29-5.72,13.35-6.56,19.65-3.15,2.6-1.97,7.53.16,8.35,3.15,1.71,1.46,2.44,3.82,2.21,7.09l10.14-11.12,2.66.03Z"/>
      <path class="cls-52" d="M217.46,707.88c-3.93-4.57,2.55-6.18,6.57-3.89,4.15-2.58,9.1-2.98,14.84-1.18,2.46-2.02,5.19-1.68,8.18,1.03,5.01-2.56,8.07-2.06,13.02.12,5.67-.48,11.14-.84,16.4-1.08l6.74.14c41.05,14.89,81.91,15.13,124.73,15.19,1.08,0,2.15.23,3.24.51s2.21.7,3.29,1.16c.41-.66.4-1.32,0-2-6.7.55-19.67-4.95-25.57-8.98l-1.43-3.02c.48-4.46,4.38-5.21,11.71-2.25,6.38-2.67,11.9-2.73,16.57-.2,2.15-.66,3.72-.5,4.72.46l1.36-.1c1.75,4.17,3.41,8.52,4.98,13.07,21.62-3.36,42.93-8.07,63.93-14.13l3.72.16,6.8.82c16.12-2.53,32.59-1.62,48.93-.24,5.63-2.32,9.39-2.18,11.27.41-18.35,10.12-34.91,18.07-55,25l-10.85,1.08c-70.44-.74-143.17-.1-214.82.54l-15.34-1.62c-18.12-6.33-30.97-12.37-48-21Z"/>
      <path class="cls-50" d="M392.46,21.88l12,1c2.97.01,6.05-.19,9,0l5,1c29.22,2.62,58.19,8.85,86,18,2.49,9.98-9.05.27-12.44,1.12-1.14.29-1.21,2.31-1.75,2.66-3.5,2.21-12.66-3.93-13.8-2.78-.69.7,1.78,3.65-2.47,2.98-3.12-.5-9.01-5.91-10-6.06-5.47-.83-2.65,1.14-2.82,2.58-.28,2.41-5.85.11-8.13.51s-3.51,2.75-6.02,2.86c-.82.04-6.17-1.01-6.62-1.34-1.27-.91-.44-3.46-1.48-3.59-2.42-.3-8.81,3.61-13.95,3.11-2.7-.26-5.6-2.65-7.84-2.13-1.05.24-1.02,2.67-2.22,2.95-.9.21-3.21-1.03-4.94-.97-3.17.12-8.85,2.33-12.97,2.06-1.93-.13-3.54-1.94-6.05-2.05-4.74-.2-12.76,1.3-17.92,1.02-1.96-.11-4.89-2.16-6.01-1.88-1.22.31-1.21,2.85-2.19,3.02-1.57.27-4.42-1.92-6.87-2.15-3.91-.36-7.56,1.81-10.02,1.63-1.3-.1-2.52-1.57-3.98-1.53-1.63.05-4.62,2.79-7.23,2.74-2.09-.04-2.55-2.57-4.69-2.71-2.36-.15-7.33,1.93-9.96,1.63-2.03-.23-3.7-2.58-5.95-2.46s-5.6,2.74-8.67,1.74l1.99-3.99c-6.85,3.18-13.54,2.34-20.47,3.02-5.9.57-15.64,5.38-16.52-4.02,39.07-12.54,78.92-18.15,120-18Z"/>
      <path class="cls-27" d="M637.46,354.88c4.22,6.81,9.64,4.69,16.29,1.98,7.66,2.1,14.32,1.07,21.46-.94,2.26.89,2.29,2.78,1.84,4.91.91-5.65,5.56-4.53,8.67-1.17l3.62.92c3.63-3.83,7.03-4.44,10.2-1.85l6.8-.4c.12-5.64,5.54-5.88,6.67-.53,2.58.25,4.92-.26,7.03-1.52,1.83,1.29,4.02,1.23,6.56-.16,4.85,1.98,9.53,2.38,14.05,1.19,4.55-7.33,6.74-1.96,7.8,3.58.12,2.96.07,6.03,0,9,.63,2.71,1.21,7.36-.18,9.52s-42.3.78-47.38.59c-3.78,2.85-6.26,3.14-7.44.89l-1.43-1.64c2.01-3.7,3.66-7.45,4.96-11.22-26.02,7.14-52.28,13.73-78.78,19.78-6.74,1.29-13.53,2.58-20.38,2.98-22.31,1.32-25.65-25.34-6.76-29.96,12.86-3.15,29.8-5.98,42.97-7.28l3.4,1.34Z"/>
      <path class="cls-17" d="M506.46,728.88c-13.07,4.51-24.48,7.83-38,11-2.02-.33-3.68,0-5,1-1.32.29-2.59.71-4,1-2.69-.49-5.28-1.37-7.76-2.63l-15.92,2.56c-8.32-3.63-16.3-2.59-25.15-1.4-6.85,3.2-11.71,2.77-14.58-1.3-5.54,4.64-13.7,2.55-20.07.61-2.1,2.05-4.91,2.09-8.45.12-2.89,2.17-5.39,2.22-7.52.17-1.14,2.81-3.36,3.12-6.66.95-9.97,1.25-19.69.72-29.15-1.6l-2.86,2.36c-5.06-2.25-9.69-2.53-13.88-.83-15.46-3.39-27.14-6.81-42-12,4.73-2.44,10.61-.31,15.33-.38,53.35-.81,106.57-.77,160.21-.67,17.55.03,35.38-.82,52.93.1,4.55.24,7.88-1.08,12.53.94Z"/>
      <path class="cls-60" d="M743.46,321.88c2.26,12.93,4.48,25.83,5,39l-3.01-5c-3.18-.86-2.68,3.71-3,4.01-.38.37-2.49-.98-3.54-.92-1.33.07-2.3,1.56-2.94,1.56-.53,0-9.31-2.54-9.84-2.49-1.23.1-2.44,1.96-3.99,1.65-.97-.19-1.94-1.79-2.18-1.79-.92-.01-1.38,2.89-1.52,2.98-.3.2-4-3.14-6.45,0-2.16-1.45.74-5.24-3.52-5.01-.06,1.24.19,3.01-.46,4.04-.36.56-7.54.93-8.82.76-1.53-.21-3.23-2.18-5.09-1.89-1.28.2-.5,6.01-8.87,2.82-1.91-.73-2.72-3.23-5.24-2.73-1.86.41.2,5.73-3,4.99s-1.3-5.73-1.52-5.99c-2.75-.75-1.86,1.72-3.52,3.01-4.33-3.91-6.21-.51-9-.39-1.39.06-6.78-1.75-9.03-1.65-2.72.12-4.16,2.33-6.91,2.53-4.52.33-10.67-.47-9.54-6.5l3.68-2.19c24.3-6.97,48.8-13.8,73.3-20.17l-1.74-11.17,1.76-1.47,1.97-1.17,25.45,1.5,1.58,1.68Z"/>
      <path class="cls-27" d="M748.46,413.88c-3.99,2.91-6.9,3.22-8.75.94-6.36,1.38-20.58,3.78-19.25-5.94l-1.87-2.69v-13.78c-3.9,6.85-8,13.62-12.65,20.01l-3.48,1.46c-3.19,3.86-7.43,3.96-12.72.31l-15.82,2.06c-2.03-.47-3.15-1.14-2.46-3.36l.68-4.07c2.65-4.42,16.83-26.11,19.15-27.23.68-.33,1.41-.53,2.16-.7,3.02.48,4.75-2.8,7.44-2.88,11.38-.34,23.53,1.28,35.01.9,3.81-.13,8.3-1.93,12.56-1.02.05-2.66-.07-5.35,0-8.01,1.66,1.04,1,3.8,1.02,5.49.16,12.76-.07,25.8-1.02,38.51Z"/>
      <path class="cls-38" d="M179.46,86.88c1.38.25,2.09,1.22,2.15,2.92,5.01-1.46,7.81-.73,8.4,2.21,1.45-2.73,4.14-2.86,8.07-.38l5.53-.96c2.27-6.22,7.75-3.24,11.54,0,3.02-5.54,8.28-4.95,9.31,1.22-.49.85-1,1.69-1.62,2.43s-1.21,1.39-1.95,1.87c-15.31,9.97-29.2,19.4-44.12,29.95-.72.51-1.57.84-2.46,1.13s-1.88.48-2.85.62c-2.6,1.18-5.52,1.27-8.76.27-3.24,2.38-6.58,2.13-9.84-.21-2.19,2.32-3.93,2.05-6.6.96l-7.74-.83c-2.95,1.58-9.2,4.01-8.06-1.2,15.64-15.49,31.05-27.58,49-40Z"/>
      <path class="cls-5" d="M219.46,676.88c2.17.15,4.41.36,6.4,1.31,15.39,7.37,29.75,13.93,45.41,20.72,2.02.88,3.65,2.43,5.19,3.97.58,2.91-1.59,2.06-3.48,2.03-5.44-.08-9.5,1.03-13.02,1.04-2.45,0-4.07-1.91-6.06-2.05-2.6-.19-4.94,2.02-6.97,1.91s-3.58-2.71-4.95-2.59c-.72.06-1.63,1.48-2.95,1.55-2.99.14-7-1.7-11.05-.88-2.16.44-3.37,2.76-3.99,2.76-.9,0-5.75-5.03-6.52,1.22-1.35-.68-3.3-1.14-5-2-.97-1.42-1.32-1.79-3-2-8.41-2.14-30.99-19.12-39-25-.94-3.91,4.25-5,7.31-3.07,14.61-1.82,27.53-.98,41.69,1.07Z"/>
      <path class="cls-7" d="M137.46,160.88c-.15.93-.34,1.85-.65,2.73s-.63,1.65-1.14,2.31c-8.29,10.64-16.54,21.28-24.78,31.96-.51.66-1.21,1.18-1.95,1.68s-1.62.93-2.48,1.31c-6.05,4.04-10.79,6.05-17.95,1.31-3.07,4.64-13.68,1.87-15.05-2.31,9.67-16.19,20.07-30.46,32-45,2.88-1.37,6.2-1.68,9.96-.93.56-1.72,1.71-2.83,3.53-2.44l8.78,4.85c3.73-8.8,11.45-1.25,9.72,4.52Z"/>
      <path class="cls-12" d="M730.46,270.88c5.66,17.01,9.9,33.29,13,51-5.12,1.52-10.04-1.09-14.51-1.08-5.08.01-8.94,2.57-14.49-.92l-3-4.81c-3.41-13.89-7.2-27.64-11.36-41.25l.36-2.94c-.72-5.04,3.95-5.42,7.57-3.06,3.91-1.2,7.37-1.71,10.75.94,4.28-3.36,8.69-2.14,11.67,2.12Z"/>
      <path class="cls-38" d="M558.46,97.88c4.9-.37,12.62-14.69,12.01-4,4.85-.59,10.51-2.07,13.98,2l-.99-3.99c5.56.87,8.94,4.02,13-2.01,2.4,1.7,4.62,3.22,7,5-.24.77.42,1.1,2,1,9.59,7.3,18.19,14.84,27,23,.36,1.81,1.36,2.81,3,3,2.02,1.92,4.03,4.02,6,6,.86,3.52-2.96,3.31-5.02.87-2.21,3.45-5.54,2.64-6.58-1.2-3.31,1.56-7.03,1.76-11.16.62.49,2.21.02,3.57-2.47,3.41-4.3-2.24-9.72-4.35-13.45-2.44-1.94-2.13-4.05-3.56-6.33-4.27l-4.3-.89c-10.08-7.99-20.53-15.54-31.43-22.37l-2.27-3.74Z"/>
      <path class="cls-29" d="M633.46,159.88c.37-2.34,3.13-4.66,5.3-3.43,2.59-1.72,4.92-2.33,7.01-1.82-.5-4.81,4.36-5.05,6.94-1.15l7.93,2.93c2.04-1.69,4.72-2.21,6.82-.53,11.21,13.69,19.92,26.92,29,42-.88,3-4.31,3.8-10.29,2.4-3.5,2.33-6.65,2.67-9.45,1.01-2.52,4.44-5.77,3.18-7.75-.9-1.94,1.18-3.44,1.01-4.5-.51l-4.04-2.42c-7.89-11.5-16.41-22.59-25.61-33.08l-1.35-4.51Z"/>
      <path class="cls-51" d="M71.46,269.88c.17,2.31.29,4.7-.35,6.95-3.04,10.64-6.14,21.34-9.24,31.97-.66,2.25-2.03,4.21-3.41,6.08-1.05,3.08-1.98,2.92-4.32,1.15-4.35,5.18-9.54,5.51-15.6.99-4.75,4.02-9.67,4.28-9.09-3.13,3.18-16.23,7.78-30.68,13-46,1.91-.41,4.22-.1,6.91.94,5.44-1.44,10.25-1.09,14.44,1.05,3.91-2.37,6.45-2.36,7.64.01Z"/>
      <path class="cls-35" d="M307.46,740.88l1.01-5c2.64,2.68,5.21,1.57,8.27,2.22,1.43.3,2.91,1.84,4.16,1.85.89,0,1-2.83,2.08-3.08.46-.11,5.68,2.38,9.01,2.48,6.88.2,8.1-.97,15.96.38,1.43.25,4.34-1.03,6.03-.71s2.81,1.85,2.98,1.84c.86,0,1.16-2.94,2.07-3.06,1.98-.27,3.12,1.76,4.12,1.91,1.22.19,2.34-1.66,3.84-1.84,2.25-.27,4.73,1.85,5.98,1.69,1.17-.14,2.09-2.45,2.96-2.46.37,0,1.67,1.45,3.08,1.7,2,.35,10.27,1.36,11.9,1.03,2.14-.44,2.53-1.91,3.56-2.32,4.11-1.62,3.82,2.75,5.57,3.2s8.07-2,10.28-2.28c3.95-.5,15.1-1.65,18.58-1.03,1.86.33,3.59,2.29,6.13,2.41,3.67.17,13.61-2.74,16.91-2.54,1.69.1,6.52,2.78,7.52,4.6-52.9,10.9-99.25,10.57-152-1Z"/>
      <path class="cls-5" d="M543.46,681.88c1.26-.12,2.5.56,3.72,2.06,8.01-4.22,19.43-3.54,27.6-.13,4.26-2.7,8.15-3.1,11.67-1.19,3.96-1.13,5.96-.38,6.01,2.26-10.97,7.59-19.43,12.62-31,19-3.65-1.21-8.74,1.77-11.52,1.57-9.05-.64-21.45-1.5-30.87-1.48-5.65.01-13.85,1.88-19.13,1.73-1.91-.05-4.63-.85-5.48-2.83,1.68-1.58,3.44-3.18,5.59-4.08,12.26-5.17,24.41-10.35,36.61-15.66,2.13-.93,4.5-1.12,6.8-1.26Z"/>
      <path class="cls-36" d="M29.46,313.88c2.99,8.41,6.79.77,9.29,1.19,1.64.28,7.94,3.81,9.18,3.85.41.02,2.84-4.37,6.24-4.85,1.44-.2,2.55,2.48,4.29.8l1.15,4.29c-2.61,12.85-4.81,25.83-5.89,38.91l-2.26,3.8c-1.82.7-5.81-3.09-6.99-2-.21.2-.46,4.89-2.51,4.98-2.28.1.32-4.26-1.48-5.54-.35-.25-7.72-.61-8.52-.54-3.54.32-4.51,4.02-8.5,3.09,1.02-16.7,2.78-31.58,6-48Z"/>
      <path class="cls-63" d="M596.46,124.88c3.45-1.87,5.01,2.95,5.49,2.99,2.94.24,2.32-3.8,2.51-3.99,1.59-1.57,2.66,2.44,3.21,2.77,1.88,1.1,7.38,0,9.29,4.23l-.5-4.99c.34-.34,7.98,1.2,9.51,1.08,2.15-.17,3.72-1.91,4-1.91,1.62,0,2.32,3.68,2.5,3.81,2.29,1.58,2.57-4.53,4.96-2.97.22.15.5,4.21,4.02,1.98,9.34,9.4,17.57,17.71,26,28-.89,1.6-3.19.54-4.74,1.33-.33.17-.23,1.71-.77,1.71s-9.07-3.24-10.26-3.74c-1.81-.77-3.14-6.31-4.84.83-3.14-.21-5.42,1.65-7.92,2.39-.65.19-1.93-.63-2.79-.53s-.64,2.75-2.68,2.01c-2.27,1.47-3.35.35-2-2-.05-1.54-1.05-2.54-3-3-.93-.24-1.85-.51-2.71-.9-2.64-1.21-26.74-23.85-28.18-26.46-.46-.83-.8-1.72-1.11-2.64Z"/>
      <path class="cls-63" d="M171.46,127.88l-1.6,3.96c-10,8.61-19.44,17.88-28.38,27.58l-4.02,1.46-4.51-7c-2.16-.52-3.33,4.7-4.98,4.83-.58.04-8.77-4.72-10.01-5.81l-1.51,3.98c-3.83-2.49-7.47.08-10.99-2,8.12-9.9,15.85-18.95,25-28,2.45,3.13,6.21-.99,8.34-.79,2.73.26,3.26.74,7.16.79,1.55.02,3.16,1.08,3.92,1.04.95-.05,1.17-2.96,2.08-3.02.34-.02,3.31,2.94,6.13,2.98,2.15.03,3.03-1.64,4.66-1.73,2.18-.12,6.27,1.43,8.72,1.73Z"/>
      <path class="cls-39" d="M684.46,233.88c1.85-6.91,3.58-7.79,10.24-4.96,5.95-4.1,8.84-3.7,8.67,1.2,1.55,0,2.7.79,3.48,2.08,2.21-3.72,5.08-3.49,8.6.68,5.99,13.03,10.47,24.38,15,38-2.52.36-4.08-2.06-6.48-2.09s-3.84,1.79-5.19,1.91c-1.18.1-2.71-1.75-4.82-1.93-2.33-.2-4.51,1.13-6.07,1.02-2.89-.19-2.94-3.93-7.44,1.08-1.48-1.36-3.04-2.79-3.87-4.65-3.88-8.67-7.73-17.59-11.39-26.35-.78-1.88-.77-3.99-.74-6Z"/>
      <path class="cls-14" d="M106.46,200.88c0,.94-.05,1.87-.23,2.77-.76,3.92-11.52,21.05-14.72,25.83-1,1.49-2.52,2.51-4.05,3.4-1.45,1.11-1.99,2.17-2,4,2.12,1.86,1.89,3.05-1,3-2.92,4.28-5.7,2.77-8.32-4.52.32,4.37-2.38,4.83-8.1,1.4-1.95,7.49-13.36,1.9-11.58-3.88,5.57-12.03,10.13-21.51,17-33,2.3.44,8.96,3.05,10.55,2.96,2.14-.12,2.92-2.65,4.09-2.86,1.23-.22,6.24,4.4,11.66,2.71,2.14-.67,2.85-4.19,6.71-1.81Z"/>
      <path class="cls-1" d="M664.46,199.88l5.51-1.98c.72.06,3.25,9.91,5.51-.02,6.12,5.07,5.75,1.6,9.86.53,2.7-.71,8.19,1.5,11.13-.53,7.03,11.67,13.19,22.39,19,35-1,2.1-3.69-1.83-4.51-1.82s-2.92,3.18-4.01,3.81c-2.16.72-1.34-1.77-2.45-2.56-1.41-1-8.62,2.25-2.04-3.93-2.55-1.63-4.68,2.21-7.59,2.52-3.12.33-4.85-2.26-5.88-2.03-1.56.35-1.2,5.55-4.52,5.01-1.7-1.26-3.44-2.6-4.56-4.42-4.69-7.65-9.39-15.62-13.81-23.43-1.06-1.87-1.36-4.04-1.63-6.14Z"/>
      <path class="cls-56" d="M262.46,73.88c-.58.79-1.19,1.55-1.89,2.21-2.29,2.17-30.07,15.32-33.21,15.73-.95.12-1.93.11-2.9.07-2.43.61-2.79-2.92-3.53-3.05-3.91-.68-3.6,5.32-7.47,5.05,1.68-2.6-4.76-5.02-6.44-5.06-.81-.02-1,2.84-2.57,3.61-.31.15-6.25,1.23-6.66,1.27-1.37.15-3.95-2.82-6.33-1.81,2.3,3.7-.39,3.63-4,3.98l.99-4.99c-4.73.14-9.72,3.59-9-4.01,7.8-5.4,14.74-10.2,23-15,1.29,1.16,4,1.86,5.65,1.94,6.71.32,18.21-2.07,22.72-1.64,4.12.39,12.46,6.75,12.64-1.3,3.01.56,4.08,3.27,7.96,3.59,4.32.35,6.84-5.12,11.03-.59Z"/>
      <path class="cls-41" d="M56.46,232.88c-.4,1.87,6.92,6.03,7.39,5.96,1.96-.31,3-4.09,2.62-5.96l7.99,4.99c.65-.66-2.94-5.72.51-5.01,7.88,1.63,1.36,9.78,9.49,7.02-1.44,10.21-6.64,21.82-13,30-2.74-.53-6.21,1.91-7.5,1.97-1.56.08-3.16-1.81-5.05-1.95-4.6-.35-11.73,3.33-16.45-2.03,4.54-13.33,8.1-22.26,14-35Z"/>
      <path class="cls-61" d="M143.46,656.88c-.88-4.13,4.03-2.79,5.76-.04,2.81-2.38,6.46-2.79,10.98-1.21,3.24-2.48,6.14-1.96,9.05.67,5.84-3.4,10.34-1.93,16.45.3l1.76-.72c11.43,4.42,23.31,12.35,32,21-2.75,3.68-6.48,1.32-9.68,1.08-4.26-.32-6.19-1.36-8.78-1.61-5.74-.57-15.72,2.11-23,1.5-3.28-.27-1.91-2.93-7.54,1.03-9.59-7.05-18.14-14.1-27-22Z"/>
      <path class="cls-47" d="M678.46,600.88c-5.68,7.73-10.68,14.67-17,22-7.24,1.83-14.96,2.52-23.13,2.07-5.48,1.93-10.91,2.4-14.87-2.07l.26-3.13,18.63-21.25,3.11-.63c6.89-.93,14.61-1.1,21.99-.39,3.91-.77,12.25-2.25,11.01,3.39Z"/>
      <path class="cls-13" d="M661.46,622.88c-7.7,8.93-14.59,15.82-23,24-1.79,1.33-3.76,1.08-5.91-.75-9.31.58-18.78.47-28.1,0-3.4,1.34-5.71-.26-3-3.24l.21-2.79,19-17.25,2.79.05c2.86-1.13,5.41,1.66,7.29,1.74s5.12-1.51,7.38-1.66c7.78-.51,15.46-.41,23.33-.08Z"/>
      <path class="cls-30" d="M111.46,623.88c.18-3.21,2.39-3.27,6.63-.16,10.77.26,20.89-.01,30.37-.84,7.68,3.24,16.23,10.64,20,18,4.3,7.01-9.1,9.09-13.6,5.02-3.67,1.94-6.74,1.66-10.56.34l-2.44,1.57c-3.6-.78-7.06-1.42-10.39-1.92-7.29-7.16-13.45-14.38-20-22Z"/>
      <path class="cls-24" d="M720.46,408.88c-1.08,5.68,9.89,5.12,13.51,5.08,2.26-.03,5.03-1.45,6.84-1.12.87.16.13,2.76,3.15,2.07.27-.06.67-3.98,4.49-1.02-.61,8.25-1.84,16.8-3,25l-2.84,1.73-23.31.03c-1.46-.01-2.08-1.27-1.86-3.76l-1.55-3.27,2.35-21.93,2.2-2.8Z"/>
      <path class="cls-55" d="M54.46,437.88c4.17,6.58,6.46,18.34,5,26l-1.51,1.68c-8.65-.12-17.22-.22-25.72-.31l-1.77-1.38c-1.76-8.27-2.82-16.63-4-25l.61-1.36c4.46,1.41,7.76.86,9.89-1.66,5.99.54,11.82,1.21,17.5,2.02Z"/>
      <path class="cls-62" d="M65.46,485.88l2.49,1.24,5.69,16.23-1.18,2.53c1.52,5.9-.6,6.59-5.96,5.32-6.98.52-13.95.53-20.92.04l-2.11-2.36c-2.68-7.52-4.81-15.31-7-23,.93-.77,1.97-1.55,3.21-1.7,4.74-.58,17.79-.67,22.64-.24l3.15,1.94Z"/>
      <path class="cls-24" d="M54.46,437.88c-4.01,3.52-7.16.77-10.74.22-2.2-.33-3.81,1.57-6.25-1.23.74,4.88-1.56,2.27-4.36,2.98-.97.25-.58,1.95-.67,2.01-.32.24-4.21-3.5-5.98-2.99-1.08-7.68-2.41-15.24-3-23,2.92.05,5.53-1.11,8.5-1.09,3.53.02,5.84,1.65,8.14,1.78s4.66-1.47,6.97-1.63c4.23-.29,3.43,3.56,5.4-3.07,3.25,7.5,3.97,18.07,2,26Z"/>
      <path class="cls-26" d="M745.46,438.88c-1.09,7.71-2.42,15.39-4,23l-1.66,2.29c-8.91.13-17.78-.14-26.6-.81l-.74-2.47c-1.63-7.04.92-18.05,5-24,.87,2.88,2.49,1.42,4,1.52,8.23.52,15.89-.51,24,.48Z"/>
      <path class="cls-37" d="M566.46,668.88c2.37.65,5.07.51,8.1-.44,5.59,1.47,11,1.47,16.23.03l18.41,1.32,1.26,2.1c-5.92,4.66-11.82,8.72-18,13-2.18-1.39-4.49-.15-6.36-.32-1.3-.12-2.24-1.44-3.99-1.44-1.57,0-5.88,2.71-7.14,2.69-1.76-.02-2.95-1.61-4.27-1.79-3.62-.49-13.92-1.38-17.36-.59s-7.27,5.97-9.89-1.56l1.03-2.81,19.06-10.72,2.91.53Z"/>
      <path class="cls-48" d="M83.46,530.88c-.07.51-.17,1.02-.36,1.48-.73,1.82-25.46,1.21-28.61.07l-2.03-1.55c-3.14-7.26-6.35-14.55-9-22,7.52,1.44,14.95.47,22.5.31,4.15-.09,5.73,2.88,6.5-3.31,5.61,5.83,10.68,16.91,11,25Z"/>
      <path class="cls-22" d="M59.46,463.88l2.38,1.34,4.99,18.29-1.37,2.37c-9.85.08-19.28,1.15-29,0-2.08-7.3-4.41-14.55-6-22,4.93-2.68,10.8-.12,15.5,0,3.84.09,9.47-1.23,13.5,0Z"/>
      <path class="cls-44" d="M148.46,622.88c.56,3.18-1.6,1.78-3.49,1.97-4.88.5-23.03,1.78-27,.91-2.57-.57-3.93-3.55-6.51-1.87-5.04-5.86-9.21-10.73-14-17,.28-2.63,2.1-2.63,5.45,0,5.29-2.66,11.32-2.69,18.1-.09l9.48-2.15,1.97,1.25,2.92.29,12.97,13.76.11,2.95Z"/>
      <path class="cls-20" d="M587.46,653.88c5.18,1.66,11.07,1.63,17.69-.08,1.38.14,2.44.86,3.07,2.09l8.33-1.25c3.23-.16,9.99-.04,8.91,4.25-4.97,4.4-9.69,8.81-15,13l-20.94-1.5c-5.16,3-10.02.14-15.59.04-2.83-.05-7.14,3.63-7.48-1.53l1.5-3.38,15.79-11.34,3.71-.29Z"/>
      <path class="cls-22" d="M741.46,461.88c-1.67,8.03-3.76,16.11-6,24-1.62,2.72-4.89,2.71-9.79-.03-5.41,1.06-19.35,2.78-18.21-4.97-1.58-5.78.83-15.68,5-20,2.08,1.39,4.09.18,6.27.35,3.23.24,8.51,1.24,12.03,1.28s7.23.04,10.71-.63Z"/>
      <path class="cls-34" d="M707.46,480.88c.45,4.23,10.06,3.7,13.39,3.89,1.38.08,3.08-1.08,5.03-.9,2.61.24,5.97,3.28,9.58,2.01-1.95,6.88-4.67,13.3-7,20l-1.87,2.1c-9.09.6-18.13.15-27.07-.78l-.06-2.32c-.5-7.6,3.05-18.21,8-24Z"/>
      <path class="cls-53" d="M716.46,536.88c-3.16,6.95-6.43,13.28-10,20l-1.55,1.59c-9.69-1.75-19.44-1.55-29.25.6l-1.2-2.19-.72-2.72,9.05-16.43,2.68-.85c1.91-2.81,29-3.4,30.06-2.28.6.63.86,1.43.94,2.28Z"/>
      <path class="cls-49" d="M109.46,575.88c5.6,2.58,12.2,11.9,13,18,1.27,4.69-3.64,3.54-6.81,2.29-10.56,1.94-19.95,1.18-28.19-2.29-3.62-5.22-6.66-10.63-10-16l.83-2.34c9.6-.25,19.08-.86,28.44-1.81l2.73,2.15Z"/>
      <path class="cls-8" d="M691.46,582.88c-4.08,6.33-8.64,12.06-13,18-4.48-4.07-6.7-1.39-11.33-1.38-3.89,0-7.44-.6-11.15-.67s-7.24,2.55-10.53-.95c1.39-6.61,7.98-14.94,14-18,8.87-.08,17.69.59,26.44,2.02,2.47-2.02,6.32-3.06,5.56.98Z"/>
      <path class="cls-33" d="M67.46,560.88c-.54-5.25,5.13-4.4,8.57-3.1l13.53-.79c3.49-.17,6.46.46,8.9,1.9,4.99,2.26,11,11.52,11,17-3.28-.72-6.59.91-9.56.96-5.81.09-11.4-.16-16.98.02-1.94.06-3.65.41-5.46,1.02-3.59-5.78-6.75-11.1-10-17Z"/>
      <path class="cls-9" d="M728.46,505.88c-2.37,6.83-4.24,12.22-7,19l-1.48,1.64-8.14-1.36c-5.66,2.05-15.8,2.41-20.39-1.28-1.02-5.38,3.48-15.92,8-19,5.36,3.53,10.34-1.43,15.27,1.74l13.73-.74Z"/>
      <path class="cls-23" d="M187.46,655.88c.55,3.06-1.57,1.97-3.5,1.94-3.18-.05-7.52-2.33-9.85-1.85-.7.15-.62,1.38-1.19,1.58-6.27,2.17-4.79-1.08-8.19-1.57-2.06-.29-2.84,1.43-3.94,1.59-2.11.31-5.69-1.48-8.64-.72-1.18.31-1.26,2.77-2.21,3.02-2.02.53-2.92-5.59-6.49-3-4.05-3.61-8.13-7.2-12-11,4.65-3.37,8.14.1,10.48.05.57-.01.43-1.72,1-1.92.68-.23,5.58,1.46,7.03,1.41,1.73-.07,3.45-1.58,5.01-1.49,1.41.09,2.42,1.7,4.03,1.89,3.85.47,9.43-.12,9.45-4.95,7.13,2.04,15.37,8.53,19,15Z"/>
      <path class="cls-23" d="M601.46,642.88c-.43,3.58,1.26,1.28,2.81,1.26,10.02-.08,18.61.91,28.57.05l5.62,2.68c-4.64,4.51-8.21,7.76-13,12-6.12-4.71-13.14-.76-18.43-.98-.68-.03-.14-2.14-2.02-2.13-3.12.02-4.79,1.27-10.06,1.13-2.41-.07-6.89,1.95-7.49-3.02,1.06-4.69,9.2-11.05,14-11Z"/>
      <path class="cls-11" d="M706.46,556.88c-2.66,5-5.1,10.11-8,15-6.25,3.07-16.19,3.61-22.99,1.08-3.19,2.03-9.11,1.16-9.01-3.08-1.32-3.63,4.16-12.57,8-13,5.83,1.15,11.08-1.76,16.5-2.08,4.86-.28,10.65,2.01,15.5,2.08Z"/>
      <path class="cls-43" d="M83.46,530.88c4.26,1.72,9.15,11.56,8,16-5.02,2.18-10.14,3.35-15.34,3.5l-1.38-1.66-12.42,1.87-1.86-1.72c-2.86-5.73-5.45-12.1-8-18,4.09-1.5,6.83,1.02,10.5,1.11,2.31.05,4.41-1.03,6.12-1,4.53.08,9.87,1.29,14.39-.11Z"/>
      <path class="cls-54" d="M122.46,593.88c4.77,1.07,9.78,7.12,10,12-2.57.96-9.21,3.05-11.56,2.89-3.14-.21-8.96-2.79-13.84-1.88-1.64.3-2.84,1.98-4.1,1.99-1.53,0-3.34-2.62-5.5-2-3.34-4.38-6.83-8.43-10-13,3.33-1.99,5.49.98,8.51,1.08,6.5.23,13.42-1,19.87-.78,2.38.08,4.06,2.77,6.62-.31Z"/>
      <path class="cls-19" d="M721.46,524.88c-1.67,4.09-3.16,7.96-5,12-4.92-1.42-9.12.01-13.46.05-3.29.02-6.48-.88-9.05-.86-2.74.02-5.47,2.27-8.49.81-1.11-4.54,1.78-10.96,6-13,5.2.04,11.32.77,16.38.72,1.02-.01,2.18-1.42,3.9-1.42,2.59,0,7.13.85,9.72,1.71Z"/>
      <path class="cls-42" d="M91.46,546.88c3.7.4,8.53,8.58,7,12-2.64,1.53-6.29-.05-9.32.11-5.65.3-8.02.89-13.24.78-3.27-.07-3.73-3.09-8.44,1.11-2.21-4.01-4.95-7.89-7-12,3.83-.59,11.02-2.25,14.54-2.12,1.85.07,1.34,1.75,1.96,1.96,3.2,1.09,9.63-4.75,14.5-1.84Z"/>
      <path class="cls-59" d="M666.46,569.88l5.48,2.62c4.29-3.35,6.2-.25,9.15.09,4.27.49,12.38-1.81,17.37-.71-2.22,3.73-4.65,7.36-7,11-2.3-2.24-3.82,1.03-5.5,1.01-1.57-.02-6.71-1.96-10.75-1.77-5.67.27-3.86,1.11-10.53-.08-2.35-.42-5.12,2.19-5.22-2.16-.96-3.84,3.09-9.54,7-10Z"/>
      <path class="cls-56" d="M251.46,47.88c.07,6.6,4.42,2.35,4.99,3l-1.01,6.99c-1.6.15-1.22-2.17-2.39-3.08-4.72-3.65-6,2.91-7.08,3-.42.04-2.03-1.59-3.26-1.77-1.95-.27-3.62.54-4.8.38-1.08-.15-1.89-1.42-2.46-1.53,4.79-3.23,10.68-4.91,16-7Z"/>
      <path class="cls-56" d="M234.46,54.88c2.35,3.16,4.66,3.9.5,7l-3.5-5c.69-.28,1.63-1.81,3-2Z"/>
      <path class="cls-56" d="M404.46,22.88c-3.78-.01-9.02.84-12-1,3.78.01,9.02-.84,12,1Z"/>
      <path class="cls-56" d="M605.46,95.88l-4.99,2c-.65-2.58,1.11-1.97,2.99-3,.56.42,1.45.58,2,1Z"/>
      <path class="cls-63" d="M635.46,121.88c-2.26,1.95-3.23-.4-3-3,1.16,1.07,2.02,2.07,3,3Z"/>
      <path class="cls-35" d="M468.46,739.88c-1.88.44-3.38.64-5,1,.74-2.69,2.91-1.13,5-1Z"/>
      <path class="cls-56" d="M418.46,23.88c-1.6-.06-4.15.62-5-1,2.22.14,4.31.94,5,1Z"/>
      <path class="cls-52" d="M212.46,705.88c-1.11-.56-2.23-.94-3-2,.34.09,2.69-2.56,3,2Z"/>
      <path class="cls-45" d="M374.46,50.88c4.89,6.81,8.16,14.71,9.82,23.69,3.26,8.53,4.65,16.97,4.18,25.31,4.73,6.81,7.04,17.95,5,26,2.38.87,3.16,1.58.78,2.69,2.61.07,2.29.86.22,2.31,4.01,5.63,4.79,17.69,2,24,3.39,5.63,3.81,13.05,1,19,.68,9.52.85,19.07.51,28.65,2.88,5.22,1.61,10.99-.51,16.35-.39,3.03-.72,6.03-1,9,2.69,1.9,2.67,4.09,0,6,1.3,8.81.41,17.43-.85,26.75l-2.15,1.25c1.89,7.34-3.72,17.72-7.59,24.47-3.66,6.4-9.3,16.11-16.41,17.53-2.2,6.93-12.05,11.66-18.76,14.71-28.08,12.76-55.36,5.84-81.39-6.73-21.32-10.86-45.52-2.8-44.83,23.43l-2.02,1.59c3.02,6.47,3.71,16.44,1,23,1.77,3.06,2.1,5.73,1,8,.87.33.87.67,0,1,4.29,14.94,6.06,31.49,5,47,3.56,4.08,4.3,11.07,2,16,3.28,1.87,4.49,7.07,2,10,3.52,2.94,4.3,9.08,2,13,2.51,1.47,5.25,5.08,2,7,2.82,1.31,3.09,2.7,1,5,3.85,3.42,5.03,11.33,3,16,4.36,5.51,6.19,13.09,5,20,3.89,2.94,5.66,8.44,4,13,4.27,3.92,6.2,10.3,5,16,4.36,3.26,8.27,11.66,7,17,3-.4,3.14,2.13,1,4,3.04.86,3.61,2.28,2,5,4.15,2.18,7.24,8.44,6,13,3.96,1.35,7.43,9.09,6,13,4.32,1.84,8.96,10.39,8,15,5.35,3.32,9.66,11.68,10,18,4.88,2.09,8.88,7.68,9,13l3.47,1.37,13.04,15.97.49,3.65,2.78.59c5.46,5.96,11.1,11.76,16.94,17.4l.28,3.01c5.05.85,11.99,7.12,13,12l3.95.58c8.51,6.71,17.49,12.77,26.98,18.01l2.08,3.41c9.59,5.15,16.91,8.09,27,12,1.67.8,1.96,1.68,0,2-48.5,2.77-91.95-1.12-138-17-19.64-6.77-39.02-15.65-57-26-11.05-6.36-21.7-13.51-32-21-6.66-4.84-12.69-9.6-19-15s-13.71-11.73-20-18c-4.97-4.96-11.44-11.74-16-17-3.35-3.87-6.92-8.12-10-12-4.27-5.4-8.98-12.2-13-18-3.6-5.19-7.78-11.6-11-17-2.18-3.66-5.03-8.35-7-12-2.54-4.71-5.7-11.12-8-16-3.75-7.94-7.89-16.83-11-25-2.25-5.9-5.14-14.03-7-20-1.96-6.32-4.5-15.58-6-22-1.92-8.23-3.77-17.66-5-26s-1.82-17.39-2-26c33.26-12.52,68.01-20.77,103.51-23.99,7.19-.65,26.31.25,31.41-2.59,8.75-4.86,5.88-16.36,5.07-24.41-35.33-.53-69.26,4.13-103.52,11.97-.56.13-1.62.3-1.46-.47,2.1-2.39,3.85-5.18,5.99-7.51.44-1.23.92-2.45,1.53-3.6s1.2-2.26,2.04-3.13c12.88-13.38,26.29-26.16,40.5-38.12.93-.78,2.08-1.31,3.25-1.85s2.42-.94,3.68-1.31c.79-2.01,1.94-3.79,3.46-5.32l38.57-28.12c6.6-24.66-13.33-18.09-27.34-8.39-17.33,12-33.53,26.13-49,40.07l-2.7-.24-1.55,3.25c-11.95,12.86-24.04,25.57-36.28,38.14l-3.17,1.61c-4.61,5.32-10.96,10.33-14.01,16.99-1.64.27-.93-1.35-.99-2.47-.17-3.3-.19-7.23,0-10.52.85-14.97,3.88-32.29,7-47s7.63-30.37,13-45c3.76-10.25,8.27-20.17,13-30,.37-.77.47-1.93,1-3-.31-1.99.22-3.03,2-4,5.57-10.85,12.26-21.83,19-32,9.11-13.74,19.99-27.74,31-40,10.01-11.15,22.48-23.44,34-33,16.01-13.29,34.78-25.94,53-36,12.05-6.65,25.23-12.86,38-18,15.86-6.39,32.28-11.36,49-15,1.44-3.45,10.34-5.74,13-3,.32-.06.68.06,1,0,4.89-3.25,10.89-4.25,18-3,1.29-.16,2.71.15,4,0,4.93-2.15,10.6-2.81,17-2,3.3-.19,6.69.11,10,0Z"/>
      <path class="cls-45" d="M381.46,50.88c2.95-.88,6.05-.88,9,0,1.33.02,2.67-.04,4,0,1.88-1.18,4.15-1.24,6,0,53.98,2.44,111.71,19.14,158,47,12.69,7.64,26.5,17.64,38,27s22.11,19.64,32,30c3.46-.17,4.46.83,3,3,.69.74,1.45,1.39,2,2,10.9,12.01,22,26.48,31,40,7.24,10.88,14.08,22.34,20,34,6.02,11.86,11.45,24.5,16,37,5.73,15.74,10.93,32.49,14,49,.37,2.01,2.46,13.31,1.93,13.93-26.3,6.95-52.32,15.23-78.93,21.07-14.82,3.25-33.68,4.58-47.26,8.24-14.6,3.94-10.92,25.6,3.75,25.77s42.38-7.24,57.33-10.69c11.2-2.58,38.65-12.2,47.68-12.34.75-.01,1.74-.24,1.5.51l-6.99,14.51c-7.59,10.23-13.89,22.19-22,32l-.02,3.12c-6.77,7.73-14.23,14.87-21.84,21.76l-3.13.12-.66,3.25c-7.69,6.7-15.62,13.17-23.92,19.12l-4.42.63-1.59,3.44c-10.2,6.52-20.91,12.21-31.62,17.83l-3.79-.27.19,1.4c-7.92,3.82-15.74,8.03-23.47,12.61-.75,2.82-1.99,4.15-3.72,3.99,2.24,4.84-6.17,7.37-10.42,6.71-10.45-2.67-20.92-1.22-31.41,4.37-1.36.32-2.48.33-3.17-1.07-10.88,6.19-25.07,9.78-37.57,12.32-2.46.5-4.99.1-7.43-.32l-.61,2.17-23.56,3.92s-3.28,1.64-9.83,4.91c1.38,1.96,1.33,2.35.55,4.6-1.67,16.4,15.8,12.77,26.7,10.35l29.83-7c9.21-2.65,18.46-5,27.92-5.95l3.57-3.16c7.86-3.18,18.3-6.66,26.43-6.84l2.36-3c9.03-4.06,18.24-7.06,27.64-9l1.66-2.93c5.06-3.13,13.82-6.8,19.34-7.07l1.74-3.17c8.11-4.26,15.96-8.94,23.66-13.89l3.6.06,1.54-3.38c9.19-5.95,18.14-12.21,26.59-19.17l4.87-1.45.79-3.3c6.28-5.39,12.19-11.16,17.91-17.14l3.31-.56.55-3.48,10.77-11.8c3.27-4.88,7.17-8.78,11.68-11.72,6.46-9.11,13.04-18.49,17.01-28.99,1.74-.24.94,2.28.99,3.48.24,6.42.4,14.16,0,20.51-.54,8.65-1.69,19.2-3,28-1.16,7.76-3.26,16.28-5,24-1.44,6.4-3.18,13.73-5,20-2.27,7.82-5.13,16.37-8,24-2.2,5.84-5.41,13.24-8,19-1.9,4.23-3.93,8.87-6,13-3,5.97-7.58,14.21-11,20-2.32,3.92-5.54,9.24-8,13-2.11,3.23-4.73,6.82-7,10-4.25,5.98-9.33,12.31-14,18-6.35,7.73-15.04,18.01-22,25-6.01,6.04-15.42,14.51-22,20-4.2,3.5-9.6,7.69-14,11-6.59,4.96-14.1,10.57-21,15s-15.97,9.28-23,13c-15.61,8.27-32.27,15.29-49,21-22.07,7.52-44.44,12.71-67.6,15.95-1.36.15-1.67-.63-2.23-1.63-1.02-1.82-3.3-10.44-4.17-13.33-4.69-4.85-7.37-13.39-6-20-3.65-2.76-5.07-7.83-3-12-4.87-6.38-7.38-16.09-6-24-4.15-4.55-5.92-12.14-4-18-3.73-2.45-5.51-11.35-3-15l-2.35-1.94c-1.74-5.18-2.47-13.44-.65-18.06-3.25-1.13-4.04-10.39-1-12-3.18-2.64-3.06-9.2,0-12-3.01-2.72-3.09-8.4,0-11-2.24-1.98-2.23-6.64,1-7-2.67-.97-2.92-3.26,0-4-3.03-6.1-1.16-13.55,2-19-2.35-4.74-1.6-10.12,2-14-2.86-1.88-1.58-10.5,2-11l-1.53-1.71c2.29-6.02,5.27-11.81,8.56-17.35l2.97-.93-.64-2.56c3.13-5.55,10.53-12.69,16.64-14.44-.35-2.89,1.99-4.55,7-5-.19-3.48,4.11-5.8,7-4l1.89-3.02c12.65-5.65,26.29-7.54,39.87-5.01l25.42,5.32c10.99,1.44,19.99-2,26.22-11.37l2.6-.92c-1.74-2.61.86-10.32,4-11-1.56-5.71.13-13.52,4-18l-.74-3.52c1.59-14.36,2.78-28.78,3.57-43.26,2.54-7,2.48-15.39,1.17-22.22-3.22-3.35-3.46-10.08-1-14l-2.18-2.33-2.39-18.91,1.57-2.77-2.55-3.06c-2.01-11.87-4.76-23.57-8.34-35.07l.88-3.87c-5.12-5.86-9.32-16.22-9-24-4.64-3.62-7.81-12.19-7-18-5.5-4.69-9.65-12.82-10-20l-3.76-2.78c-7.81-14.49-16.73-28.32-26.39-41.64l-.86-4.58-3.7-1.64c-6.78-9.13-14.05-17.86-21.53-26.42l-.78-3.94c-.75-.08-1.49-.19-2.17-.46-2.08-.81-18.83-19.16-21.73-22.64l-1.1-3.91-3.06-1.13c-14.45-13.4-29.48-26.05-45.09-37.95-1.9-1.55-3.17-3.57-3.85-5.92,2-.06,4,.02,6,0Z"/>
      <path class="cls-6" d="M375.46,50.88c8.91,7.99,18.93,14.68,28.01,22.49,8.28,7.12,16.2,14.88,23.99,22.51,4.89,9.79-7.89,7.86-12.91,4.3-7.12.67-13.78.15-19.99-1.56-1.78,4.18-4.15,5.98-6.09,1.26-3.59-16.65-8.02-33.06-14-49,.33-.01.67,0,1,0Z"/>
      <path class="cls-56" d="M303.46,52.87c-2.48-1.06-8.05,3.01-8.5,2.99-1.38-.06-.21-4.44-4.22-2.23-3.51,1.93-1.85,2.98-1.28,6.25-2.85-4.88-23.79-3.59-24.99-5.01-.59-.7.06-3.43,1.64-3.91,2.82-.84,4.78,1.86,6.86,1.86,2.33,0,4-2.6,5.01-2.64,1.28-.05,2.61,2.04,3.97,2.24,2.84.41,7.81-2.63,8.88-2.4,1.2.26,2.02,2.41,3.12,2.54,1.9.23,7.59-4.39,9.52.31Z"/>
      <path class="cls-56" d="M311.46,58.88c-.93-2.35-.9-7.38,1.02-8.99,1.59-1.34,2.21,2.57,4.71,2.82,2.07.22,3.37-.5,5.26-.83l2.01,4c-3.92.71-8.85,2.1-13,3Z"/>
      <path class="cls-56" d="M343.46,52.88c-5.8.73-12.18,1.99-18,3-.15-2.19-.03-3.56,2.49-4.01,4.91-.88,10.94-.73,15.51,1.01Z"/>
      <path class="cls-56" d="M364.46,50.88c-5.22.31-11.5,1.38-17,2,1.71-6.62,12.44-1.01,17-2Z"/>
      <path class="cls-56" d="M390.46,50.88c-2.99-.05-6.01-.03-9,0,1.86-1.68,7.14-1.68,9,0Z"/>
      <path class="cls-56" d="M400.46,50.88c-1.99-.09-4.01.06-6,0,1.71-2.44,4.34-2.39,6,0Z"/>
      <path class="cls-56" d="M263.46,56.87c-.84.84-3.77-1.66-3.99-2.98,2.01-.99,5.18,1.8,3.99,2.98Z"/>
      <path class="cls-56" d="M306.45,57.87c-.58,1.24-2.49-3.61-1.98-5,2.26.6,2.13,3.13,1.98,5Z"/>
      <path class="cls-36" d="M107.46,314.88c1.97.57,4.05-.43,6.24-3.02,5.09,1.36,9.88,1.55,14.38.55l2.91,2.6c3.86-.88,11.74-1.98,13.47,1.87-17.95,14.66-35.28,30.98-51,48-6.07-4.78,2-2.92,1.99-7-4.63,2.31-11.23-3.43-13.49,1.99-6.6-6.94-4.82-.74-6.08.11-.28.19-6.2,2.16-6.41,1.9-.36-.43.79-3.84-3.01-4.01,13.01-14.98,26.11-29.36,41-43Z"/>
      <path class="cls-5" d="M414.46,683.88c1.81,6.57,4.02,13.44,6,20-5.66,3.81-6.8-.28-9.67-.76-1.2-.2-9.66,2.54-11.62,2.5-3.75-.07-7.84-4.05-11.71.26-12.41-6.66-22.05-13.21-33-22l.99-2.32c8.09-.48,16.15-.34,24.19.43,2.06-3.6,4.85-1.55,7.26.51,4.74-2.35,8.89-2.17,12.45.55,4.35-2.85,12.8-4.74,15.11.83Z"/>
      <path class="cls-4" d="M414.46,717.88c1.13.44,2.79.2,3,1.99-.99.06-2.01-.05-3,0v-2Z"/>
      <path class="cls-24" d="M702.46,413.88c-7.54,10.63-14.16,17.73-23,27-1.31.56-2.11.22-2.87-.78-5.64,2.4-12.43,1.9-17.91-.78-1.63,4.06-13.51,3.09-12.23-1.45,7.89-7.01,18.36-16.96,25-25,1.35.55,2.31,1.76,3.96,1.43,2.98-.61,11.9-2.08,14.55-2.09,1.85,0,7.58,5.36,12.49,1.66Z"/>
      <path class="cls-56" d="M593.46,96.88c1.09,3.39-5.16,2.85-5.99,1.98-2.44-2.55,5.16-2.14,5.99-1.98Z"/>
      <path class="cls-29" d="M628.46,154.88c1.35-.44,6.42-1.6,7-.99,2.44,2.52-2.58,3.06-4,3.99-.85-.91-1.99-1.94-3-3Z"/>
      <path class="cls-41" d="M85.46,236.88l-1.01-2.98,3.01-1.02c-.66,1.28-1.36,2.71-2,4Z"/>
      <path class="cls-60" d="M549.46,345.88c.96,3.93,1.85,23.05-2.57,23.68-1.93.28-3.39-1.08-3.82-2.92.18-2.82-1.02-2.44-3.58,1.16-2.77,1.39-10.61-1.11-12.8-3.09l-4.67,1.2c-7.4,6.23-11.67,6.01-12.8-.64l-6.35-1.99c-1.95,5.32-6.25,6.55-12.88,3.69-3.63,1.85-6.64,3.06-9.51-.78-1.92,1.85-4.23,1.62-6.57.83-1,3.21-3.74,3.84-8.22,1.88-5.54,1.45-9.9.91-13.07-1.6-2.15,1.51-4.42,1.62-6.59-.02-1.74,2.56-4.2,2.75-7.38.57-3.88,1.05-7.68.76-9.8-3.1-2.62,1.55-4.99,2.37-7.11,2.47-3.01-3.31-6.5-3.72-10.37-1.17l-1.92-1.19-2.76-.05c-10.95-10.48-29.05-10.56-40.49-.81l-2.74-.14c-3.3,2.2-6.5,2.88-9.6,2.06-2.03,4.49-5.87,3.28-8.66.13-1.09,6.75-6.35,5.82-8.67.05-4.7,6.76-10.17,4.97-16.39,1.63-1.31.38-2.66.26-3.91-.24-3.08,3.63-5.43,2.05-7.18-1.6-1.92,3.7-4.07,2.8-6.45.35-7.58,4.24-12.55,4.04-14.91-.59-5.31,1.12-10.13,1.93-15.4.38-1.24-2.19-2.09-2.58-4.44-1.1-3.89,6.51-11.13,4.26-15.93-.22.34,5.19-8.8,5.8-12.87,4.17-3.16,2.69-5.52,1.82-8.29-.82-1.88,2.52-5.16,4.6-6.3.78-.03-.33.02-.67,0-1,.97-2.44.64-5.1-1-8-.43-7.61-1.11-15.38-1-23,4.45-6.2,7.87-6.57,10.26-1.11,4.35-2.75,7.94-3.36,10.76-1.84,2.73-1.39,4.73-1.07,6.02.98,2.99-2.23,6.63-1.09,9.59.61,3.14-.96,5.23-.37,6.27,1.76,2.83-2.94,5.17-3.65,9.13-2.73,7.84-3.6,11.89-3.04,12.17,1.69l4.83.62c10.2-3.51,20.98-4.22,32.33-2.15,5.96-1.22,11.24-.37,15.84,2.53,2.51-2.74,5.99-3.68,10.44-2.82,5.17.75,10.02,1.14,15.11.87,1.74-2.78,4.94-2.85,9.58-.21,3.74-7.72,8.84-2.6,13.17,1.77.57-1.6,1.44-2.24,2.97-2.84,3.01-1.18,11.59.16,14.75.97,2.78-2.53,5.67-3.05,7.2.77,2.13-.73,4.27-.76,6.42-.12.24-4.33,3.35-4.71,6.65-2.52,2.77-2.39,5.33-1.02,5.61,2.49,4.27.02,8.47.63,12.59,1.85-.6-1.31-.75-3.04.37-4.17,1.03-1.05,13.47-3.7,13.23,1.37,2.83-2.45,6.33-1.93,10.5,1.56,1.08-3.74,4.02-4.48,6.15-1.16l6.15.66c3.63-4.34,10.41-7.51,7.34,1.25,2.34-3.91,5.82-5.69,8.71-1.18,4.41-1.45,8.64-2.2,12.67-2.26.85,1.16,4.29,4.72,5.79,3.53.75-5.36,4.9-9.02,7.65-2.78,1.74-2.9,4.94-1.95,9.61,2.87.15-5.36,5.02-7.51,6.63-1.57l3.24.09c2.19-3.92,4.28-5.18,6.26-3.78.32,4.48.93,9.16,1,14Z"/>
      <path class="cls-58" d="M369.46,303.88c6.32,4.81,11.19,7.01,16.01-.96,2.59-2.13,4.54-1.49,6.38,1.27,3.53-.97,6.36,1.3,8.78,3.66,1.3-1.7,3.29-2,5.99-.92,3.58-2.85,6.15-2.19,9.67.4,1.32-5.32,7.66-3.62,9.12.77,3.14-5.02,7.26-4.53,11-.35,2.75-3.5,5.52-5.21,8.32-5.12,4.41,3.52,8.81,4.36,13.19,2.52l3.05,1.59c1.91-5,4.67-4.23,7.92-.94,3.31-4.63,7.7-3.47,13.16,3.47-1.79-2.67-1.57-3.94,1.06-5.9.52-.39,12.22.7,12.81.98,3.18,5.81,5.62,6.41,7.32,1.82,3.87-2.48,12-1.13,16.64-.16,1.75-3.1,4.14-4.71,6.38-1.21,1.4-2.84,3.78-3.11,7.15-.8,3.16-5.18,7.53-3.32,8.07,2.37,1.51.1,2.73.66,3.97,1.5,1.46,8.8,2.36,15.04,3,24-2.15.81-4.27,5.36-5.61,5.75-.26.08-5.21-.06-5.45-.19-.77-.42-.08-3.58-1.43-3.54-2.9.09-.15,5.78-1.01,6.99-2.63-1.17-5.51-3.25-7.76-5.03-.87-.69-.81-3.62-2.75-1.47l1.02,2.48c-4.67,1.48-5.12-3.98-5.51-4-3.23-.2-1.73,5.13-4.12,5.94-4.79,1.64-7.49-3.95-7.96-3.99-1.71-.16-7.33,3.51-10.41,2.07l.49,3c-3.77,1.17-2.35-4.63-4.98-4.85s-3.02,4.96-6.01,3.83c-3.84-1.45,1.54-4.2-.02-6-2.83.63-2.8,4.34-6.2,4.83-.84.12-6.54-.58-7.62-.82-.71-.16-2.01-6.36-3.19,2.02-2.36,0-6.14-3.71-9-4.02s-.21,4.07-2.98,3c-1.92-.75-2.57-5.11-4.98-5.03-1.14.03-2.11,1.46-3.21,1.71-.92.21-3.9-1.39-4.18.8-.09.71,1.99,3.62.35,4.55-5.42-1.09-11.07-3.09-16.48-2.01v-4c-1.79-.63-2.49,1.66-3.48,1.66-.67,0-3.35-2.73-4.51-1.67-.2.18.31,3.36-1.63,3.94-1.04.31-2.66-.77-3.89-.74-1.35.03-2.9,1.01-3.85.89-1.05-.13-1.12-2.81-2.15-3.08-1.71-.46-2.8,2.71-3.98,2.73-.48,0-1.38-1.27-2.19-1.33-3.25-.26-10.07-.97-12.74-.25-1.95.53-.3,3.09-2.09,3.83-2.85-.93-7.16-7.4-9.88-6.85-1.91.39-2.19,3.64-3.32,3.92-3.43.84-5.78-2.47-7.73-2.13-.91.16-.84,2.13-1.5,2.62-.76.57-2.49-.73-3.52-.51-6.54,1.36-2.72.5-8.11.02-4.55-.41-15.83-2.43-13.45,3.96l-8.54-4.97c-10.89,2.5-21.44-1.72-32.69.14-2.15.36-4.58,2.56-7.39,2.79-4.52.37-6.47-2.64-10.37,2.04-1.59-2,5.27-6.58,1.47-7.01-.47-.05-7.53,2.31-9.15,2.65s-3.51-.75-4.64-.36c-1.97.68-5.94,6.27-6.69,2.23-.61-3.31-1.67-.41-4.33-.81-1.98-.3-3.14-2.36-7.24-1.8-2.16.29-.95,2.94-2.92,2.09-1.86-.8-1.54-7.35-5.01.98-3.58-9.1-5.28-1.3-11.23-1.17-2.39.05-2.18-3.07-3.78-3.8-3.59-1.62-1.11,5.12-6.48,2.98.13-8.62.19-13.71,5.59-20.91,18.08-24.14,46.91-1.46,68.41,4.41,26.01,7.1,52.85,1.77,73-16.5Z"/>
      <path class="cls-25" d="M393.46,261.88l2.02-1.58,7.27,3.84c1.81-3.93,5.46-6.02,8.66-2.25,3.38-2.32,5.83-2.45,9.21-.14,2.87-2.34,6.07-2.66,7.38,1.32,4.22-.2,8.31.67,12.27,2.6,1.03-5.69,18.44-8.42,20.38-2.48,4.35-.25,8.78.32,13.28,1.69,4.17-2.14,8.93-2.41,14.27-.8l3.4-2.44c7.13,4.99,8.53,3.58,13.01-2.85,3.89,2.47,8.4,2.65,13.54.53,2.86.48,3.63,3.05,4.06,5.59,4.08-2.17,10.04-2.61,13.26.97,4.78,15.04,7.42,26.41,10,42-.99,2.07-3.71.05-5.06.53-.68.25-2.9,3.7-3.94,2.46-2.37-2.83,2.96-5.13,2.98-5.48.01-.18-1.14-3.25-2.48-2.5-2.28,1.27-.92,5.78-7.98.99-1.46,3.91-4.67,7.12-4.53,1.01-3.34-.94-1.16,2.72-2.52,3.06-2.83.71-6.78-1.58-8.85-1.12-.96.21-.31,2.42-1.12,2.06-.51-.23-1.11-1.5-2.23-1.77-7.79-1.88-3.77,2.9-7.8,3.76-6.09,1.3-5.89-4.52-6.52-4.97-.13-.09-1.82.9-3.16.73-1.68-.21-10.86-3.37-9.31.25l2.51,3.99c-5.42,3.09-9.43-5.8-10.66-6-4.5-.73-3.95,2.9-4.9,3.07-2.92.52-4.16-3.5-5.92-3.07l-1.53,4c-2.04.76-3.45-1.57-4.69-1.79-1.37-.25-2.5,1.27-3.77,1.36-3.59.26-10.27-4.41-11.04-4.4-.95,0-3.73,6.34-7.9,5.89-.39-.04-2.28-5.33-6.39-2.82-.28.17-2.7,5.1-5.15,2.71-.5-.49,1.13-3.72-5.03-3.94l-.02,4c-2.53.5-5.72-3.02-7.5-2.99-1.39.02-2.51,1.84-4.04,2-3.94.42-3.23-3.72-5.96,2.97-2.42-4.24-8.46-9.26-11-3-2.64-1.14.21-4.34-.51-4.98-2.48-2.21-6.67,6.8-9.48,6.6-.82-.06-7.5-1.87-8.23-2.35-1.88-1.24-2.62-1.78-2.29-4.26,12.24-11.1,19.92-26.11,24-42Z"/>
      <path class="cls-10" d="M224.46,368.88c3.81,1.06,4.73-2.76,5.55-2.99,1.63-.46,3.91,2.69,5.13,2.84s2.25-1.68,3.76-1.77c1.19-.07,2.7,1.03,4.06.92,2.5-.19,4.9-1.41,7.5-1.01l-1.99-4.99c6.21-.15,6.54,5.17,12.51,5.09,5.32-.08,3.66-2.78,6.2-3.88,5.86-2.53,5.11.7,6.49,1.56,1.5.94,13.61-.18,15.8-1.77l1.54,5.02c2.54,0,12.17-4.58,13.35-3.9.31.18,1.12,3.54,2.11,2.87,2.69-8.73,5.02.85,6.51.98,2.35.21-.53-5.95,2.49-5.98-.18,3.79,1.48,4.42,5.01,3.99.22-.17-2.75-4.62,1.49-2.98,2.23.86.23,3.66,1.48,4.53.27.19,6.14,1.54,6.47,1.52,2.79-.19,4.1-4.66,7.04-5.08,2.64-.38,1.05,4.96,5,5.03.98.02,1.63-4.85,1.52-6.01,3.01-.22,3.67,3.68,6.52,4.05,2.24.29,1.52-2.57,3.08-2.99,1.23-.33,2.76.89,3.96.84,1.93-.08,3.65-3.4,6.44-.91l.23,2.72c-11.4,13.75-8.18,36.13,7.94,44.68l.84,2.59c2.17,4.26-6.45,8.36-8.87,3.85-7.01,1.47-13.27,1.21-18.79-.78-4.28,1.68-7.6,1.38-9.96-.89-4.52,2.01-9.66,2.34-15.44.98-4.28,3.15-7.58,2.91-11.97.11-5.72,1.79-9.84,1.12-12.37-2-8.9,5.21-21.08,3.29-30.78.98-5.18,3.86-14.42,4.99-19.69.84-2.1,2.97-4.3,3.19-7.17,1.03-4.52,1.52-7.17.81-7.96-2.11-2.13-15.75-3.79-31.19-5-47Z"/>
      <path class="cls-24" d="M403.46,411.88c4.02,1.85,8.23,3.22,12.62,4.11,5.51-3.63,9.7-3.7,12.59-.22l16.81-2c7.67,1.73,15.55,2.1,23.66,1.12,2.67,1.99,5.18,1.74,7.53-.74,4.22,1.07,7.9.81,11.04-.79,3.08,1.96,5.73,1.79,7.94-.51l13.15,1.99c6.27-2.78,10.62-2.48,13.04.9,4.98-2.35,9.4-2.31,13.27.1,5.71-3.51,9.17-3.83,10.36-.96-1.06,5.96-2.38,12.16-4,18-11.45,3.59-24.67,2.81-36.69,1.09-3.51,4.03-5.6,2.62-8.95-.65-5.24,1.74-10.83,1.75-16.77.04-4.28,2.1-7.99,1.98-11.12-.37-8.19,1.89-14.53,3.31-22.78.34-4.59,2.51-8.06,4.18-12.03-.33-5.28,3.6-9.63,2.25-15.29.33-9.8-1.17-17.36-.12-26.35,2.65-24.06-4.69-50.92-3.03-75.35-.41-15.27-.37-30.54-.72-45.81-1.05l-1.8-1.22c-11.77,1.11-23.89,1.18-35.8.94l-1.27-2.36c-.82-5.3-1.28-10.69-2-16,2.99,1.78,5.64.05,8.3.17,1.08.05,2.41,1.63,3.21,1.58,1.1-.07,1.88-2.77,3.8-2.61,1.7.14,3.74,2.76,6.01,2.61.96-.06,8.49-.85,8.94-.95,1.4-.3,2.56-2.31,4.34-2.53,3.41-.42,8.81,2.48,11.71,2.43s12.47-.75,15.18-1.19c1.52-.25,2.4-2.02,4-2.17,2.11-.2,2.42,2.45,3.2,2.63,3.39.77,7.28-.99,9.63-.66,1.56.22,3.54,2.42,6.2,2.24,1.84-.12,3.48-2.15,5.19-2.37,2.52-.34,8.85,1.34,11.69.8,1.85-.35,3.04-2.24,5.05-2.04.6.06.09,1.97,2,2.16,2.72.27,5.3-1.11,7.11-1,1.57.1,2.63,1.88,4.89,1.96,3.85.14,9.16-1.76,14.12-1.15,2.08.26.99,2.43,2.87,2.12s4.52-2.41,5.56-4.04l2.73-1.07c8.38,3.18,17.51,2.98,25.37-1.52l2.9.59Z"/>
      <path class="cls-7" d="M396.46,154.88c6.19-3.16,12.04-4.92,15.87,3.37,4.68-.92,9.33-1.96,13.95-3.1l2.26,1.58c.64-4.1,3.09-6.98,6.68-3.38,4.47-1.08,11.52-1.7,12.27,4.24.28-5.57,5.78-5.52,9.53-2.71,4.14-4.61,10.86-4.24,12.3,2.33,1.1-3.59,7.39-4.1,7.37-1.74l1.76-.59c12.18,16.67,21.31,30.68,31,49-2.11,3.48-8.74,6.11-10.72.84-.63-.35-13.31,1.01-13.85,2.03.88,3.25-1.72,5.07-4.5,3.2-3.86-7.41-14.14-7-19.32-1.47-6.71-1.68-13.34-2.71-19.9-3.1-2.27,6.19-5.23,3.01-7.39-1.41-5.03,2.36-8.59,3.59-14.13,2.27-4.81,2.99-8.51,3.19-11.08.61-6.89,2.5-10.41,1.38-10.55-3.37.26-9.9.07-19.77-.57-29.6-.18-6.4-.56-12.63-1-19Z"/>
      <path class="cls-26" d="M537.46,443.88c-6.54,12.5-18.61,16.72-32.2,13.7-24.98-5.54-38.4-10.3-63.8,1.3-2.2-.64-4.54-.47-7.01.51-17.57-.65-35.13-.96-52.69-.94l-2.67-1.44c-3.24,2.61-5.91,3.71-9.44.84-4.78,1.82-8.45,1.5-11.01-.97-5.39,2.4-9.99,2.39-13.81-.06-3.4,2.99-6.03,3.03-9.93.97l-6.95,2.02c-26.64-2.41-53.64-3.46-80.14-.13-3.62-1.83-6.19-2.12-10.38-1.96l-1.98-2.85c-.82-4.31-1.27-8.7-2-13l.97-1.99c100.58.66,201.18,1.32,301.8,1.99l1.23,2.01Z"/>
      <path class="cls-39" d="M396.46,233.88c1.79.24,2.44,1.75,1.94,4.54,12.01-1.56,24.69-1.33,37.07-.29l4.57,1.87c4.66-2.2,8.73-2.04,12.22.49,7.45-1.38,17.06-.81,25.41.95,2.18-3.89,6.38-3.79,10.24-2.92,1.92-5.02,5.97-4.86,7.1.22,2.17-.61,4.52-.54,7.07.21,1.94-4,5.05-5.59,7.87-1.36,4.97-4.8,12.7.08,16.48,4.3,3.15,8.03,6.32,15.57,9,24-2.66.76-6.18-.93-8.38-.71-1.73.18-3.36,2.19-6.07,1.77-1.01-.16-.71-4.55-2.51-5.6-1.64-.96-10.22,5.16-13.56-1.45-1.16,7.57-9.4,9.31-12.99,3.01-2.33,6.14-8.57,1.51-12.91,1.98-1.86.2-3.59,2.06-5.09,1.99-2.07-.11-7.8-1.68-10.07-2.02-1.54-.23-3.9,1.12-4.48.62-.87-.76-.59-2.71-1.18-3.33-1.02-1.07-15.06,1.37-15.65,1.92-.38.36.64,3.63-2.78,3.6-1.17-.01-4.22-1.84-6.26-2.34-2.28-.55-4.68,0-6.37-.41-1.17-.28-1.18-2.74-2.25-3.01-1.2-.3-2.85,1.68-4.11,1.8-1.7.16-3.14-1.83-4.85-1.78-1.39.04-2.74,1.94-5.02,2.08-2.05.13-.92-2.45-2.96-2.16-3.07.45-2.9,3.36-3.71,3.83-3.57,2.06-6.82-3.48-10.8-3.78l3-28Z"/>
      <path class="cls-62" d="M241.46,482.88c1.32-1.13,3.16-1.11,5.54.04,36.44,0,73.98-.05,110.49-.51,3.14-1.6,6.36-3.23,8.23.87,2.71-1.01,5.45-1.78,8.08-.09,1.9-2.27,4.91-2.34,9.01-.21,3.49-2.19,7.24-2.04,11.24.44,5.35-1.7,13.73-2.77,17.4,1.45-3.13,4.63-8.32,14.77-10,20l-1.25,1.98c-50.85-.66-101.7-1.31-152.55-1.97l-1.2-2.01c-1.81-6.58-3.42-13.36-5-20Z"/>
      <path class="cls-32" d="M231.46,431.88c6.84,1.95,14.41-.05,21.45-.04,8.38.01,7.68,1.48,17.06-.96.74-.19.29,1.93.9,1.92,15.04-.06,30.25.35,45.26.77,2.66.08,8.7-1.51,13.78-1.65,15.21-.42,30.28.04,45.01-.68,3.7-.18,12.4,2.82,17.06,2.75,3.42-.05,7.12-2.9,11.13-3.03,4.49-.15,9.64.47,14.87.39,1.33-.02,6.32,2.28,9.01,2.07,1.91-.15,4.35-2.33,6.17-2.36,1.97-.03,2.61,2.62,4.83,2.86,2.67.29,4.64-2.33,6.92-2.57,3.3-.34,8.04,2.13,9.06,2.13,3.39-.01,12.12-2.75,15.91-2.62.67.02.14,2.03,2.03,2.14,2.68.15,4.84-1.53,7.02-1.63,3.05-.14,6.97,1.51,11.04,1.49,3.36-.02,5.53-1.94,6.96-2.02.28-.02,2.24,3.84,4.05,3.84.82,0,1.78-2.63,3.9-2.72,1.14-.05,2.62.97,4.08.93,7.11-.18,14.15.58,21,.58,3.02,0,7.61-3.58,11.5-.58-1.14,4.09-2,7.18-4,11l-304-2c-.56-3.3-1.48-6.64-2-10Z"/>
      <path class="cls-22" d="M238.46,466.88l1.88-1.93c9.51,1.07,19.07,1.05,28.69-.07,5.99,1.85,11.64,1.86,16.94,0,2.59,1.42,5.15,1.14,7.69-.85,3.68,1.2,7.17,1.44,10.46.74,6.95,1.45,14.01,2.17,21.16,2.18,2.26-2.99,5.87-4.7,8.01-.76,25.03-1.49,50.25-1.4,75.66.28,2.04-1.44,3.87-2.24,5.99-.34,3.4-1.88,9.37.01,12.52,1.76-5.32,4.3-12.19,11.36-16,17-3.26.64-6.45-1.09-9.49-1.08-2.88,0-5.69,1.67-8.02,1.61s-4.68-2.26-6.17-2.34c-1.39-.08-2.9,2.11-5.82,1.94-2.14-.13-3.89-2.21-4.87-2.03-1.16.22-2.14,2.62-3.12,2.65-.36.01-1.62-1.37-3.42-1.48s-6.7,2.16-7.1,1.74c-.29-.31.29-2.7-.01-3-1.18-1.13-4.37,1.3-5.51,1.47-10.45,1.5-29.42.06-40.81.11-13.79.06-29.91.39-44.19.39-7.7,0-20.42,1.21-26.89-.07-1.75-.34-3.1-1.01-4.58-1.9-1.26-5.3-1.88-10.72-3-16Z"/>
      <path class="cls-14" d="M397.46,173.88c3.01,8.71-.6,20.87,1,29.5.99,5.33,8.41.94,11.35,1.46.81.14.25,2.22,2.12,2.15,2.35-.09,4.76-2.38,7.51-2.72,2.59-.33,4.41.88,6.44.62s6.15-3.15,9.02-3.03l3.55,6.01.52-6c3.55,3.19,6.16,1.12,9.03,1.46,2.46.29,6.46,2.29,7.19,2.48,1.98.51,4.27.42,6.26,1.07l-.98-4.99c3.95,4.41,6.54.06,9.49.06.44,0,7.88,2.21,8.46,2.48,2.47,1.17,2.38,4.86,4.53,4.47,1.29-.23-1.27-2.95-.49-4,.46-.62,5.32.15,4.01-4.01,4.52,5.24,10.06,1.25,13.31,1.93,1.07.22,1.05,2.68,2.25,3.06,1.87.59,4.78-3.05,7.43-1.98,3.46,6.54,6.95,13.27,10,20,.03,4.11-7.7,8.68-9.28,2.96-4.64.9-8.69.63-12.16-.8-3.77,2.1-6.3,3.34-10.33.84-3.97.92-8,1.54-12.08,1.86-6.5-3.55-7.79-3.62-13.8.16-18.49-1.35-37.58-2.25-56.37-1.71-3.6,1.8-7.97,2.74-7.98-2.3-1.05-1.76-.55-4.05,0-6,.1-14.93.42-30.08,0-45Z"/>
      <path class="cls-57" d="M250.46,515.88c.47-2.11,2.64-2.44,6.53-1l22.4-2.64c11.24,1.79,22.74,2.03,34.5.73,6.69-.86,12.71-.03,18.06,2.48,5.41-3.57,10.52-3.07,16.2-.58l12.72-1.98c12.87.58,25.55.81,38.06.68l.53,2.32c-.82,4.68-1.45,9.28-2,14-.1,4.68-2.61,5.66-7.52,2.97l-8.94,1.47c-41.85.21-83.19.01-124.02-.6l-1.52-1.84c-1.79-5.26-3.38-10.68-5-16Z"/>
      <path class="cls-63" d="M393.46,125.88c-.14-3.94,3.39-4.29,6.36-2.3,2.57-4.41,5.69-3.36,5.38,1.9,3.44-1.67,6.61-1.66,9.51.03.78-4.75,6.37-4.13,10.09-3.04l8.54,4.92c2.25-2.3,4.21-4.1,7.66-3.12,1.78-7.11,6.41-6.2,9.51-.5l1.95-.9c9.7,11.1,17.19,19.94,26,32,.58,4.34-3.73,0-5.98,1.45-1.1.7-1.89,3.72-3.52,4.53-2.39-2.32-.88-6.44-5.06-7.01s-4.86,3.11-6.92,3.06c-1.37-.03-5.04-3.93-7.32-.73-.68.96.76,4.14-3.67,2.77-.9-.28-.49-2.31-1.02-3.03-1.11-1.5-6.16-1.44-7.9-.88s-1.15,4.06-4.62,2.84c3.23-2.18.39-5.26-.99-3.99-.23.21-1.21,4.93-2.03,5.99-2.56.96-2.58-3.06-3.51-3.02-1.35.06-2.25,1.6-3.22,1.79-2.4.45-4.58-.08-6.73.27-1.52.25-2.99,2.17-3.96,1.96-1.06-.24-3.64-6.14-6.3-6.85-3.29-.88-5.62,3.82-9.27.87-.53-7.65-1.01-16.49-2-24q1.75-2.7,0,0c-.16-1.2-.73-3.14-1-5Z"/>
      <path class="cls-18" d="M395.46,548.88c-10.62.93-21.49,1.39-32.6,1.37-5.11-2.7-5.72-2.55-10.71-.32l-32.59-1.57c-5,2.05-8.41,2.8-13.18-.4-3.44,1.79-6.3,3.14-9.79.32-2.27,2.3-3.94,2.86-6.57.8-4.93,2.28-8.15,1.93-9.66-1.08-5.83,1.66-11.8,1.95-17.91.86-2.19-5.69-5-11.13-7-17,4.32-.7,9.33.72,13.33.62,37.15-.97,74.51,0,112.17-.18,3.07-.02,6.43-1.49,9.04-1.47,4.12.03,5.73,4.86,7.46-.97-.73,6.23-1.53,12.76-2,19Z"/>
      <path class="cls-14" d="M332.46,234.88c-4.04.34-4.83-.99-5.02-4.66-.69,4.57-3.6,5.11-8.73,1.62-5.29,5.61-8.84,6.07-10.65,1.36-4.11,5.74-8.29,1.42-7.37-4.46l-3.64,1.98c-1.66,4.16-4.47,3.06-6.9.16-5.54,1.94-10.27,1.76-14.17-.55-1.26,2.67-3.17,3.87-5.55,2.05-5.42,1.27-22.56,3.14-19.96-5.51,1.28-.44,2.71-.57,4-1,.5-.25.93-.41,1.09-.27.34.29.75,1.46.92,1.99.05.16-1.68-2.47-.01-2.72,24.49-7.81,50.77-13.99,76.51-15.99,4.72-.37,16.86-1.4,20.89-.93,15.53,1.81,15.48,23.16,3.89,25.71-7.67,1.69-17.64.41-25.29,1.21Z"/>
      <path class="cls-12" d="M144.46,316.88c-5.8-.1-9.48-2.03-14.99,1l-1.54-4.01c-4.73,3.82-9.21-.77-14.9.01-.43.06-2.91,8.6-5.57.99,14.35-13.14,47.35-42.05,64.1-49.4,13.48-5.91,24,7.56,16.34,19.34-14.34,10.89-29.48,20.66-43.44,32.06Z"/>
      <path class="cls-21" d="M397.46,224.88c3.95,3.62,5.53.55,7.68.33,13.16-1.33,29.31,1.02,42.82.67,4.69-.12,11.75,1.25,14,1,2.1-.23,2.69-2.39,4.21-2.82,4.69-1.32,7.72,2.51,9.73,2.7,3.35.32,9.23-2.05,12.02-1.87,1.58.1,2.9,1.58,4.04,1.61,1.5.03,4.25-2.4,6.19-2.42,1.35,0,2.19,1.51,3.59,1.52,2.6.03,5.97-1.68,9.11-.6,1.66.57,1.21,2.86,2.12,2.88,1.89.03,4.12-3.74,6.49-4.02,2.77,6.11,4.65,12.01,7,18-3.66-.13-11.02-6.12-13.57-4.09-2.36,1.88-.86,6.17-5.94-.92-2.27-.24-2.28,3.26-4.16,3.89-2.29.78-5.54-1.26-6.19-.79-.45.32-.8,2.83-1.64,2.89-1.32.09-1.9-4.55-2.44-5.4-2.02-3.17-2.07,2.23-3.01,3.01-1.19.99-9.05-3.33-10.63,3.44-8.9-2.15-17.88-3.21-26.98-1.13-5.74-5.18-7.84-.7-11.96-.8-2.07-.05-3.08-1.63-4.15-1.8-3.88-.59-23.6-1.07-28.03-.97-2.39.06-4.07,1.56-6.69,1.58-6.03.04-4.46-2.47-4.61-6.92-.07-1.99-.02-4.01,0-6,.26-1.12.6-2.12,1-3Z"/>
      <path class="cls-47" d="M398.46,614.88c-.01,2.52-.81,3.68-3.22,4.57-9.84-1.67-19.5-1.63-28.98.11-22.89-1.63-45.78-2.06-68.66-1.28l-2.15-1.39c-3.69-5.83-6.67-11.99-10-18-.12-3,5.02-3.03,7.55-3.01,29.61.8,60.11,1.57,89.27,1.36,4.74-.03,8.92-.29,13.17-2.35.65,6.06,1.95,13.72,3,20Z"/>
      <path class="cls-30" d="M401.46,629.88c1.19,5.91,2.66,12.09,4,18l-.15,2.71c-1.25,1.82-38.95,4.05-43.66-.15-5.52,4.5-15.1,2.5-21.25-.06l-15.91,2.12-3.02-1.62c-6.12-7.18-11.39-13.11-17-21l1.06-2.2c20.99.44,42.13.74,63.25-.35l3.04,1.49c5.18-2.7,9.17-2.4,14.31.05,5.07-1.36,10.18-1.03,15.35,1.01Z"/>
      <path class="cls-8" d="M394.46,582.88c.2,3.47.62,8.42,1,12,.12,2.34-1.31,2.75-3.16,3.34-4.88,1.56-15.73.88-21.23.77-25.57-.49-52.44.38-77.2-1.11-2.2-.13-6.11.5-8.41.99-2.93-5.28-5.28-9.53-8-15l1.01-2.21c10.29-.06,20.63-.69,31.04-1.89l24.73,2.24c2.6-2.46,6.19-2.81,10.76-1.05,10.21-1.3,20.71-1.3,31.5.02l10.02-1.82c2.36.09,7.55,1.24,7.94,3.72Z"/>
      <path class="cls-46" d="M250.46,226.88c2.53,7.44,12.2,2.7,18,5v-3.01s4.99,3.01,4.99,3.01c.46-7.79,4.48-1.46,7.53-1.39,1.93.04,7.18-2.13,9.76-1.47,1.39.35,2.82,2.87,3.22,2.85.64-.03,1.11-2.18,1.83-2.64s5.83-3.34,6.18-3.32c2.87.16-1.27,7.27,2.01,7.97,3.44.74,2.03-4.94,1.47-6.48,8.78-3.05,1.52,7.57,6.54,7.53,2.88-.02,4.54-9.85,11.99-2.06,1.8-.81,1.39-5.9,2.99-5.96,4.4-.16.8,8.33,5.5,7.98-27.35,2.83-53.91,9.8-79.77,18.73-8.98,3.1-19.36,10.71-28.58,5.12-6.97-4.22-7.45-15.71-1.01-20.7,4.91-3.81,20.79-8.87,27.36-11.14Z"/>
      <path class="cls-2" d="M401.46,504.88c-1.26,3.93-1.34,7.2-2,11-4.92-2.08-9.05.01-13.45.04-8.04.05-17.42-1.25-25.05-1.04-3.58.1-9.72,2.18-12.95,1.97-2.35-.15-4.06-2.11-8.04-2.05-4.25.07-7.41,3.09-8.99,3.12-.53,0-.33-1.67-1.24-1.98-6.7-2.27-31.72-.04-39.82-.11-6.06-.05-5.57-1.14-8.9-1.51-5.68-.63-17.94,2.31-24.06,2.55-2.03.08-4.29-1.37-6.5-.99-1.32-4.31-2.8-8.66-4-13l155,2Z"/>
      <path class="cls-20" d="M405.46,647.88c1.8,7.92,3.95,16.12,6,24-3.6,1.95-9.1,4.14-12.48.41-7.21,1.65-13.99,1.34-20.34-.95-9.85,1.79-19.42,1.99-28.69.59-3.33,1.39-6.16,1.38-8.48-.05-8.25-7.72-12.72-12.45-20-21l19.56-2.59c1.85,2.45,12.94,2.97,15.87,2.6,2-.25,3.69-2.73,5.04-2.65.77.05,2.75,1.7,4.69,1.99,9.19,1.35,25.07.32,34.5-.77,1.65-.19,3.2-.05,4.34-1.58Z"/>
      <path class="cls-11" d="M265.46,557.88c.79-2.79,3.55-3.5,8.3-2.14,5.23,2.38,9.76,2.34,13.58-.12,7.63,1.49,12.71,1.24,20.29-.85,7.74,2.23,14.67,2.81,22.9,2.2,2.03-3.19,5.37-2.38,7.54.17,4.18-2.6,8.83-2.66,13.94-.17l5.73-2.15c9.14,2.34,15.84,2.03,25.01.1l1.95,1.23c3.94-2.44,9.48-1.13,9.77,3.74-.17,3.63,0,7.36,0,11-.06,2.72-4.55,2.93-6.91,2.96-16.72.23-34.21.21-50.6-1.47-4.34,2.39-7.46,2.51-9.34.35-17.63,2.49-36.42,1.22-54.28-.5l-1.86-1.34c-1.97-4.36-4.16-8.53-6-13Z"/>
      <path class="cls-38" d="M388.46,99.88c4.79,2.6,3.13-1.27,3.51-4.01,2.19-.1,6.53,2.7,7.99,2.66,3.77-.1,12.08-1.14,16.35-.04,2.24.58,2.21,2.29,2.86,2.41.33.06,6.29.1,6.61.03,1.34-.28,1.51-3.83,1.67-5.04,9.43,9.25,16.38,17.13,25,27-.06,10.8-5.05-1.6-6.48-1.8-3.37-.17-2.97,5.4-3.53,5.81-.49.36-2.77-1.23-4.28-.86-1.43.35-3.59,3.76-5.22,3.62-.57-.05-8.25-5.41-10-5.75-1.99-.39-4.41.17-6.48,0l1.99,3.98c-2.87,1.18-5.91-1.63-7.67-1.78-2.69-.23-9.12,5.24-7.34-4.2l-3.49,4.98c-2.48-3.19-3.2-3.13-6.5-.98-1.25-8.66-3.15-17.44-5-26Z"/>
      <path class="cls-59" d="M271.46,570.88c1.24-.8,2.6-.82,3.98-.58,10.99,1.85,30.48,1.73,42.51,1.68,3.23-.01,6.4-1.62,10.07-1.18,1.96.24,1.3,2.16,1.94,2.13,1.54-.06,3.71-2.46,6.99-2.54,1.48-.03,3,.93,4.33.94,15.72.13,29.82.51,45.64.54,2.23,0,5.2-.82,7.53-.98,0,3.96-.23,8.06,0,12-2.36.1-6.75-1.75-8.31-1.74-2.14.02-5.21,1.7-8.18,1.81-8.63.33-16.64-1.24-25-1.16-2.59.03-5.11,1.12-8,1.18-2.37.04-4.78-1.3-7.04-1.2-1.88.08-1.35,2.08-2.09,2.16-5.43.63-18.23-2.09-24.88-2.15-7.56-.07-15.22,1.4-22.29,1.9-3.58.25-7.7-.62-11.21.2-2.28-4.59-3.92-8.4-6-13Z"/>
      <path class="cls-31" d="M398.46,614.88c.77,4.63,2.05,10.26,3,15-2.31,3.29-4.98-.04-8.5-.1-2.54-.04-5,1.2-6.96,1.07-2.45-.16-4.06-2.35-8.04-2.04-2.44.19-4.41,2.03-6,2.02s-2.93-1.58-4.27-1.72c-8.49-.86-19.69,1.77-28.71,1.52-8.38-.23-14.46-1.78-22.06-.79-4.27.56-8.36-.87-12.46.04-3.05-4.3-6.17-8.54-9-13,1.82-.78,3.25-.8,5.18-.75,22.16.52,43.44-1.26,65.54,1.46,8.78-2.48,19.43-1.22,28.66,0l3.62-2.71Z"/>
      <path class="cls-3" d="M235.46,454.88c2.63,1.71,5.66.64,8.46,1.03,1.49.21,2.71,2.01,3.84,1.8,13.6-2.53,36.22-2,52.24-1.89,9.52.07,19.1,1.44,27.93,1.99,1.94.12,4.51-2.06,7.07-2.01,2,.04,3.23,1.76,4.54,1.64,1.9-.18,3.93-2.59,5.42-2.56,1.29.03,2.27,1.64,3.96,1.86,3.15.41,8.85-2.29,10.89-1.9.69.13.55,1.82,1.33,2.02,3.27.82,6.46-1.24,8.78-.98,1.49.17,2.55,1.9,3.87,1.82,1.59-.1,3.75-2.55,5.34-2.64,1.31-.07,2.33,1.51,3.66,1.57,16.95.84,33.26-1.11,51.62.76.96.1,7.47-3.03,7.06,1.47-2.43,1.11-4.74,2.58-7,4l-6.03,1.97c-63.31-.33-126.56-.65-189.74-.96l-1.23-2.01c-.4-2-1.54-4.59-2-7Z"/>
      <path class="cls-40" d="M237.46,461.88l197,1c-2,1.26-5.16,3.51-7,5-3.27,1.98-8.19-1.16-10.35-.74-.99.19-1.64,1.73-3.14,1.78-.62.02-.48-2.08-1.02-2.09-1.43-.04-2.56,1.54-3.95,1.64-10.36.78-23.06-1.68-34.04-1.59-10.9.09-18.67,1.24-28.97.18-5.11-.53-9.28,2.88-13.77.75-.93-.44-.93-3.51-3.79-1.41-.6.44-.58,2.25-1.67,2.53-.61.16-10.71-.25-12.6-.38-3.01-.21-8.32-2.29-12.11-1.66-.93.15-.27,2.31-1.08,2-1.87-.72-3.98-3.11-7.12-2.98-2.47.11-2.02,3.04-2.95,3.04-1.43,0-3.16-1.97-5.02-2.08-2.28-.14-3.53,1.56-5.06,1.72-3.02.33-8.65-1.64-11.87-1.72-6.46-.16-13.11,1.38-19.98.99-3.28-.19-7.05-.98-10.52-.99-.36-1.69-.66-3.31-1-5Z"/>
      <path class="cls-37" d="M411.46,671.88c1.04,3.98,1.91,8.04,3,12-2.53-1.94-7.46-1.57-10.43-.93-2.32.5-4.79,2.78-5.08,2.78-.59,0-1.85-2.5-4.04-2.87-3.4-.58-5.95,1.71-7.96,1.64s-3.11-2.65-4.98-2.65c-.58,0-.36,1.84-1.16,2.04-5.94,1.45-10.04-.43-14.79-1.06-3.56-.47-8.07.06-11.55,1.05-5.12-4.11-8.44-7.73-13-12,2.66.08,5.42-1.67,7.58-1.9,2.98-.32,5.58,1.38,6.9,1.4,5.02.09,19.8-2.35,23.01-2.01,1.51.16,3.67,1.88,6.53,2.07,4,.27,10.58-1.26,13.47-1.15,1.83.07,2.95,2.26,4.18,2.43.79.11,5.77-2.97,8.32-.85Z"/>
      <path class="cls-42" d="M263.46,552.88c1.44-3.33,8.28-4.88,11.13-2.25,11.24,1.46,22.02.74,32.88-.8,18.4,1.3,36.94,1.26,55.32.32,7.6,1.29,13.59.73,20.9-.83l1.21,1.12c3.37-1.97,9.5-1.83,10.56,2.44-.16,2.52-.92,5.34-1,7-2.03-1.35-3.88-3.07-6.55-3.1-1.87-.02-1.48,2-1.95,2.12-3.07.77-1.89-2.09-3.98-2.15-2.77-.08-9.08,2.39-13.02,2.12-3.46-.23-7.84-2.3-11.02-2.09-2.38.16-3.64,2.11-5.94,2.16-2.77.07-5.12-2.14-7.95-2.02-2.53.11-5.69,2.74-6.11,2.72-.94-.03-2.08-3.27-4.95-2.83-.5.08-.41,1.9-1.2,2.07s-15.07.15-15.86.05c-2.55-.32-3.78-1.97-6.93-2.17-4.82-.31-9.13,2.41-13.06,2.19-3.21-.18-4.62-2.5-9.77-1.04-.96.27-.36,2.04-2.14,2.03-5.22,0-12.19-4.25-18.57-2.08-.69-1.67-1.33-3.32-2-5Z"/>
      <path class="cls-42" d="M262.46,548.88c3.69-3.03,9.84-.84,14.48-1.52,1.14-.17,4.33-2.6,5.51-1.47.31.3-.28,2.68.01,3,.36.39,6.22-1.8,7.72-1.75,1.41.05,2.26,1.49,2.79,1.51.9.04,1.97-2.46,3.12-2.67,1.08-.2,2.66,2.03,4.86,2.03,2.32,0,3.49-2.29,5.74-1.98,1.58.22,3.6,2.09,5.68,2.37,1.41.19,5.56-2,7.15-2.01,10.04-.05,22.41,1.67,32.48,1.57,2.28-.02,3.44-1.98,4.94-2.03,1.81-.06,5.6,2.8,8.21,2.72,7.09-.2,14.16-1.15,21.9-.85,3,.12,5.43-2.35,8.4,1.09-.1,1.32.09,2.68,0,4-2.16,0-5.54-2.49-7.4-1.95s-1.35,6.89-5.12-.07l-8.99,2.56c-10.4-2.74-22.28-.14-32.89-.55-9.95-.38-22.6.1-32.14-.98-4.08-.46-12.43,1.77-17.45,1.59-5.75-.21-11.55-.36-17.35-.94-.89-.09-1.77-1.59-3-1.49-1.29.11-5.28,1.99-7.67,1.82-.61-1.54-.63-3.03-1-4Z"/>
      <path class="cls-10" d="M224.46,367.88c-.15-2.11-.83-5.02-1-8,1.56,2.49,5.08,6.35,1,8Z"/>
      <path class="cls-39" d="M397.46,224.88c-.05,1.1.31,2.52-1,3,.02-2.82-.81-7.02,1-9-.01,1.99.09,4.01,0,6Z"/>
      <path class="cls-46" d="M256.46,224.88l1,2.99c-1.66.36-2.37-.54-3-1.99.46-.15,1.11-.71,2-1Z"/>
      <path class="cls-10" d="M545.46,414.88c-3.74-1.79-6.76,3.18-10.53,2.93-1.54-.1-2.62-1.89-4.91-1.98s-7.64,2.3-9.01,1.94c-1.26-.33-1.09-2.66-2.18-2.85-2.77-.48-7.65,1.82-9.95,1.92-2.48.11-13.93-2.49-14.42-1.95-.3.34.3,2.69,0,3-1.33,1.38-5.19-2.74-6.47-2.65-.77.06-2.02,1.66-4.01,1.75-2.29.11-4.49-1.5-6.75-.93-1.43.36-2.77,2.49-4.26,2.49-1.03,0-2.52-1.53-4.09-1.67-4.27-.39-11.44.82-14.74.81-1.51,0-4.99-1.7-8.18-1.89-5.1-.29-13.7,2.61-17.88,1.86-1.34-.24-2.08-2.69-4.08-2.76-2.23-.07-4.92,3.14-8.06,3.07-.49-.01-8.43-2.18-9.52-2.53-1.73-.56-2.98-1.54-2.95-3.55l.44-2.75c12.49-9.87,14.27-28.76,5.18-41.52l.38-2.73c3.45-2.07,6.19-3.37,10.24-1.75,1.79.72,2.5,2.75,4.26,2.77.62,0,.38-1.58,1.25-1.96,6.41-2.83,4.34.62,7.68,2.07,2.69,1.16,4.2-.34,6.04-.11,3.93.48,2.66,4.76,7.04-2.01,3.17,5.27,5.34,1.09,7.01,1.22.93.07,1.79,2.27,3.1,2.54,3.08.64,10.49-2.77,14.87,1.23,2.48-6.86,3.17-2.64,6.87-3.3.94-.17,1.9-1.8,3.02-1.63,1.02.16,1.98,2.43,3.34,2.8,2.03.55,3.67-1.66,5.74-1.76,2.98-.14,7.42,3.25,9.61.42,1.22-1.57.26-4.13,3.44-4.1.93,0,8.13,2.35,8.37,2.72.57.89-.8,5.14,2.66,4.54,2.12-.37,6.68-6.13,13.01-5.81,1.81.09,1.27,1.86,2.16,2.08,1.14.28,2.6-.21,3.71.09,1.49.4,2.88,1.84,3.92,1.77,3.05-.2,3.01-3.94,5.07-3.85,6.23.26.27,4.63,5.59,5.02-.88-2.67,1.88-2.76,2.08-4.44.59-4.8,0-12.39-.08-17.56,1.66,1.04,1,3.8,1.02,5.49.22,21.29-1.28,42.56-5.02,63.51Z"/>
      <path class="cls-16" d="M463.46,521.88c6.44,1.07,13.36.98,19.42-1.59,6.2,2.22,13.09,2.37,20.67.45,3.52,2.41,7.68,2.35,12.49-.18,3.62-.57,7.29.4,11.01,2.92,2.88-2.01,5.3-2.38,7.26-1.1,3.14-2.22,11.98-2.43,10.15,2.49-10.13,3.7-19.46,6.89-30,10-5.67,1.7-10.71,1.85-15.11.45-3.56,1.61-7.23,1.56-11.03-.17-4.22,2.94-7.04,2.91-8.45-.11-5.82,2.61-11.97,2.12-17.98.36-10.94,1.15-21.76,1.36-32.45.63l.02-3.16c.67-1.37.39-2.08,1.92-3.55,4.89-4.69,24.62-5.78,32.08-7.45Z"/>
      <path class="cls-22" d="M657.46,461.88c-11.46,9.68-20.49,15.92-33,24-13.77-.99-27.49-.65-41.16,1.01-3.22-.33-5.71-2.6-2.84-5.01,11.72-6.14,26.15-13.69,37-21,9.93-1.36,21.29-2.37,31.58-2.6,1.66-.04,7.53,2.04,8.42,3.6Z"/>
      <path class="cls-48" d="M508.46,509.88c5.14,1.5,10.37.9,15.7-1.8,2.52,3.73,6.43,4.21,11.74,1.44,7.77-.11,15.49.55,23.16,1.97,3.61-2.09,5.9-1.51,9.54-.34,3.31-1.17,10.15-2.92,5.86,1.72-10.65,4.75-19.09,8.01-30,12-.42-1.9-5.37-2.08-6.45-1.96-1.54.18-2.44,1.66-3.25,1.79-1.18.19-2.05-1.44-2.79-1.47-.83-.04-2.86,2.26-5.01,2.23-2.28-.03-5.67-3.23-7.79-3.31-3.81-.14-9.44,3.53-13.03,2.73-.8-.18-.31-2.01-2.14-2.13-4.57-.28-12.59,1.94-16.07,1.66-1.84-.15-3.49-2.18-4.97-2.18-1.03,0-2.5,1.46-4.04,1.59-4.26.36-13.03,2.02-15.45-1.95,15.1-3.37,30.11-7.82,45-12Z"/>
      <path class="cls-18" d="M429.46,532.88c.7,2.4,2.19,1.62,3.86,1.73,9.43.59,19.29-1.19,28.7-1.18,1.46,0,4.82,1.49,7.96,1.48,4.29-.01,7.86-.61,11.48-3.02,1.63,7.73,2.6,2.52,3.76,2.06,5.53-2.17,6.12.72,8.73.88,1.61.1,3.35-1.49,5.03-1.52,2.21-.03,4.36,2.12,6.14,2.29,2.63.25,6.75-2.81,9.36-.72-9.93,2.92-19.74,6.1-29.99,8.51-11,2.59-34.26,8.89-44.52,8.58s-14.91-10.06-10.5-19.09Z"/>
      <path class="cls-34" d="M580.46,481.88c.65,3.94,3.13,3.09,6.31,2.59,8.89-1.38,23.54-1.41,33.21-.59,1.86.16,3.72-.48,4.49,2-10.3,6.66-18.05,11.32-29,17-2.44-.36-4.22.36-7.02,1.52-8.3-1.57-16.88-1.76-25.76-.58-5.62.34-8.69-.97-9.22-3.93.52-.75.79-3.27,1.77-4.72,2.96-4.41,19.42-10.23,25.23-13.28Z"/>
      <path class="cls-26" d="M679.46,440.88c-7.59,7.97-13.41,13.75-22,21-2.61,1.32-7.38-1.73-8.48-1.63-8.6.8-16.78,1.53-26.02,1.71-1.88.04-3.71-.65-5.49-1.09,9.18-6.19,20.65-15.59,29-23,1.05,1.71,9.15,2.25,9.82,1.72.58-.46.79-2.48,1.71-2.73.33-.09,4.3,2.05,6.36,2.41,1.44.25,5.87.32,7.44.24,3.09-.16,5.43-3.72,7.68,1.36Z"/>
      <path class="cls-15" d="M595.46,502.88c-7.44,3.86-13.39,6.61-21,10,.2-3.75-.69-1.1-2.11-.63-6.68,2.21-5.04-.15-8.35-.31-1.75-.09-3.57,1.66-5.01,1.52-6.83-.64-14.63-2.5-22.04-2.05-3.84.23-7.38,3.63-11.51.94-.91-.59-.66-2.54-1.5-2.51-1.24.04-2.57,1.65-4.05,2.03-4.11,1.05-7.37,1.18-11.43.66v-2.64c6.11-1.72,16.31-6.24,21.58-6.91,8.57-1.09,16.93,6.25,23.42-3.09,1.56,1.29,4.75,1.44,6.8,1.7,8.37,1.03,12.49-.74,19.69-.79,2.98-.02,6.25,1.7,9.04,1.62,2.27-.06,5.11-3.21,6.47.47Z"/>
      <path class="cls-45" d="M409.46,364.88c11.55,13.52,9.32,37.1-6,47-9.87,6.38-20.45,6.47-31,2-19.04-8.07-23.4-35.12-9-50,11.81-12.2,34.75-12.16,46,1Z"/>
      <path class="cls-60" d="M386.96,332.9c1.77.02,1.7,3.98,0,3.96s-1.7-3.98,0-3.96Z"/>
      <path class="cls-38" d="M394.46,130.88c-1.61-3.75,4-4.54,3.98-2.5,0,.55-3.84,2.69-3.98,2.5Z"/>
      <rect class="cls-36" x="130.47" y="310.88" width="2.99" height="1.99"/>
      <path class="cls-28" d="M393.18,384.16c5.89,5.99-3.1,15.76-9.18,8.68-5.21-6.07,4.1-13.85,9.18-8.68Z"/>
    </g>
  </g>
</svg>