<?xml version="1.0" encoding="UTF-8"?>
<svg xmlns="http://www.w3.org/2000/svg" viewBox="0 0 374.68 374.85">
  <defs>
    <style>
      .cls-1 {
        fill: #036ed2;
      }

      .cls-2 {
        fill: #eff5fb;
      }

      .cls-3 {
        fill: #fbfcfd;
      }

      .cls-4 {
        fill: #d6e8f7;
      }

      .cls-5 {
        fill: #0662ce;
      }

      .cls-6 {
        fill: #f2f7fc;
      }

      .cls-7 {
        fill: #e7f1fa;
      }

      .cls-8 {
        fill: #f8fafd;
      }

      .cls-9 {
        fill: #eef5fb;
      }

      .cls-10 {
        fill: #0a61ce;
      }

      .cls-11 {
        fill: #0e6ed2;
      }

      .cls-12 {
        fill: #f8fbfd;
      }

      .cls-13 {
        fill: #cfe4f6;
      }

      .cls-14 {
        fill: #d7e8f7;
      }

      .cls-15 {
        fill: #ecf4fb;
      }

      .cls-16 {
        fill: #0c70d3;
      }

      .cls-17 {
        fill: #fdfdfe;
      }

      .cls-18 {
        fill: #e8f1fa;
      }

      .cls-19 {
        fill: #126bd1;
      }

      .cls-20 {
        fill: #daeaf8;
      }

      .cls-21 {
        fill: #f3f8fc;
      }

      .cls-22 {
        fill: #e5f0fa;
      }

      .cls-23 {
        fill: #fefefe;
      }

      .cls-24 {
        fill: #fcfdfe;
      }

      .cls-25 {
        fill: #fdfefe;
      }

      .cls-26 {
        fill: #0071d2;
      }
    </style>
  </defs>
  <g>
    <g>
      <path class="cls-26" d="M.09,192.53c-1.83-55.93,23.1-111.82,65.91-147.86C119.51-1.75,199.65-13.31,264.05,16.21c136.3,61.16,149.65,249.92,23.35,329.71C164.96,422.96,4.28,337.37.1,192.73v-.2Z"/>
      <path class="cls-23" d="M220.74,187.02c-.26,1.75-.47,3.14-.67,4.53-.35,2.55-1.42,4.49-3.71,6-2.12,1.4-3.88,3.38-5.71,5.2-9.09,9.07-16.4,19.42-22.04,30.95-.33.67-.6,1.37-.9,2.05-.05.11-.16.19-.29.33-.5-.38-.64-.96-.88-1.45-11.24-23.62-28.91-41.03-51.84-53.23-13.9-7.39-28.76-11.93-44.32-14.34-10.67-1.65-21.41-2.5-32.18-2.93-3.03-.12-6.08-.09-9.11-.14-.41,0-.83-.06-1.24-.15-.57-.13-.94-.29-.59-1.09,5.46-12.12,10.99-24.22,18.26-35.39,5.19-7.99,10.94-15.6,16.8-23.11.78-1,1.74-1.46,3.03-1.38,1.35.08,2.7.02,4.2.02-.77-.99-1.7-1.52-2.6-2.08-.84-.52-.89-1.08-.26-1.82,3.39-3.95,6.76-7.92,10.12-11.88.69-.81,1.57-1,2.58-.97,13.3.35,26.08,3.04,38.26,8.45,6.22,2.77,12.03,6.24,17.5,10.29,1.26.93,1.85,1.99,1.77,3.58-.11,2.19-.03,4.4-.03,6.78,1.35-.91,2.14-2.15,3.09-3.21,1.71-1.9,1.62-1.84,3.43-.09,8.29,8.02,14.26,17.62,18.98,28.03,2.04,4.5,3.8,9.14,4.03,14.18.02.33.04.66.04,1-.11,14.48.31,28.96.36,43.45.03,8.49.3,16.97.47,25.46,0,.29.04.58.1.86.33-4.89.36-9.8.44-14.7.26-16.14.52-32.28.79-48.42.06-3.41-.14-6.84.32-10.22.6-4.45,2.5-8.51,4.32-12.56,3.95-8.79,9.15-16.77,15.66-23.89.56-.61,1.11-.96,1.96-.69.39.13.82.14,1.23.16.6.04,1.24-.03,1.56-.59.35-.61-.22-1.05-.6-1.35-.84-.67-.57-1.17.05-1.78,4.96-4.88,10.57-8.88,16.56-12.37,7.01-4.1,14.45-7.16,22.31-9.19.94-.24,1.54.2,2.08.79.79.86,1.59,1.68,2.7,2.31-.26-.96-.7-1.76-1.18-2.54-.55-.88-.34-1.28.7-1.51,4.97-1.09,10.01-1.67,15.08-1.98,1.37-.08,2.74-.14,4.11-.24,1.12-.07,2.04.31,2.79,1.13,4.82,5.24,9.33,10.75,13.82,16.27.54.67.44,1.16-.2,1.68-1.22,1-2.42,2.04-3.62,3.07-.24.21-.65.39-.51.77.15.39.54.22.87.19,2.03-.16,4.07-.28,6.1-.42,1.06-.07,1.82.43,2.44,1.24,9.47,12.5,17.71,25.74,24.38,39.94,1.91,4.06,3.88,8.08,5.79,12.14.7,1.49.56,1.75-1.06,1.8-2.62.09-5.24.07-7.86.13-3.91.09-7.81.4-11.72.62-7.98.46-15.92,1.36-23.81,2.65-21.4,3.51-41.19,10.93-58.69,23.97-2.16,1.61-1.88,1.29-2.45-.99-.25-1-.42-2.01-1.04-3.32Z"/>
      <path class="cls-23" d="M52.05,238.91c-2.21.91-4.49,1.44-6.73,2.09-.49.14-1.01.21-1.23.73-.26.6-.25,1.27.06,1.81.31.54.91.23,1.37.14,4.93-1.01,9.86-2.03,14.79-3.05.41-.08.81-.19,1.23-.02-.03.55-.52.49-.83.58-5.14,1.39-10.19,3.1-15.4,4.21-1.14.24-1.72.86-1.77,2.05-.06,1.43-.8,2.68-1.24,4.21,9.43-1.7,18.59-4.26,28.29-4.85-.8.78-1.67,1.01-2.52,1.24-5.81,1.63-11.69,2.98-17.58,4.25-2.64.57-5.29,1.13-7.94,1.64-1.26.24-2.21.84-2.97,1.87-.63.86-1.39,1.62-2.21,2.55,2.65-.1,5.05-.73,7.46-1.22,12.85-2.56,25.68-5.25,38.55-7.67,9.7-1.82,19.53-2.76,29.4-3.07,16.91-.54,33.61.75,49.85,5.87,3.02.95,5.98,2.05,8.85,3.38,1.16.54,2.11.43,3.14-.3,4.15-2.96,8.05-6.19,11.52-9.93,1.04-1.12,1.13-1.13,2.22.05,3.36,3.68,7.19,6.8,11.22,9.7,1.2.87,2.33,1.02,3.71.42,10.51-4.59,21.57-6.99,32.95-8.09,7.22-.7,14.45-1.2,21.7-.92,12.42.48,24.71,2.04,36.92,4.32,8.1,1.51,16.19,3.03,24.28,4.57,5.47,1.04,10.97,1.89,16.44,2.94.59.11,1.21.09,2.13.16-1.17-1.39-2.12-2.57-3.13-3.7-.41-.46-1.04-.48-1.61-.59-11.42-2.28-22.83-4.63-34.13-7.46-1.08-.27-2.16-.59-3.35-1.15,1.5-.51,2.82-.18,4.13,0,10.61,1.43,21.03,3.84,31.51,5.93,1.52.3,1.6.2,1.14-1.32-.33-1.11-.76-2.21-.95-3.35-.13-.83-.54-1.13-1.25-1.29-5.56-1.25-10.95-3.14-16.47-4.56-.31-.08-.67-.08-.82-.46.17-.43.46-.19.72-.14,5.21,1.09,10.42,2.19,15.64,3.24.71.14,1.72.69,2-.66.25-1.18-.45-1.67-1.44-1.94-.12-.03-.24-.06-.36-.09-2.24-.65-4.47-1.3-6.7-1.98-.45-.14-1-.13-1.39-.74,2.39.4,4.66.79,6.94,1.18.45.08.9.18,1.36.21.99.07,1.81-.27,1.86-1.36.04-.93,0-1.84-1.3-2.17-13.27-3.34-26.37-7.31-39.7-10.43-7.39-1.73-14.89-2.72-22.44-3.4-1.69-.15-3.39-.19-5.05-.66,3.3-.15,6.6.07,9.89.27,16.14.98,31.68,5.04,47.19,9.24,3.57.97,7.15,1.94,10.66,3.12.47.16.91.29,1.23.75,4.69,6.83,9.68,13.42,14.59,20.09,1.26,1.71,2.52,3.42,3.87,5.05,1.25,1.5,1.57,3.09.76,4.86-.83,1.8-2.39,2.12-4.17,2.04-7.73-.35-15.47-.68-23.2-1.03-16.3-.75-32.6-1.56-48.9-2.26-12.56-.54-25.12-1.15-37.7-1.11-9.28.03-18.57.23-27.85.37-.75.01-1.49.16-2.23.24-1.19.12-2.04.7-2.46,1.82-.61,1.61-1.83,2.43-3.46,2.69-9.24,1.49-18.48,1.51-27.72.04-1.68-.27-2.94-1.07-3.61-2.69-.51-1.24-1.52-1.8-2.82-1.94-2.87-.31-5.74-.15-8.61-.2-7.91-.14-15.82-.4-23.73-.36-12.11.05-24.22.52-36.32,1.09-9.11.43-18.21.89-27.32,1.34-10.35.5-20.71.98-31.06,1.52-3.99.21-7.98.46-11.98.52-1.81.03-3.15-.56-4.01-2.18-.84-1.59-.54-3.02.5-4.41,6.44-8.59,12.48-17.46,18.68-26.22.28-.39.47-.85,1.08-.94,5.09-.71,9.94-2.39,14.89-3.66,9.92-2.54,19.85-4.99,29.98-6.52,6.6-.99,13.22-1.57,19.89-1.65.94-.01,1.88-.26,2.84.16-.9.09-1.81.22-2.71.28-15.15,1-29.88,4.19-44.43,8.41-6.75,1.96-13.5,3.91-20.34,5.53-.9.21-1.16.68-1,1.52.06.29.15.57.16.86.05,1.14.59,1.51,1.72,1.32,2.05-.35,4.11-.61,6.17-.9.19-.03.4-.13.66.19Z"/>
      <path class="cls-23" d="M195.35,240.7c-.18-.58.3-.82.56-1.15,8.43-10.47,19.11-17.95,31.26-23.45,11.85-5.37,24.29-8.56,37.19-10.05,7.25-.84,14.5-1.48,21.8-.94,9.25.69,18.33,2.21,27.14,5.2.81.28,1.48.69,1.97,1.43,3.84,5.79,8.02,11.34,12.01,17.03.23.33.44.69.82,1.29-1.2-.34-2.13-.6-3.06-.87-10.42-3.04-20.8-6.22-31.46-8.37-12.2-2.46-24.53-2.94-36.92-2.78-17.21.22-33.3,4.55-48.26,13.04-4.4,2.5-8.47,5.45-12.05,9.04-.27.27-.49.69-1.01.58Z"/>
      <path class="cls-23" d="M179.85,241.27c-.53-.45-1.09-.87-1.59-1.35-8.03-7.79-17.79-12.64-28.18-16.3-11.28-3.98-22.94-5.87-34.93-5.62-6.24.13-12.49-.03-18.72.54-9.52.87-18.87,2.62-28.06,5.18-6.85,1.91-13.66,3.95-20.49,5.93-.39.11-.76.34-1.2.2-.05-.47.23-.79.46-1.13,3.63-5.27,7.35-10.49,10.83-15.86.99-1.53,2.21-2.24,3.79-2.71,8.8-2.65,17.77-4.39,26.96-4.84,23.68-1.17,46.1,3.44,66.95,14.92,9.02,4.97,16.86,11.43,23.36,19.46.36.45.67.94,1.01,1.41-.06.06-.11.12-.17.18Z"/>
      <path class="cls-23" d="M50.01,212.26c3.96-6.46,8.44-12.44,13.68-17.83,1.54-1.58,3.13-3.12,4.59-4.76,1.09-1.22,2.43-1.64,3.97-1.77,5.62-.49,11.23-.32,16.84.15,20.58,1.7,39.86,7.77,57.97,17.53,11.02,5.94,20.68,13.65,28.69,23.33,2.61,3.15,4.75,6.62,6.45,10.34.18.39.52.78.29,1.26-.34.13-.46-.12-.59-.33-5.91-9.27-14.11-16.11-23.44-21.65-13.53-8.03-28.13-13.13-43.7-15.49-11.17-1.69-22.32-1.31-33.49-.06-.71.08-1.43.24-1.05-.95.12-.37-.24-.51-.55-.24-2.26,2.08-5.2,2.28-7.98,2.89-7.18,1.59-14.11,3.87-20.61,7.37-.28.15-.56.38-1.08.21Z"/>
      <path class="cls-23" d="M324.8,212.28c-.63.22-.99.06-1.36-.16-4.59-2.8-9.62-4.53-14.74-6.02-2.21-.64-4.21-1.55-5.71-3.36-.43-.52-1.05-.8-1.79-1.18.19.48.34.84.49,1.2.15.38.68.76.45,1.08-.31.44-.91.14-1.38.06-9.29-1.76-18.66-2.4-28.09-1.97-25.38,1.16-48.32,9.09-68.32,24.96-4.61,3.65-8.35,8.1-11.29,13.21-.2.34-.3.78-.84.95-.31-.61.02-1.1.23-1.61,2.85-6.66,7.33-12.17,12.49-17.11,12.49-11.97,27.13-20.37,43.46-25.96,10.89-3.73,21.99-6.6,33.45-7.88,7.13-.79,14.27-1.13,21.44-.45,1.02.1,1.85.48,2.53,1.17,2.37,2.39,4.92,4.65,7,7.28,1.02,1.29,2.14,2.43,3.18,3.64,3.23,3.78,6.13,7.84,8.78,12.16Z"/>
      <path class="cls-23" d="M103.81,174.2c-17.04-1.87-34.09-3.31-51.35-1.04.65-2.41,1.93-4.27,2.98-6.23.3-.56.91-.29,1.37-.28,6.79.14,13.55.63,20.29,1.53,8.8,1.17,17.45,3.07,25.92,5.73.27.08.52.19.79.29Z"/>
      <path class="cls-23" d="M271.85,174.33c-.02-.65.45-.66.84-.77,9.54-2.7,19.2-4.81,29.1-5.76,5.35-.51,10.7-.92,16.07-1.17,1.17-.05,1.84.3,2.28,1.42.53,1.35,1.26,2.62,1.9,3.92.35.71.47,1.13-.67.99-11.84-1.44-23.68-1.2-35.53-.16-4.48.39-8.95.82-13.39,1.55-.19.03-.4-.02-.6-.03Z"/>
      <path class="cls-23" d="M267.08,180.32c2.66-.95,5.39-1.62,8.14-2.19,11.84-2.48,23.82-3.18,35.88-2.82,3.87.11,7.74.3,11.61.42.97.03,1.67.31,1.94,1.31.04.16.15.3.21.45.3.71,1.17,1.58.8,2.08-.49.66-1.63.32-2.47.2-8.34-1.13-16.73-1.72-25.15-1.6-10.08.14-20.12.8-30.12,2.16-.28.04-.57,0-.86,0Z"/>
      <path class="cls-23" d="M48.99,180.1c.27-1.62,1.2-2.79,1.81-4.09.18-.37.57-.3.89-.31,11.15-.49,22.3-.88,33.44.2,5.26.51,10.45,1.5,15.54,2.98.7.2,1.42.38,2.14,1.14-9.14-1.04-18.04-2.22-27.01-2.04-8.93.18-17.85.82-26.8,2.12Z"/>
      <path class="cls-17" d="M276.76,228.12c-3.86.08-7.72-.05-11.59-.16-16.93-.47-33.44,1.95-49.6,6.98-.74.23-1.48.61-2.34.08.5-.82,1.34-1.07,2.11-1.38,8.1-3.18,16.51-5.12,25.12-6.29,11.73-1.6,23.43-.98,35.11.49.4.05.79.19,1.18.28Z"/>
      <path class="cls-17" d="M98.68,228.13c15.93-4.16,50.26-.72,61.72,6.28-20.46-5.48-40.89-7.79-61.72-6.28Z"/>
      <path class="cls-25" d="M185.48,241.71c-.48-.42-.58-1.02-.79-1.53-3.86-9.71-9.9-17.93-17.27-25.24-.95-.94-1.83-1.93-2.73-2.92-.55-.61-1.04-1.26-1.12-2.16,7.44,3.22,21.92,24.29,21.91,31.86Z"/>
      <path class="cls-25" d="M74.44,181.2c-6.42,1.13-12.83,2.28-19.2,3.67-1.99.43-3.96.94-5.95,1.41-.54.13-1.22.3-1.42-.33-.25-.8-.77-1.61-.45-2.52.09-.26.4-.25.65-.29,8.74-1.2,17.51-2.13,26.37-1.93Z"/>
      <path class="cls-24" d="M137.1,238.86c3.75-.37,7.45.07,11.14.69,9.24,1.55,18.15,4.1,26.45,8.55.51.27,1.01.58,1.51.87.27.16.52.36.34.69-.17.32-.5.25-.78.15-.39-.15-.77-.31-1.15-.49-11.69-5.53-24.03-8.73-36.83-10.29-.23-.03-.46-.11-.69-.17Z"/>
      <path class="cls-25" d="M300.84,181.16c5.01.03,10.04.26,15.04.8,3.6.39,7.2.76,10.76,1.45.95.18,1.21.44.8,1.43-.71,1.7-.63,1.74-2.52,1.27-7.95-1.95-15.99-3.51-24.08-4.96Z"/>
      <path class="cls-17" d="M226.02,240.69c-.34.41-.87.44-1.32.55-8.54,1.98-16.76,4.86-24.69,8.57-.3.14-.6.28-.92.39-.45.16-.83.02-1.07-.38-.34-.56.17-.74.49-.94,3.28-2,6.83-3.41,10.45-4.66,4.97-1.71,10.08-2.83,15.26-3.65.45-.07.91-.06,1.37-.06.14,0,.33-.05.42.18Z"/>
      <path class="cls-17" d="M189.39,242.24c-.27-2.66.66-5.03,1.68-7.33,3.63-8.19,8.94-15.15,15.85-20.86.96-.79,2.01-1.49,3.03-2.25-4.32,4.46-8.57,8.95-12.17,14.01-3.6,5.06-6.48,10.48-8.39,16.43Z"/>
      <path class="cls-24" d="M223.78,245.67c-7.35,1.8-14.46,3.88-21.23,7.02-.31.14-.63.23-.97.16-.41-.08-.7-.36-.74-.74-.05-.47.42-.57.74-.72,2.92-1.31,5.87-2.52,8.93-3.45,3.98-1.22,8.04-2.05,12.17-2.53.31-.04.65-.16,1.08.26Z"/>
      <path class="cls-3" d="M156.74,246.28c1.94.12,3.79.52,5.63.99,3.75.96,7.38,2.23,10.85,3.95.34.17.93.29.71.83-.2.49-.68.5-1.17.27-4.94-2.31-10.21-3.69-15.34-5.48-.27-.09-.57-.13-.69-.56Z"/>
      <path class="cls-21" d="M58.53,187.3c-2.96.9-5.93,1.81-8.88,2.72-.33.1-.6.11-.69-.26-.12-.53.27-.78.67-.88,1.04-.27,2.1-.48,3.16-.71,1.89-.41,3.79-.8,5.68-1.21.02.11.04.22.06.33Z"/>
      <path class="cls-8" d="M82.6,244.39c-1.81,1.14-3.54,1.55-5.28,1.92-.44.1-.89-.03-.98-.53-.08-.44.31-.64.67-.77,1.7-.62,3.44-.88,5.59-.62Z"/>
      <path class="cls-6" d="M97.1,241.73c-1.72.82-3.52,1.36-5.39,1.6-.36.05-.81.08-.92-.41-.12-.49.31-.63.64-.78,1.82-.78,3.74-.53,5.67-.42Z"/>
      <path class="cls-12" d="M282.09,241.63c.77-.03,1.5.13,2.14.55.67.44.65.94-.07,1.32-.73.39-3.09-.12-3.66-.74-.35-.38-.28-.66.13-.9.45-.27.96-.24,1.46-.23Z"/>
      <path class="cls-2" d="M317.02,187.18c2.78.47,5.51,1.15,8.23,1.86.38.1.79.15.63.69-.15.52-.56.24-.83.17-2.73-.79-5.45-1.61-8.17-2.43l.13-.29Z"/>
      <path class="cls-15" d="M232.95,239.8c-1.1.67-1.97.74-2.8.93-.35.08-.74,0-.79-.38-.05-.41.36-.53.68-.54.85-.03,1.7-.01,2.91-.01Z"/>
      <path class="cls-22" d="M305.04,238.36c.43.07.86.15.93.58.07.42-.33.56-.66.57-.38.02-.78-.08-.85-.54-.06-.44.3-.52.58-.61Z"/>
      <path class="cls-4" d="M259,183.78c-.35-.05-.55-.22-.5-.56.05-.37.33-.56.68-.58.33-.02.56.17.55.5-.01.45-.36.58-.72.65Z"/>
      <path class="cls-7" d="M83.92,244.39c.43-.68.96-.69,1.68-.5-.48.57-.94.8-1.68.5Z"/>
      <path class="cls-7" d="M69.7,239.38c-.27-.02-.54-.11-.49-.41.05-.32.33-.45.65-.45.26,0,.56.07.55.36,0,.41-.35.49-.7.5Z"/>
      <path class="cls-9" d="M207.76,237.53c-.02.34-.25.51-.55.58-.25.06-.56.04-.59-.26-.03-.42.33-.52.67-.59.22-.04.41,0,.47.27Z"/>
      <path class="cls-14" d="M156.65,204.82c-.34-.04-.5-.28-.54-.57-.03-.22.14-.41.36-.4.37.02.62.25.61.63,0,.21-.17.36-.43.34Z"/>
      <path class="cls-20" d="M211.13,235.98c-.13.3-.37.42-.69.4-.21-.01-.46-.08-.39-.34.08-.31.37-.42.68-.43.24,0,.38.13.4.37Z"/>
      <path class="cls-18" d="M167.05,237.23c-.7.26-1.13.02-1.59-.5.74-.3,1.15,0,1.59.5Z"/>
      <path class="cls-13" d="M110.76,182.08c0,.31-.22.42-.46.43-.26.01-.47-.12-.51-.4-.04-.31.18-.43.44-.44.27-.01.44.14.53.41Z"/>
      <path class="cls-1" d="M169.97,132.05c-.02-.58.19-.94.84-.94.8,0,1.68.85,1.72,1.64.03.62-.26.92-.87.93-.85.02-1.68-.78-1.7-1.63Z"/>
      <path class="cls-16" d="M274.38,113.14c-.46-.05-1.1.09-1.08-.54.03-.81.77-.99,1.44-1.05.46-.04.99.11.97.69-.02.86-.73.84-1.33.89Z"/>
      <path class="cls-11" d="M221.06,174.52c-.78-1.21-1.02-2.49-.5-3.97,1.01,1.3.71,2.64.5,3.97Z"/>
      <path class="cls-19" d="M94.42,103.15c1.56.29,2.78.79,3.76,1.86-1.46.1-2.66-.47-3.76-1.86Z"/>
      <path class="cls-5" d="M158.17,124.57c.3.11.42.35.42.66,0,.21-.06.44-.32.41-.4-.05-.5-.36-.49-.71,0-.24.14-.36.39-.36Z"/>
      <path class="cls-10" d="M287.51,118.09c0,.22-.08.37-.28.36-.36-.03-.63-.21-.7-.58-.04-.23.19-.25.34-.24.31.02.53.2.64.46Z"/>
    </g>
  </g>
</svg>