<?xml version="1.0" encoding="UTF-8"?>
<svg id="_레이어_2" data-name="레이어 2" xmlns="http://www.w3.org/2000/svg" viewBox="0 0 777.43 776.02">
  <defs>
    <style>
      .cls-1 {
        fill: #fe9c00;
      }

      .cls-2 {
        fill: #fe6d00;
      }

      .cls-3 {
        fill: #fe3700;
      }

      .cls-4 {
        fill: #fe9100;
      }

      .cls-5 {
        fill: #fe8700;
      }

      .cls-6 {
        fill: #fe8300;
      }

      .cls-7 {
        fill: #fe3300;
      }

      .cls-8 {
        fill: #fec900;
      }

      .cls-9 {
        fill: #fe3b00;
      }

      .cls-10 {
        fill: #fe1f00;
      }

      .cls-11 {
        fill: #fe7800;
      }

      .cls-12 {
        fill: #fe2200;
      }

      .cls-13 {
        fill: #fe6b00;
      }

      .cls-14 {
        fill: #ae3801;
      }

      .cls-15 {
        fill: #620202;
      }

      .cls-16 {
        fill: #fe8000;
      }

      .cls-17 {
        fill: #fe3e00;
      }

      .cls-18 {
        fill: #fe9400;
      }

      .cls-19 {
        fill: #fec100;
      }

      .cls-20 {
        fill: #feb100;
      }

      .cls-21 {
        fill: #fe6400;
      }

      .cls-22 {
        fill: #fe4f00;
      }

      .cls-23 {
        fill: #fe4100;
      }

      .cls-24 {
        fill: #fe9200;
      }

      .cls-25 {
        fill: #fea600;
      }

      .cls-26 {
        fill: #fec200;
      }

      .cls-27 {
        fill: #fe5d00;
      }

      .cls-28 {
        fill: #fe2900;
      }

      .cls-29 {
        fill: #febf00;
      }

      .cls-30 {
        fill: #fe8d00;
      }

      .cls-31 {
        fill: #fe3a00;
      }

      .cls-32 {
        fill: #fe2600;
      }

      .cls-33 {
        fill: #fe6000;
      }

      .cls-34 {
        fill: #fea300;
      }

      .cls-35 {
        fill: #fbf9f9;
      }

      .cls-36 {
        fill: #feb400;
      }

      .cls-37 {
        fill: #fe9500;
      }

      .cls-38 {
        fill: #fe5300;
      }

      .cls-39 {
        fill: #fe4400;
      }

      .cls-40 {
        fill: #fe4e00;
      }

      .cls-41 {
        fill: #fe7900;
      }

      .cls-42 {
        fill: #fe5600;
      }

      .cls-43 {
        fill: #fe6c00;
      }

      .cls-44 {
        fill: #fe9600;
      }

      .cls-45 {
        fill: #feaa00;
      }

      .cls-46 {
        fill: #fe6700;
      }

      .cls-47 {
        fill: #fe2d00;
      }

      .cls-48 {
        fill: #fe2c00;
      }

      .cls-49 {
        fill: #fe7100;
      }

      .cls-50 {
        fill: #fe2100;
      }

      .cls-51 {
        fill: #feb800;
      }

      .cls-52 {
        fill: #fe4b00;
      }

      .cls-53 {
        fill: #fe8400;
      }

      .cls-54 {
        fill: #fe6e00;
      }

      .cls-55 {
        fill: #fe8e00;
      }

      .cls-56 {
        fill: #fe4800;
      }

      .cls-57 {
        fill: #fe6100;
      }

      .cls-58 {
        fill: #fe5700;
      }

      .cls-59 {
        fill: #fe7200;
      }

      .cls-60 {
        fill: #fe9800;
      }

      .cls-61 {
        fill: #feb700;
      }

      .cls-62 {
        fill: #fe5c00;
      }

      .cls-63 {
        fill: #fec600;
      }

      .cls-64 {
        fill: #febc00;
      }

      .cls-65 {
        fill: #fe9b00;
      }

      .cls-66 {
        fill: #fe4700;
      }

      .cls-67 {
        fill: #fe7f00;
      }

      .cls-68 {
        fill: #fe2f00;
      }

      .cls-69 {
        fill: #fe4c00;
      }

      .cls-70 {
        fill: #feba00;
      }

      .cls-71 {
        fill: #fe2500;
      }

      .cls-72 {
        fill: #fead00;
      }
    </style>
  </defs>
  <g id="_레이어_1-2" data-name="레이어 1">
    <g>
      <path class="cls-15" d="M379.26.17c327.31-9.47,517.4,371.58,314.6,628.82-180.04,228.36-544.25,183.13-660.57-83.12C-77.9,291.35,102.64,8.18,379.26.17Z"/>
      <path class="cls-63" d="M423.46,712.99c1.56-.51,2.58.46,3.05,2.9l19.4-2.67,1.55,1.76,4.5.34c6.46-2.89,11.8-2.77,16.04.37,3.42-2.58,6.52-2.96,9.29-1.14l21.79-2.58c5.79,3.76,16.09,3.26,23.25,2.72,3.06-2.54,11.52-2.3,11.12,2.29-21.03,9.43-40.39,16.76-63,21.97-3.41-1.68-10.04-2.79-14.15-2.87-14.09,2.04-27.97,2.14-41.65.29-8.65,1.9-16.9,1.56-24.74-1.04l-5.47,2.72c-13.47-.37-26.91-1.42-40.34-3.16-5.96.44-11.34,1.62-16.86,3.77l-19.75-2.77c-1.44,2.4-3.29,1.88-5.61,1.03l-2.43,1.03c-19.86-4.79-37.16-9.95-56-17.98-5.43-6.58,6.62-5.95,11.21-4.05,7.54-.47,15.06-1.31,22.58-2.52l5.01,2.27c7.23-1.81,14.49-1.22,21.79,1.78,6.64-3.73,12.16-3.2,19.41-2.47-.16-2.3,1.18-2.35,3.2-2.11,28.78,4.2,56.94,7.26,86.8,5.03l2,1.07c.59-.67,1.59-1,3-1-2.95-2.86,2.45-9.14,5-4.99Z"/>
      <path class="cls-10" d="M512.46,44.82c-.89,3.35-4.58,4.35-11.06,2.98-4.08,2.66-8.73,1.74-13.96-2.75-3.37,4.4-8.29,4.72-14.77.95-7.05,3.08-13.75,3.32-20.09.7-2.97,3.55-5.32,1.94-8.4-.38-5.56,2.9-10.1,2.8-13.63-.3-6.33,2.6-12.46,2.84-18.39.7-2.99,2.94-6.98,3.05-11.98.34-3.78,2.22-5.93,2.4-7.84-1.98-8.01,3.12-18.95,6.28-26.63,2.34-5.63.72-11.48.31-17.55-1.25-3.72,3.03-5.84,3.24-9.88.57-9.22,1.1-20.11,1.34-29.1-.98-1.56,2.54-4.61,2.99-9.16,1.33-7.27.92-14.52.81-21.74-.33-2.5,4.24-5.4,3.49-8.07.01-3.36,3.06-6.91.91-7.74-2.95,82.7-29.79,167.45-29.5,250,1Z"/>
      <path class="cls-59" d="M56.46,368.42c1.85-1.8,4.33-1.52,7.44.85,8.12-2.55,16.34-2.79,24.67-.73-.6,2.3.03,3.59,1.88,3.87,33.51-1.85,67.15-2.43,100.94-1.73l2.06,1.73c5.4,4.11-2.79,14.96-8.58,15.49-28.21.81-56.15,4.86-83.79,9.96l-3.64-.48-.95-.87c-22.82,1.21-45.42,1.14-67.8-.19-3.96,2.19-6.05,1.88-6.25-.94-.24-8.44-.41-17.55,0-25.97l.99-2.21c8.66,2.18,17.68,2.9,27.06,2.16.26,2.72.91,4.07,1.96,4.04-.45-3.06.61-5.98,4-4.99Z"/>
      <path class="cls-13" d="M692.46,340.45c3.48.3,7.1.72,10.84,1.25,6.65-.64,37.99-3.49,42.25.46l1.91,4.28c1.2,10.89,1.78,21.99,2,32.96-2.77.61-3.77-1.61-3.02-6.64l-7.56-2.87c-7.24,1.66-14.07,1.54-20.5-.37-6.19,4.06-13.63,2.56-19.91-.11l-.86-1.3c-4.48.75-8.92,1.72-13.33,2.9l-1.81-1.6c-7.82-.45-16-.14-24.51.92-24.92-.95-49.48-1.02-73.68-.21l-.81-2.7c-2.54-4.16,5.07-6.47,8.74-7.32,32.37-5.09,64.78-11.66,96.95-20.07l3.31.43Z"/>
      <path class="cls-50" d="M262.46,43.82c1.92-.44,3.72,2.78,4.48,2.77.67,0,1.77-2.17,3.82-1.69,1.49.35,2.55,3.35,4.19,2.91,1.03-.28,1.1-2.92,2.16-3.07,1.67-.23,8.1,1.2,10.83,1.15,6.23-.12,12.48-2.33,18.51.92l1.53-4c4.23,2.57,6.66,2.83,11.57,2.43,7.09-.58,4.97.18,10.4.67,3.05.28,6.02-1.59,8.93-1.1,1.55.26,2.79,1.99,4.08,2,1.82.02,3.15-2.53,4.99-2.62,3.02-.14,10.21,1.82,13.01,2.13,1.75.19,6.12-1.57,6.39-1.38.33.25.4,1.93,1.09,2.41.58.41,12.16-.64,14.09-.97,1.75-.31,9.82-3.63,10.36-3.53,1.22.24,2.02,3.74,3.14,3.96,1.01.2,2.13-1.64,3.72-1.74,2.65-.17,7.44,2.76,8.09,2.64,1.14-.2,2.04-2.79,4.19-2.95,1.49-.11,4.36,1.69,7.73,1.62,2.78-.07,10.47-2.47,11.04-2.38,1.26.21,2.56,2.4,4.32,2.59,2.02.22,8.9-2.48,9.89-2.53.73-.03,1.85,2.46,3.99,2.81,1.97.32.89-2.11,2.95-2.17,2.85-.09,4.6,1.84,8,2.14,3.18.28,11.09-2.95,12.84-2.8,2.01.17,6.23,2.88,9.26,2.7,2.65-.16,3.7-4.12,5.74-3.78,1.38.23,7.19,4.86,9.19,4.85,1.27,0,2.5-1.66,4.05-1.95,4.16-.79,7.43,1.97,11.45-1.03,6.56,2.43,12.72,5.31,19,7.99,1.02,4.86-8.43,4.72-11.41,2.17l-7.29,2.73c-3.22-1.2-6.33-2.66-9.31-4.38-4.66,4.39-6.08,3.76-11.57.87-8.7,3.62-21.14,4.09-30.01,1.03-1.55,2.93-4.26,2.24-7.02,1.5-4.54-2.77-8.33-3.07-11.37-.91-6.62,1.81-14.15.66-20-3l-5-1c-1.1,2.76-4.95,2.85-6,0l-7-1c-5.06,2.44-9.94,2.44-15,0-2.92-.85-6.08-.89-9,0l-.21,2.21c4.11,2.46,6.51,5.38,7.21,8.78-1.12,2.29-6.97,3.45-9,2l-2.33-.52-4.43-10.41c-2.81.36-4.89-.32-6.24-2.06-2.76-.09-5.43.24-8,1-.74,2.91-4.17,2.77-5,0l-5,1c-8.11,3.09-16.75,5.05-25.94,5.87-7.78,2.3-15.47,3.34-23.06,3.12l-1.27-.31c-11.99,1.55-25.59,1.15-38.16-1.67-10.86,3.19-22.11,3.82-33.74,1.89l-1.82-1.91c11.88-7.12,25.07-11.32,38-15.98Z"/>
      <path class="cls-8" d="M470.46,738.96c-58.38,13.47-112.9,13.02-171-1,1.25-5.39,2.72-1.56,5.4-1.92.65-.09.56-2.09,1.16-2.12,6.45-.29,15.29,2.67,21.13,2.77,2.29.04,5.15-2.52,7.92-2.7,4.24-.28,5.6-.68,8.96-1.07,1.52-.18,9,2.22,14.88,1.49s2.65-.16,7.1.5c1.77.26,15.25,1.91,16.13,1.78,2.93-.46,5.3-3.42,7.82-3.33,1.33.05,6.43,2.05,8.15,2.18,6.01.45,10.7-.8,15.83-1.15,3.17-.22,7.99,2.35,13.07,1.62,6.42-.93,3.21-1.32,10.44-.43,4.76.59,13.67-1.53,18.39-1.5,2.43.01,10.28,1.37,13.08,1.92,2.03.4,3.14,1.02,1.53,2.97Z"/>
      <path class="cls-59" d="M698.46,369.42c4.21-1.84,9.81,1.15,13.28.79,2.37-.24,4.36-2.59,6.18-2.69,1.93-.1,4.32,1.56,6.28,1.67,4.49.25,9.83-1.02,13.73-1.33s6.61,4.41,10.51,1.56c.21,2.48-.29,5.1-.03,7.57.13,1.27,1.03,2.29,1.04,2.42.42,6.13.08,13.24.02,19.49-.02,1.69.64,4.44-1.02,5.48-1.68-1.61-2.44-3.86-2.29-6.73-8.04-1.73-16.47-1.26-24.13,1.65l-1.58-1.91c-1.86-.07-2.54-1.84-2.03-5.3-1.43,4.74-3.42,6.5-5.97,5.3l-2.46,1.31c-8.07-1.35-16.25-1.46-24.53-.34l-2.01-1.97c-.22-1.27-.36-2.63.16-3.85,2.14-5.03,8.47-16.37,11.58-21,.74-1.1,2.07-1.64,3.26-2.12Z"/>
      <path class="cls-71" d="M224.46,59.8c3.43-.44,10.42,1,13.55.88,4.93-.19,4.9-.22,9.89,0,3.83.16,10.21-2.77,12.05-2.84,2.69-.1,13.58,2.96,18.01,2.49,6.42-.68,3.84-.07,9.08.48,2.14.22,6.01-.93,8.93-1.03,1.88-.07,4.08-.85,3.49,2.03-1.65,1.41-3.38,2.85-5.46,3.57-13.8,4.8-27.36,9.68-41.06,14.74-2.06.76-4.32.72-6.48.67-11.58-.63-23.14-.3-34.66,1.01-4.31,0-18.69-.29-17.34-5,6.03-3.74,24.02-16.22,30-16.98Z"/>
      <path class="cls-26" d="M209.46,703c-1.52-1.96-1.18-2.4.57-3.57,1.17-.78,24.79,0,27.74.71,2.41-2.58,5.84-2.42,10.3.48,6.23-2.92,13.6-1.1,19.67,1.18,1.11-1.3,2.68-1.57,4.72-.79,1.85-.4,3.74-.58,5.61-.21,7.24,1.47,39.4,9.51,43.18,12.22.8.57,1.51,1.25,2.2,1.97-5.12,1.1-7.64.84-11.81,1.6-4.42.8-5.15,4.16-10.4,2.32-2.13-.75-7.99-2.64-11.06-2.61-2.41.02-5.72,1.57-8.1,1.37-2.16-.18-4.35-2.32-5.12-2.31-6.01.09-13.55,3.02-21.99,2.62-2.71-.13-12.4-4.33-11.51,2-11.69-4.98-22.9-10.84-34-16.98Z"/>
      <path class="cls-26" d="M502.46,700c4.13.05,7.26-1.3,10.81-3.27,3.7,3.48,6.65,3.75,8.84.83,11,.93,21.98,1.12,32.93.57,3.27.19,8.19,2.87,5.42,5.87-8.96,4.9-17.86,8.89-27,12.98-1.34-1.03-5.15-1.97-6.66-1.96-2.08.01-3.05,1.51-4.05,1.58-5.11.41-15.83.23-20.86-.55-1.97-.31-1.33-2.07-2.01-2.08-6.53-.12-15.43,2.37-22.95,2.5-.67.01-1.61-1.29-2.77-1.25-2.06.07-4.76,2.44-6.21,2.41s-2.97-2.2-5.03-2.6c-6.65-1.3-10.56,4.28-15.46-.05l.85-2.2c14.23-3.91,28.41-8.09,42.55-12.55,4.98-2.23,8.85-2.3,11.6-.24Z"/>
      <path class="cls-29" d="M594.46,683.03c-10.89,7.7-22.29,14.57-34,20.97-3.45-6.48-8.61-2.9-13.5-2.9s-21.54-2.39-24.01-1.87c-.62.13-.43,1.53-1.9,1.98-2.04.62-4.88-.48-7.08.81.51-7.07-2.17-1.69-6.09-1.05-3.04.5-4.7-.96-5.42-.96l-.48-1.25c13.05-6.76,26.58-13.12,40.58-19.07l1.89,1.34,7.06-2.32,19.11,1.03c4.5-2.1,8.63-2.01,12.38.26,4.16-1.41,12.14-3.36,11.46,3.02Z"/>
      <path class="cls-11" d="M22.46,395.39c2.27,1.47,3.96-1,6.51-1.08,3.05-.1,10.71.13,13.79.48,16.32,1.9,35.55-.35,53.22.6,2.44.13,3.28-.74,1.48,2-1.79,1.42-3.65,2.88-5.85,3.59l-37.15,11.5c.56,3.85-.11,6.48-2,7.88-4.52,3.55-21.31,4.85-25.89,2.46-.75-.39-1.44-.91-2.11-1.46-.83-8.61-1.74-17.02-2-25.97Z"/>
      <path class="cls-32" d="M478.46,63.8c-5.54-6.4,3.41-4.68,7.79-2.78,5.77-1.34,10.23-.8,13.37,1.62,1.5-4.53,10.21-3.54,12.85-.11,3.69-3.4,8.52-3.64,14.49-.73,2.43-2.31,4.45-2.05,7-.21,5.31-2.11,10.15-2.37,14.5-.78,8.9,1.27,25.61,14.38,34,18.98-.19,3.29-4.59,2.52-5.69-.13-4.19,2.68-8.32,3.57-12.37,2.68-8.29-2.48-16.85-2.64-25.67-.5-3.02-1.89-6.78-1.91-11.27-.05-2.26,0-4.59-.03-6.73-.83-12.21-4.53-24.38-8.98-36.62-13.41-2.15-.78-3.94-2.27-5.65-3.75Z"/>
      <path class="cls-20" d="M143.46,617.11l3.24.47c7.98,8.14,16.35,15.94,25.06,23.31l.71,3.19c2.65,2.92-.75,4.46-3.78,2.76-5.46-1.35-9.97-.75-13.51,1.79-5.2-2.66-8.81-2.18-14.37-1.02-3.21-1.57-5.99-2.08-8.34-1.53-9.86-9.6-18.27-19.43-27-29.96,1.81-3.98,10.65-3.31,13.74,0,2.47-1.76,3.72-2.61,6.87-2.9,4.04-.36,13.43,2.41,17.39,3.89Z"/>
      <path class="cls-61" d="M172.46,644.07c6.13,2.16,11.91,5.77,17.33,10.84,6.5,3.6,11.72,7.97,15.67,13.13.11,4.04-3.62,4.78-11.2,2.22-11.89,2.78-22.56,2.47-32.03-.94l-1.78.72c-10.04-7.94-18.74-14.96-28-23.97.66-5.97,5.28-.77,7.49-.5,2.62.33,6.6-1.4,9.57-1.06,2.11.24,5.17,2.33,5.47,2.32.85-.05,1.54-2.04,2.95-2.33,1.93-.39,8.82.18,11.26.42,1.16.11,2.16,2.31,3.26-.85Z"/>
      <path class="cls-29" d="M182.46,686.02l.52-2.2c6.6-2.02,12.38-3.59,19.22-.97,2.53-2.14,5.41-3.01,6.94.34,6.18-1.74,11.44-1.44,15.79.91,2.11-1.81,4.95-1.83,8.53-.08.37-.72.93-1.8,1.52-1.73,5.33.63,30.43,12.98,36.66,16.26l.82,2.46c-2.45-.42-2.08,2.76-4.66,2.78-1.21,0-2.04-1.23-2.81-1.29-4.32-.31-7.3-1.41-10.01-1.59s-5.17,1.73-7.02,1.68c-2.02-.05-5.28-3.03-7.99-2.6l-.52,3.02c-2.02.38-2.63-1.85-4.52-2.01-7.29-.62-13.94,2.19-21.25.22-1.95-.52-3.49-.35-4.23,1.79-9.73-5.38-17.86-10.81-27-16.98Z"/>
      <path class="cls-7" d="M174.46,125.72c-5.28,7.7-14.35,15.78-21.96,21.79-1.46,1.15-3.25,1.74-5.04,2.18-2.7-.66-5.34-.08-7.92,1.72-7.04-2.6-13.57-2.72-19.59-.34-4.38.96-7.88.49-10.49-1.39,8.07-9.49,15-17.3,24-25.97l2.44-1.08c8.58,1.84,17.69,1.78,26.34.06,3.37-.07,11.23-.07,12.22,3.02Z"/>
      <path class="cls-1" d="M82.46,528.22l3.35,2.31,12.55,22.56.1,4.09c.2.49.35.97.31,1.43-.35,4.16-10.03.93-12.58-.23-6.92,3.82-11.57,3.58-18.73,1.79-6.1-11.09-10.05-19.5-15-30.96-.66-4.2,2.48-4.63,9.44-1.28,7.34-1.3,13.42-1.82,20.56.28Z"/>
      <path class="cls-21" d="M713.46,315.48c-.44-3.45,1.71-2.79,4.18-1.38,2.29-2.08,5.43-2.44,6.71.73,4.74.1,9.57.28,14.49.56,1.25-2.11,2.59-2.15,3.62.1,1.95,10.27,3.86,20.56,5,30.96-.79-1.18-1.45-2.15-2.95-2.52-2.56-.63-13.13-2.45-15.32-2.19-5.68.67-2.81,1.3-9.25.72-7.62-.68-16.33,2.96-24.06.19-1.69-.61-1.32-2.62-3.42-2.19l1.65-2.6c4.94-2.65,15.91-5.89,20.98-5.2-1.81-5.31-3.58-11.67-1.63-17.17Z"/>
      <path class="cls-61" d="M601.46,642.08c3.39,1.19,7.2,1.04,11.44-.45,8.38,1.19,16.92,1.28,25.62.27l1.93,2.17c-8.27,8.13-14.91,14.57-24,21.97-6.72,1.55-13.79,1.5-21.22-.16-3.73,1.64-7.76,1.77-12.07.4-5.96,1.74-9.53.99-10.71-2.24l.9-3.02c8.57-5.94,16.86-12.33,24.93-18.92l3.17-.03Z"/>
      <path class="cls-20" d="M624.46,621.1c5.01-1.84,9.19-1.61,12.55.69,4.61-3.99,8.03-4.49,10.25-1.51h12.25c1.45.41,1.43,1.68-.06,3.82-6.56,7.52-11.9,12.99-19,19.98-6.48-.78-13.02.65-19.47.74-2.48.04-5.35-1.23-8.03-1.19-4.39.06-10.09,4.23-11.49-1.55l.37-2.92,19.7-17.95,2.93-.11Z"/>
      <path class="cls-31" d="M147.46,149.69l-.14,3.01-16.88,18.53-2.98.43c-4.24,2.95-7.9,3.18-10.98.67-2.7,1.93-5.55,1.72-8.07-.39-2.91,2.58-5.31,2.14-7.46-.98-3.04,3.63-6.73,4.81-8.5-.29,5.49-7.5,11.08-14.01,17-20.97,2.97-.7,7.51-.13,10.1-.56,1.77-.29,3.63-1.71,6.25-2.11,3.3-.51,12.03,2.59,14.17,2.43,1.42-.1,3.06-5.17,7.49.24Z"/>
      <path class="cls-18" d="M71.46,501.25l2.95,2.23,8.57,21.1-.52,3.64c-3.97,3.17-7.99.04-10.5.06-3.04.01-5.68,2.54-11.53,1.46-3.06-.57-5.18-4.42-7.97-.52-4.25-9.84-7.56-17.68-11-27.97l1.74-1.65c6.75-.71,13.12-.33,19.11,1.14,4.3-3.42,7.35-3.25,9.15.5Z"/>
      <path class="cls-23" d="M651.46,180.65c1.2-6.5,10.46-5.43,15.77-2.88,5.07-2.33,7.37-2.29,12.53.12l3.7-.24c6.34,9.07,10.45,15.51,16,24.97l-1.21,2.3c-9.48-.24-18.67.37-27.57,1.84l-2.22-1.15-3.67-2.03-12.74-18.82-.59-4.12Z"/>
      <path class="cls-45" d="M89.46,595.14c-1.84-4.61,5.07-4.03,8.21-2.41,3.31-2.28,6.76-2.2,10.01.15,1.36-1.67,3.25-1.96,5.7-.88,5.03-3.54,5.49-3.39,9.09,1.14l2.5-.57c6.72,6.94,13.01,14.27,18.87,21.99l-.37,2.55c-5.82,1.42-13.43-2.14-18.56-1.89-2.11.1-3.72,2.98-5.96,2.89-1.97-.08-2.7-2.43-3.92-2.6-1.6-.23-7.21.65-9.56.61-5.87-7.08-10.68-13.47-16-20.97Z"/>
      <path class="cls-1" d="M717.46,533.21c-4.18,9.38-8.23,17.17-13,25.97l-2.31,1.96c-6.72-1.34-13.46-2.29-20.23-2.85-5.48,3.69-8.63,3.65-9.46-.11,2.15-9.55,8.11-19.94,15-26.97,6.03-1.75,12.58-2.23,19.63-1.43,7.5-2.04,10.96-.89,10.37,3.43Z"/>
      <path class="cls-28" d="M194.46,76.78c3.63,3.49,8.52,1.75,12.23,2.18,6.44.75,3.22,1.38,10.45.14,6.28-1.08,14.93-.49,21.81-.3,1.81.05,6.77-.16,7.52,1.98-8.07,7.07-19.62,13.46-30,15.98-5.66.73-6.94.89-11.86-2.13-5.09,2.49-8.79,2.35-14.32,1.15-2.76,1.69-5.75,3.47-7.68-.22l-11.33-.55-.82-2.24c8.43-6.2,15.18-10.51,24-15.98Z"/>
      <path class="cls-48" d="M599.46,91.76c7.18,5.16,14.13,10.13,21,15.98.81,3.24-3.88,4.37-6.59,4.72l-15.85-.87c-6.53,2.38-8.87,2.87-14.93-1.42-1.75,1.3-3.29,1.82-4.62,1.56-.82.04-1.63.05-2.42-.07-2.77-.43-17.57-10.46-21.11-13.13-1.23-.93-1.89-2.39-2.47-3.77-1.26-3.2,2.03-3.88,4.79-4.24,9.93,1.88,20.24,2.46,30.28,1.27,3.27-1.98,7.25-1.99,11.93-.03Z"/>
      <path class="cls-48" d="M170.46,92.76c4.05,1.2,9.05-.15,13.3,1.04.88.24.72,1.95,1.25,2.01,1.99.23,3.16-1.7,5-2,2.11-.34,6.37,1.4,8.84.92,2.14-.42,3.12-2.23,6.09-2.08,3.19.16,3.64,2.56,5.2,2.96,1.99.51,6.91-3.07,6.31,1.15-6.14,7.26-15.86,13.33-25,15.98l-3.69,1.05c-7.82-3.35-13.94-3.09-18.36.8-3.55-2.5-7.38-3.42-11.47-2.76-3.86,5.72-10.72,2.84-7.48-3.09,6.65-5.63,12.87-10.74,20-15.98Z"/>
      <path class="cls-70" d="M572.46,664.05c3.7,2.27,8.43-.04,11.37.28,4.1.45,5.47,2.2,11.12-.37l21.51,2.09c-7.06,5.75-14.57,11.72-22,16.98-3.95-4.93-8.7-1.05-11.5-1.05-1.68,0-3.18-1.78-5.04-1.92-2.39-.19-4.91,1.59-7.13,1.67-7.59.26-18.16-1.83-26.33-.7.7-3.09,2.94-5.4,6.72-6.92,5.9-3.98,14.64-9.27,21.28-10.06Z"/>
      <path class="cls-42" d="M727.46,261.55c3.25,8.97,6.51,17.72,9,26.97-.34,2.09-2.57,2.72-6.68,1.89-4.17,2.45-9.35,2.2-15.55-.75-2.84,2.2-5.1,2.49-6.77.86l-2.65-1.88-7.3-20.96.95-3.13c-.99-2.44,1.97-4.15,4.08-5.02l16.48,1.04c3.54-.73,6.35-.4,8.43.98Z"/>
      <path class="cls-42" d="M43.46,262.55c3.15-1.89,7.14-2.68,11.97-2.35,2.79-2.57,5.17-1.78,6.78,1.5l10-.42,1.24,2.27,1.04,2.88-7.46,21.47-2.58,1.62c-3.77,1.6-9.1,3.18-13.33,2.77-4.62-3.39-9.89-1.36-14.74.55l-1.92-1.32c2.57-9.81,5.58-19.42,9-28.96Z"/>
      <path class="cls-27" d="M707.46,290.52c1.67-.39,5.74-2.65,6.71-2.8.65-.1,9.99,2.99,12.72,2.83.61-.04.46-1.92,1.23-2.07,1.13-.22,6.46.2,8.34.05,2.41,8.93,4.27,17.87,6,26.97-2.04-.77-1.91,1.98-2.63,2.05-1.71.17-4.27-1.36-6.88-1.15-4.23.34-3.36,2.75-9.74.03-.79-.34-.79-1.93-1.32-1.98-2.14-.19-3.05,1.7-4.13,1.88-1.39.24-2.55-2.53-4.3-.83l-2.51-2.24-4.68-19.6,1.19-3.13Z"/>
      <path class="cls-64" d="M205.46,668.04c9.43,1.61,19.1,8.3,26.99,13.78l1.01,2.2c-.32-.02-5.76.42-6.06.53-.84.3-1.95,2.44-2.45,2.45-.29,0-1.86-2.59-4.04-2.99-3.62-.67-7.91,1.59-12.02,1.09-1.94-.24-1.5-2-1.94-2.1-2.99-.72-2.36,2.02-3.06,2.05-2.34.11-7.95-2.17-11.09-1.73l-10.35,2.69c-8.1-5.47-14.31-9.9-22-15.98-.61-2.83,1.67-2.18,3.51-2.05,3.27.24,4.59,1.6,7.05,2,9.86,1.61,16.82-2.44,25.8-1.62,2.78.25,5.02,3.73,8.65-.33Z"/>
      <path class="cls-5" d="M56.46,448.32l2.6,2.79,5.45,21.47-1.05,3.7c-.41,2.14-1.52,2.93-3.59,2.78-8.71-.97-17.18-1.56-25.41-1.78-2.51-9.66-4.22-17.07-6-26.97,1.84-6.88,11.91-3.81,17.47-2,5.36-3.08,8.87-3.08,10.53,0Z"/>
      <path class="cls-16" d="M52.46,420.35l2.13,1.74,3.48,23.95-1.61,2.28c-3.67-1.7-8.79,1.93-10.51,1.96-.85.01-8.86-2.53-10.99-2.53l-6.51,2.56c-1.86-10.38-2.99-18.49-4-28.96,9.4.66,18.66.27,28-1Z"/>
      <path class="cls-28" d="M527.46,81.78c-1.08-2.85,8.8-4.08,9.44-4.03s.51,2.03,1.13,2.08c3.32.25,11.85-1.77,14.9-1.97,2.39-.16,12.15,3.51,17.88,2.95.37-.04,1.65-3.12,6.23-3.1,1.79,0,1.22,1.77,2.15,2.05,1.09.33,2.75-.21,3.27.02,6.41,2.8,11.47,8.01,17,11.99-4.03,2.89-5.67.02-7.49,0-1.26-.01-2.46,1.68-4.11,1.99-5.85,1.09-17.95.51-23.86-.02-3.62-.33-7.08-3.13-11.54,1.03l-3.76.16-19.2-9.98-2.03-3.16Z"/>
      <path class="cls-27" d="M64.46,289.52l1.28,2.76-5.86,23.37-2.42,1.83c-6.74.47-14.61.08-21.67-.84-3.36,2.37-5.81,2.65-7.33.84,1.62-8.7,3.76-17.41,6-25.97,3.8-1.81,9.2-3.52,13.4-2.98,1.5.19,2.51,1.62,4.16,1.92,3.8.69,8.72-3.47,12.44-.94Z"/>
      <path class="cls-9" d="M668.46,157.68c5.78,7.23,9.66,12.33,15,19.98-2.46,5.13-8.09-.05-10.5.03-1.4.05-2.74,1.9-4.99,2.07-3.33.25-5.63-2.43-9-2.2-2.12.14-5.43,2.16-7.5,3.09l-2.85-.41-16.18-18.65.03-2.91c.13-.79.33-1.98.91-2.1,9.86-2.02,21.61-1.83,31.64-1.11l3.44,2.21Z"/>
      <path class="cls-16" d="M747.46,423.35c-.77,8.51-2.55,16.61-4,24.97-4.15,2.14-10.97,5.31-15.27,2.27-5.5,1.11-10.07.69-13.73-1.27-1.51-8.36.08-18.38,4-25.97,1.12-3.99,2.71-4.29,6.71-4.49l9.86,1.58c4.43-1.06,10.33-1.71,12.43,2.9Z"/>
      <path class="cls-7" d="M636.46,122.73c6.87,6.57,13.6,12.92,20,19.98l-3.56,1.7c-11.76-1.08-23.24-.98-34.44.3-6.82-2.87-14.7-10.12-20.07-15.78-1.08-1.14-1.55-2.71-1.93-4.2-1.62-2.95,2.04-3.43,4.66-3.78,10.74.67,21.44.79,32.1.36l3.24,1.43Z"/>
      <path class="cls-55" d="M63.46,476.28c5.1,7,8.07,16.32,8,24.97-4.47-3.16-7.14,1.52-8.48,1.68-.97.11-3.95-1.62-6.07-1.73-4.59-.24-10.18,1.54-15.46.05-2.74-8.19-4.85-15.68-7-23.97.03-5.27,6.86-1.15,8.31-1.23,7.55-.45,8.37.55,15.53.99,1.95.12,3.36-.04,5.17-.76Z"/>
      <path class="cls-12" d="M443.46,55.81c1.65-8.51,9.81.1,13.5.11s3.16-3.17,4.05-3.17c1.41,0,3.08,1.92,4.99,2.04,4.93.32,14.79.27,19.79-.35,2.02-.25,4.12-2.27,6.17-2.21,1.77.05,5.31,2.83,6.9,2.64.81-.09.85-1.93,1.57-2.39,4.58-2.92,4.81.78,6.65,1.12.99.18,2.6-1.11,3.21-.69.47.32.52,2.53,1.72,2.83,1.45.36,6.21-2.73,8.12-2.72,1.38,0,2.25,1.56,3.78,1.65s6.52-.2,7.54-1.86c5.46,2.33,12.15,3.86,17,7.99-4.6-.66-10.99,2.94-14.72,2.75-1.47-.07-2.21-1.45-2.97-1.57-1.38-.21-2.38,1.82-3.81,1.83s-7.34-3.03-10.85-1.71c-1.5.56-2.39,2.42-3.29,2.64-1.53.38-2.5-2.34-4.08-2.76-.35-.09-6.97-.34-7.29-.17-.18.1,1.76,3.19-1.52,3.03-1.94-.09-2.86-2.62-3.96-2.73-2.55-.24-6.56,1.67-11.91.62-2.31-.45-6.37-4.9-5.62,1.06-11.47,0-24.74-2.97-35-7.99Z"/>
      <path class="cls-41" d="M720.46,397.38c2.16.29,5.18-1.84,6.44-1.89,5.38-.21,5.47-.45,10.14-1.11,2.91-.42,7.87,2.07,11.43,1,.04,2.99-.07,6.01,0,8.99.14,6.7-.4,12.4-1,18.98-2.18.28-5.14-1.83-6.45-1.89-1.63-.07-3.73,1.07-6.05.97-5.62-.22-10.96-3.97-16.51.91-2.23-7.96-1.33-18.35,2-25.97Z"/>
      <path class="cls-5" d="M743.46,448.32c-1.54,8.86-2.84,16.17-5,24.97-2.66,2.98-8.62,5.47-12.35,2.5-2.04,2.31-4.38,1.61-6.54-.12-6.6,2.7-9.97,1.9-10.11-2.38-1.44-6.93.71-18.33,5-23.97,4.45-.13,9.28-.68,13.7-.7,1.47,0,2.24,1.43,3.6,1.46,3.53.07,8.34-3.72,11.7-1.76Z"/>
      <path class="cls-34" d="M704.46,559.18c-4.54,8.37-7.83,13.94-13,21.97-1.12,1.76-2.74,1.43-4.87-.98-2.07,2.46-4.99,2.47-8.77.05l-16.67,2.52c-1.86.23-2.55-.65-2.69-2.59,1.85-7.97,7.46-17.14,14-21.97,4.27,2.81,6.35-1.81,9.45-1.88,2.68-.06,10.6,1.12,13.33,1.61,3.05.55,6.07,1.45,9.22,1.27Z"/>
      <path class="cls-34" d="M98.46,557.18c6.93,5.43,13.64,15.31,15,23.97-4.23,1.99-11.8.94-16.53-.93-6.93,3.19-12.76,3.17-17.47-.07-4.55-7.14-7.87-12.46-12-19.98,2.23-3.62,6.53-.17,8.34-.24,2.29-.08,8.46-3.36,10.33-3.53,2.97-.27,7.36,4.83,12.33.77Z"/>
      <path class="cls-22" d="M718.46,239.58c3.31,7.52,6.18,14.19,9,21.97-7.82,2.43-17.08-.27-24.53-.11-1.28.03-2.71,2.85-4.47,3.1-5.13-4.63-9.23-14.07-9-20.97-2.09-4.5.52-6.42,7.85-5.77l11.57.7c4.45-2.59,7.64-2.24,9.58,1.08Z"/>
      <path class="cls-66" d="M699.46,202.63c4.1,6.98,8.28,13.48,12,20.97l-1.75,2.39c-9.5-.38-18.69.06-27.55,1.31l-1.69-1.69c-5.78-4.08-11.23-12.95-12-19.98,9.21-4.95,20.86-.44,31-3Z"/>
      <path class="cls-44" d="M726.46,511.24c-2.9,7.73-5.68,14.53-9,21.97-1.49-4.14-6.66-1.43-10.61-1.43-6.41,0-13.02.01-19.39-.57.24-7.67,4.53-17.58,10-22.97l2.14-1.01c3.43,3.25,15.02,2.3,19.82,1.46,3.81-2.69,8.17-3.23,7.05,2.55Z"/>
      <path class="cls-22" d="M82.46,242.58l.87,2.87-7.19,16.75-2.68,1.35c-2.88-1.01-9.76.59-12.3.04-1.2-.26-1.23-2.82-2.23-3.04s-2.17,1.42-3,1.55c-3.94.61-8.33.7-12.48.46,2.69-7.51,5.84-14.67,9-21.97,1.76-1.19,4.57-1.21,8.43-.05,3.56-3.49,5.19-2.99,8.93-.15l7.62-.83c2.74-.12,5.19-.16,5.03,3.03Z"/>
      <path class="cls-30" d="M709.46,473.29c3.4,4.18,7.45.11,10.5.46,1.05.12,2.08,1.81,3.98,1.6.49-.05.56-2.09,1.03-2.1,1.54-.05,3.2,1.98,5.07,2.08,2.42.12,5.16-3.22,8.42-2.03-2.03,8.29-4.38,15.88-7,23.97l-1.83,1.34c-5.61-.31-11.21-.78-16.8-1.42-4.02,2.7-7.79,1.82-10.37-1.92-.97-6.78,2.41-16.89,7-21.97Z"/>
      <path class="cls-68" d="M150.46,108.74c2.55,8.93,4.6,2,6.61,1.19.41-.17,8.3-.33,8.74-.26.67.11,1.62,4.08,4.2,2.72,1.4-.74.81-2.58,2.94-2.77,5.63-.5,12.99,1.57,18.51,3.12-3.3,6.07-10.31,11.44-17,12.98l-12.5-1.06c-5.6,1.66-12.71,1.28-19,1.13-2.99-.07-6.65-1.1-9.49-2.06,5.52-5.32,11.2-10.08,17-14.98Z"/>
      <path class="cls-43" d="M52.46,349.44l1.81,2.13c-.31,7.38-.91,14.66-1.81,21.84-.71,1.04-.47,3.17-1.99,2.99-.22-1.1.29-4.71,0-4.99-.77-.72-8.66.1-10.43.02-3.41-.17-6.18-.04-9.13-.14-2.31-.08-5.29-2.96-8.44-1.88.22-4.5.25-10.67,1-14.98l.77-5.17c1.79-3.62,14.33-3.02,17.74-.03,3.48-2.34,9.99-6.06,10.49.2Z"/>
      <path class="cls-3" d="M656.46,142.7c4.48,4.94,8.03,10.01,12,14.98l-16.5-.99-19.5,1.99c-5.12-.89-13.2-8.84-14-13.98-.05-3.6,1.67-2.13,3-2.5,6.06-1.7,7.24-.21,12.88-.12,7.43.12,14.66-.16,22.12.62Z"/>
      <path class="cls-68" d="M578.46,111.74c4.78-8.1,8.58.18,12.5.11,2.16-.04,3.08-1.66,4.29-1.92,5.23-1.14,12.8.91,18.45.54,3.57-.23,3.97-1.69,6.76-2.73,5.89,5.01,10.54,9.76,16,14.98-5.13,1.18-11.19,1.02-16.46.93-6.32-.1-12.27-1.02-18.74-.73-1.39.06-3.74.74-4.8,1.79-6.56-1.3-14.93-7.03-18-12.98Z"/>
      <path class="cls-45" d="M649.46,592.14c2.46-2.15,5.69-2.2,9.7-.17,4.72-3.16,10.84-3.46,18.37-.89,2.96-2.23,6.09-1.87,5.92,2.06-3.85,5.47-6.89,9.66-11,14.98-5.77,3.84-12.59,4.31-20.46,1.4l-7.96,1.33c-2.99.4-7.06-.1-6.57-3.73.19-4.99,7.11-13.83,12-14.98Z"/>
      <path class="cls-21" d="M57.46,317.48c2.17,4.89.7,14.09-3,17.98-1.5,1.23-3.69,1.61-6.59,1.13-5.59,1.85-10.7,1.98-15.33.39-4.19,2.42-6.55,2.24-7.08-.53.86-6.33,1.83-12.7,3-18.98,1.82-.06,6.38-2.97,7.3-2.81,6.17,1.06,5.89.69,12.21.74,1.86.01,8.45.07,9.49,2.07Z"/>
      <path class="cls-23" d="M116.46,185.65c-.74,6.3-6.37,15.03-12,17.98-2.68-1.5-5.55-2.62-8.59-3.35-1.58,4.06-4.47,4.43-6.96,1.03-3.86,1.84-12.32-.3-14.45-3.68,2.89-4.78,5.9-9.34,9-13.98l2.11-1.6c7.39-.3,14.66.24,21.8,1.61,3.69-1.92,10.33-3.96,9.09,1.99Z"/>
      <path class="cls-72" d="M672.46,608.12c-4.33,5.61-8.4,10.71-13,15.98.56-3.01-1.53-1.94-3.45-2-2.85-.08-7.53.55-9.88-.01-.78-.19-.67-1.97-1.23-2.04-2.67-.34-5.64,3.76-7.95,3.7-1.67-.04-3.02-2.34-4.17-2.51s-4.86,3.31-8.32-.14l-.36-2.49,10.85-11.67,2.51.18c1.45.68,2.74,1.79,4.44,1.87,2.31.11,8.84-1.49,10.08-1.46,2.74.06,10.88,2.29,12.95,2.18s5.4-3.71,7.52-1.59Z"/>
      <path class="cls-56" d="M96.46,216.61c1.45,3.57-3.23,11.41-7,11.99-.99,1.25-2.12,2.18-3.4,2.81-9.7-3.05-17.06-2.38-26.89-.07l-1.72-1.74c3.04-6.42,5.77-11,9-16.98l1.62-1.71c2.52-.55,21.24-1.28,23.68-.82,4.5.86,7.12,1.49,4.69,6.52Z"/>
      <path class="cls-52" d="M711.46,223.6c2.59,5.22,4.66,10.67,7,15.98-4.28-2.43-7.19.76-9.44.9-3.55.23-10.37-1-14.78-.62-2.59.22-5.78.1-4.77,3.71-4.77-2.85-9.55-12.45-9-17.98l9.57-1.95c7.02.77,14.54,1.57,21.43-.05Z"/>
      <path class="cls-25" d="M113.46,581.15c3.36-2.62,11.29,8.73,9,11.99-.07-.05-.87.04-1.67-.35-.32-.16-.31-1.66-.9-1.69-2.07-.13-4.67,2.58-6.18,2.85-1.62.28-2.77-.85-3.68-.83-.63.01-.56,2.01-1.09,2.08-1.97.29-3.61-2.06-5.97-2.18-2.75-.14-4.11,1.7-5.02,1.75-1.54.07-5.59-3.12-8.47.37-3.59-5.07-6.67-9.75-10-14.98,1.53-2.75,3.97,1.05,5.5,1.01s9.99-2.88,11.98-2.92c1.81-.04,3.58,1.56,5.25,1.72,3.55.34,6.79-1.05,11.27,1.2Z"/>
      <path class="cls-17" d="M92.46,170.67c1.39-.33,4.66,2.22,4.96,1.99.11-.08.17-1.64,1.07-2.44,3.84-3.4,5.17,1.49,5.53,1.52,2.16.17,3.12-1.72,4.14-1.89,1.26-.2,2.47,1.98,4.72,1.87,1.6-.08,3.33-1.86,4.1-1.79.96.08,1.85,2.3,3.12,2.57,1.92.41,4.89-2.97,7.37-.82-.33,5.22-6.01,12.41-11,13.98-3.27-4.47-6.07-.29-8.54-.02-1.93.21-5.73-1.3-8.32-1.4-5.23-.21-10.89.44-16.14-.58,2.94-4.41,5.87-8.71,9-12.98Z"/>
      <path class="cls-25" d="M691.46,581.15c-2.67,4.14-5.16,7.95-8,11.99-5.15-3.29-3.33-.82-4.22-.29-1.84,1.1-12.24-2.17-15.23-1.75-2.15.3-2.91,2.56-4.17,2.82-2.07.43-7.42-2.79-10.38-1.78-.18-4.69,4.44-10.84,9-11.99,1.78.82,2.9.66,4.73.33,3.33-.62,11.8-2.28,14.8-2.24,1.93.03,3.92,2.32,5.84,2,.99-.16,1.26-3.02,2.13-3.07.34-.02,4.21,3.65,5.5,3.98Z"/>
      <path class="cls-39" d="M74.46,197.63c2.37-.34,10.71,2.9,11.34,2.84,1.1-.1,2.33-1.63,3.17-1.59.99.04,2.03,2.26,3,2.75,2.24,1.12,1.15-2.52,1.55-2.88,1.68-1.52,11.17.74,10.94,4.88.06,5.34-3.2,10.63-8,12.98.22-2.76-.04-3.04-2.54-3.95-6.95-2.52-19.67,1.93-27.46-.04,2.78-5.13,4.84-9.76,8-14.98Z"/>
      <path class="cls-24" d="M731.46,497.26c-1.67,5.17-3.13,9-5,13.98-2.44-5.23-4.05-.99-6.89-.55-3.23.5-15.91.8-18.49.3-1.25-.24-2.28-2.26-3.62-2.74-1.41-4.55.97-10.48,5-12.98,2.41-1.01,4.46,1.62,5.7,1.82s2.52-1.84,4.74-1.89c1.64-.03,3.43,1.11,5.11,1.11,4.45.01,8.95-1.45,13.45.95Z"/>
      <path class="cls-69" d="M89.46,228.59c1.51,3.76-3.08,12.93-7,13.98-3.6-2.56-10.75.44-13.28-.32-1.45-.44-3.37-2.53-4.23-2.46-.82.07-1.73,2.19-3.19,2.6-2.21.62-7.16-.75-9.29-1.81,1.62-3.74,3.26-7.31,5-10.99l16.34-2.66c5.75-.1,9.63,4.27,15.66,1.66Z"/>
      <path class="cls-46" d="M54.46,335.46c2.62,3.07,1.33,11.75-2,13.98-3.79-4.05-8.55,1.83-10.3,1.82s-4.3-2.05-6.37-2.43c-3.28-.61-7.87,1.04-11.32.63.74,2.02-.81,3.83-1.02,4.98.57-5.99,1.19-12.02,2-17.98,2.43,1.17,6.35-1.73,7.48-1.63.78.07,1.76,1.5,3.04,1.6,5.05.42,12.31-3.76,18.48-.97Z"/>
      <path class="cls-15" d="M366.46,50.82c2.58-.16,5.29-.09,7.86.14.75,4.5,3.79,8.88,5.14,12.84l2.6,1.52c2.24,7.16,4.05,14.47,5.81,21.76l-1.41,2.68c5,6.97,7.91,19.6,6,27.97.59.49,1.15,1.01,1.61,1.6,1.8,2.35,4.74,25.75,3.56,28.45-.3.68-.72,1.3-1.17,1.91l2.17,2.05,1.01,20.45c-1.51,12.52-2.24,25.33-2.18,38.42.89.19.85.52,0,1,2.9,4.38,2.08,13.77-1,17.98,1.93.91,1.93,2.08,0,3-.39,2.74-.72,5.4-1,7.99,2.99,5.55,1.67,13.03-2,17.98,2.84,1.74,1.39,9.64-2,9.99,2.67,3.06-4.32,17.32-6.77,19.62-.88.83-1.99,1.45-3.23,1.36l.9,2.21c-4.82,6.46-10.4,12.43-16.53,17.68l-3.36.09.15,2.32c-3.41,2.48-22.84,12.05-25.66,10.79-.58-.26-1.06-.67-1.49-1.13-2.1,2.69-5.52,3.78-10.27,3.28-5.62.49-15.47.64-19.73-2.28l-10.58-.79-31.68-12.77c-18-6.03-30.11.24-39.75,15.56l1.53,2.32c-.72,4.99-.92,10.02-.61,15.08-2.35,1.44-1.69,5.97-.92,8.57,2.93,4.81,3.79,15.06,1,19.98,3.66,8.11,5.17,19.39,3,27.97,3.83,7.23,4.86,16.01,3,23.97,3.78,5.4,4.93,12.68,3,18.98,3.74,4.29,4.96,10.68,3,15.98,4.05,4.81,5.75,12.94,4,18.98,4.3,5.1,6.42,13.46,5,19.98,4.3,3.13,4.06,6.56,3,10.99,2.98.04,2.89.84,1,3,4.56,4.76,6.96,12.42,6,18.98l3.02,2.67,8.5,23.28-.52,4.01,3.22,2.5,9.95,21.4-.18,4.06,3.19,1.81,9.93,17.51-.12,3.65c4.21,1.01,8.78,8.77,8,12.98,5.31,2.43,10.37,9.17,11,14.98,5.28,1.87,10.23,8.47,11,13.98,5.02,2.48,9.51,6.33,13.46,11.53,5.21,3.95,9.05,8.43,11.54,13.44l4,.8c8.47,7.24,17.44,13.86,26.98,19.63l2.02,3.54,4.08.09c8.69,4.99,17.59,9.69,27.12,12.91l2.8,2.98c1.68.76,2.01,1.43,1,2-14.96,1.58-33.43,1.75-48.54,1.04-8.72-.41-38.3-6.14-43.46-5.03-16.93-4.6-34.45-8.11-51-13.98-7.32-2.6-34.92-16.74-39-16.98-9.01-5.75-19.01-10.22-28-15.98-11-7.04-22.91-15.68-33-23.97-9.13-7.5-20.83-18.41-29-26.97-6.26-6.56-14.21-18.97-21-23.97-1.53-3.18-6.15-10.56-9-11.99-4.72-8.16-10.19-15.85-15-23.97-5.4-9.11-11.5-19.44-16-28.96-3.9-8.25-7.86-18.35-11-26.97s-5.66-16.56-8-24.97c-2.46-8.83-5.31-19.03-7-27.97-1.52-8.01-3.51-20.01-4-27.97-.15-2.34-.59-8.19.98-9.5,14.54-4.91,29.1-9.75,44.02-13.47,28.89-7.21,57.29-10.2,87.07-11.42,7.03-2.73,8.68-6.35,8.93-13.55l-1.98-1.16c.06-1.21-.19-8.99-.64-8.99-30.74-.19-61.5,3.64-91.69,9.19l-8.69-.03c-2.04,1.48-3.44-.59-2.18-3.19,1.4-2.89,20.49-23.51,22.79-24.3.76-.26,1.57-.39,2.38-.48,1.07-4.04,3.85-7.54,8.32-10.47,3.81-4.56,8.04-7.4,12.68-8.5,2.32-6.49,11.21-13.43,18-14.98,5.64-8.41,17.29-15.9,27-18.98l.38-2.59c4.89-1.69,9.09-6.54,8.75-11.84-1.63-25.46-37.79,4.3-44.77,10.8l-5.36,1.63c-5.03,7.73-13.42,14.57-22,17.98-2.5,6.98-10.26,12.81-17,15.98-4.91,9.54-14.08,17.01-23,22.97-3.84,8.73-11.93,17.78-20,22.97-1.33,1.69-2.78,3.2-4,4.99-1.66-2.25-1.2-6.82-1.05-9.54.26-4.5.59-10.03,1.05-14.43s1.33-9.48,2-13.98c.85-5.74,1.86-12.32,3-17.98,1.69-8.37,4.59-19.73,7-27.97s6-18.24,9-25.97c2.5-6.44,6.06-14.72,9-20.97,1.99-4.22,4.81-9.84,7-13.98,1.94-3.67,4.81-8.25,7-11.99,2.54-4.33,5.27-8.77,8-12.98,3.79-5.85,7.89-12.39,12-17.98,3.37-4.59,7.35-9.59,11-13.98,5.59-6.73,13.84-15.69,20-21.97,8.36-8.52,17.82-16.47,27-23.97,5.47-4.47,11.24-8.93,17-12.98,8.12-5.72,16.59-10.99,25-15.98,9.86-5.85,19.53-11.28,30-15.98,16.97-7.61,34.98-14.24,53-18.98,16.12-4.24,32.42-7.12,49-8.99l5-1c1.64-.15,3.35.12,5,0,2.58-.76,5.25-1.09,8-1Z"/>
      <path class="cls-15" d="M381.46,50.82c2.93-.89,6.05-.86,9,0,4.99-.05,10.01-.05,15,0l7,1c1.97.02,4.05-.16,6,0,1.58.68,3.24,1.01,5,1,6.7.76,13.37,1.81,20,3,11.9,2.14,23.38,4.68,35,7.99,16.61,4.74,33.31,10.74,49,17.98,8.09,3.73,17.27,8.54,25,12.98,8.72,5.01,17.76,11.18,26,16.98,5.94,4.17,12.38,8.43,18,12.98,7.52,6.1,15.04,13.23,22,19.98,4.37,4.23,9.94,9.61,14,13.98,5.84,6.28,13.87,15.27,19,21.97,5.87,7.67,11.81,16.79,17,24.97,4.08,6.42,8.37,13.31,12,19.98,3,5.51,6.35,12.28,9,17.98,3.13,6.73,6.34,14.07,9,20.97,3.03,7.86,6.67,17.96,9,25.97,2.21,7.58,4.39,17.19,6,24.97,1.22,5.92,2.3,11.96,3.01,17.98-8.26.9-16.08,4.69-24.01,6.99-18.56,5.39-39.06,10.47-57.99,14.5-13.59,2.89-31.89,4.2-44.25,7.74-3.16.91-4.9,2.12-6.77,4.73l1.04,2.05c-6.03,13.54,6.95,19.97,19.25,16.17,25.06-4.63,50.09-10.18,75.1-16.65l3.61.42c1.48-.39,18.37-4.66,17.99-3.5-.95,1-1.41,2.3-1.99,3.5-4.31,8.9-9.41,18.84-15,26.97l.37,2.95c-1.47,2.65-16.11,20.24-17.48,20.66-.93.28-1.91.34-2.89.36-1.25,4.68-4.37,8.93-9.36,12.74-3.16,4.32-6.71,6.73-10.64,7.24-1.36,5.96-10.85,11.82-17,12.98-.33.87-.7,1.72-1.19,2.5-2.24,3.58-22.86,16.86-27.04,17.42-.91.12-1.84.11-2.77.05l-.45,2.53c-13.84,6.46-27.36,13.28-40.55,20.44,2.59,5.18-6.33,10.95-11.49,9.88-7.07-2.89-12.81-3.01-19.66.56-2.72,1.15-5,1.33-6.85.55-2.43,1.7-4.95,3.39-7.81,4.27-17.86,5.52-36.88,9.85-55.19,11.71l-1.11,2.01c-8.05.36-19.31,1.17-22.5,9.93l-2.39,2.04,1.95,1.29c.56,10.87,11.23,12,20.06,10.1,18.78-3.66,37.4-7.77,55.88-12.35l1.11.96c.59-.7,1.21-1.36,1.9-1.93,5.67-4.57,27.07-8.86,35.1-10.06,9.77-6.85,22.23-12,34-13.98,6.83-6.52,16.68-11.41,26-12.98,4.17-4.73,9.46-8.59,15.89-11.57,6.07-4.85,12.44-8.32,19.11-10.4l1.82-3.77,18.08-14.27,4.09-.93c2.74-6.49,9.35-12.52,16-14.98,2.46-6.97,9.38-15.69,16-18.98l-.05-3.16c5.51-6.92,10.57-14.14,15.09-21.75l2.96-1.06c.22-.37,1.49-1.01,2.2-2.25,1.96-3.45,3.31-7.32,5.3-10.74.83.02.55,11.35.5,12.99-.26,8.67-1.06,17.36-2,25.97-.96,8.77-2.35,17.32-4,25.97-1.46,7.65-3.03,16.52-5,23.97-1.91,7.21-4.57,14.89-7,21.97-1.49,4.32-3.33,8.72-5,12.98-2.98,7.61-6.44,15.63-10,22.97-4.5,9.28-9.66,18.15-15,26.97-4.49,7.42-8.96,14.91-14,21.97-2.81,3.93-6.01,8.19-9,11.99-3.67,4.66-8.21,10.64-12,14.98-3.52,4.03-9.23,10.17-13,13.98-6.38,6.45-16,15.15-23,20.97-8.33,6.93-20.06,15.99-29,21.97s-19.36,10.37-28,16.98l-42,18.98c-8.7-.06-42.02,12.67-55,14.98-2.84.51-20.31,3.18-21.34,2.89-1.93-.54-2.13-3.34-2.66-4.89-3.46-.38-5.5-8.75-3-10.99-5.18-7.26-7.62-16.08-7-24.97-5.11-6.9-8.19-17.46-7-25.97-3.77-3.03-5.08-8.67-3-12.98-3.97-3.95-5.18-11.79-3-16.98-3.28-2.15-5.88-9.79-3-12.98-3.93-4.99-4.7-14.25-2-19.98-3.63-8.61-4.83-21.18-1-29.96l-1.85-2.38,1.9-18.27,1.95-2.32c-.4-6.74-.6-13.71.66-21.15.55-.88,1.34-1.47,2.34-1.82-2.93-1.18-1.11-6.93,2-6.99-1.82-3.25-.84-7,3-7.99l-1.28-2.03c2.46-6.56,8.91-17.2,15.28-19.94l-.25-2.62c3.27-4.87,20.08-16.66,26.25-15.35.32-.68.67-1.33,1.13-1.9,2.32-2.9,13.93-4.93,18.3-5.56,16.88-2.43,30.08,1.04,45.67,5.51,10.14,2.51,19.12-1.33,24.54-10.37l3.36-1.66-.94-2.44c2.49-5.46,4.04-11.22,4.66-17.28l2.29-1.25-1.43-3.03,3.12-19.51,2.31-2.43c-2.2-4.84-1.51-14.3,2-18.98,1.43-10.8.62-23.24-.31-34.55-2.29-6.08-2.7-13.13-.69-19.39-3.4-3.4-4.37-9.78-2-13.98-3.91-5.3-5.73-13.66-4-19.98-4.24-5.34-6.2-13.27-5-19.98-3.75-2.91-5.8-8.44-4-12.98-4.39-3.66-7.04-10.39-6-15.98-4.04-2.36-6.2-7.45-5-11.99-5.01-4.03-8.09-10.55-8-16.98-4.57-2.52-7.5-7.83-7-12.98-5.04-3.84-9.9-11.86-12.83-17.95l-.17-4.02-2.51-.28c-4.79-8.51-10.27-16.51-16.41-24l-.08-2.68c-.85-.92-1.77-1.75-2.77-2.52-4.68-3.59-17.25-18.87-21.32-24.43l-.92-4.02-1.66-.28-30.17-29.53-.16-2.15-3.56-1.1c-7.74-7.85-16.13-14.96-25.18-21.33l-1.26-3.54c-4.31-3.45-8.24-7.53-13-10.49,1.51-.97,4.15-.46,6-.49Z"/>
      <path class="cls-19" d="M420.46,702c1.02,3.44,1.9,7.78,3,10.99-3.72-.05-3.83,3.43-5,4.99-1.57.72-2.98.33-4-1-12.13-3.56-23.21-9.64-34-15.98l.73-2.49c7.6-1.64,15.47-1.84,23.62-.61,7.78-2.25,13-.89,15.66,4.1Z"/>
      <path class="cls-14" d="M418.46,717.98c-1.11,1.47-1.6.85-3,1l-1-2c1.32.39,2.68.64,4,1Z"/>
      <path class="cls-2" d="M90.46,371.42c33.21-7.4,67.3-11.08,101.39-11.05,1.77.48,1.68,10.06,1.61,12.05-1.83.02-3.54.96-5.38.91-13.71-.43-27.93-1.1-42.14-.99-18.64.15-37.87,2.47-55.48.08-.87-.28-.86-.62,0-1Z"/>
      <path class="cls-13" d="M76.46,345.45c6.12-5.21,11.69-6.8,19.54-3.68,2.54-1.44,5.57-1.26,9.1.55,5.34-2.76,8.13-2.39,8.36,1.13-8.63,8.38-16.67,18.7-25,27.47l2,.49v1c-1.28-.17-2.7.13-4,0l2-2.98c-4.72,1.95-10.12-.87-13.71-.76-1.78.06-8.8,2.33-10.95,2.56-1.46.16-4.99-3.16-7.34-2.81,6.39-8.13,12.99-15.41,20-22.97Z"/>
      <path class="cls-49" d="M583.46,367.42c4.17,2.71,5.85.68,8.85.53,21.38-1.02,42.4-.46,63.76.36,7.3.28,16-1.91,22.9-.85,1.86.28,4.05-1.27,3.49,1.95-15.25,4.02-30.3,8.45-45.81,11.68-11.7,2.43-31.4,7.38-42.69,7.38-10.67,0-16.84-12.19-10.5-21.05Z"/>
      <path class="cls-32" d="M388.46,61.8c10.29,8.23,21.62,15.63,30,25.97,1.51,1.91.63,2.91-1.75,3-10.01-2.83-19.39-2.77-28.14.16l-2.11-1.17c-1.89-7.88-4.45-18.42-7-25.97,2.77-1.85,5.68-2.35,9-2Z"/>
      <path class="cls-10" d="M390.46,50.82c-2.99.03-6.01-.06-9,0,1.86-1.68,7.14-1.68,9,0Z"/>
      <path class="cls-10" d="M366.46,50.82c-1.95.12-5.2.8-8,1,1.73-2,5.5-.68,8-1Z"/>
      <path class="cls-10" d="M412.46,51.81c-2.19-.02-5.64.74-7-1,2.19.02,5.64-.74,7,1Z"/>
      <path class="cls-10" d="M423.46,52.81c-1.6-.06-4.15.62-5-1,2.26.19,3.81.86,5,1Z"/>
      <path class="cls-10" d="M353.46,51.81c-.85,1.62-3.4.94-5,1,1.17-.13,2.8-.8,5-1Z"/>
      <path class="cls-41" d="M712.46,397.38c-6.15,10.39-10.42,16.46-18,25.97-9.9-.43-19.95-.65-30.15-.65l-.85-2.34c6.31-6.87,14.8-16.41,20-23.97,9.78,0,19.45-2.45,29,1Z"/>
      <path class="cls-41" d="M227.46,398.38c-.4-4.31.47-5.12,4.71-4.1,2.95-2.26,6.52-2,10.71.78l3.87-1.47c9.86,1.54,19.23,1.11,28.11-1.29,8.54,2.06,16.63,2.07,24.28.04,2.53,1.74,5.54,2.1,9.03,1.09,4.13,2.62,10.87,3.17,13.58-1.35l2.41-.48c3.46,4.3,7.79,3.98,12.65,1.35,2.74-.93,5,0,6.73,2.25,3.75-2.46,10.5-2.6,12.91,1.19l2.58,1.15c9.72,22.01,44.31,22.3,53.87.03l2.55-1.17c1.05-1.25,2.43-1.42,4.16-.53,10.5-2.16,21.18-2.61,32.03-1.35,4.34-2.21,6.57-2.92,10.48.54,11.1-2.35,21.53-1.15,32.66.29,3.62-3.04,5.59-4.11,8.98.02,3.37-.92,6.41-.68,9.11.71,3.44-2.78,7.49-2.99,12.15-.63l12.17-2.02c1.34-.03,2.26.86,3.1,1.81,5.5-2.88,7.89-2.16,7.16,2.17-1.07,9.13-2.14,15.98-4,24.97-5.98,2.33-14.52,4.4-21.46,2.58-1.41-.37-2.7-1.47-3.17-2.84-7.91,2.64-15.59,3.17-23.05,1.6-2.92,2.15-5.27,1.99-7.93-.37-3.25,2.16-5.28,2.54-8.47-.19-4.18,2.2-9.33,2.12-15.45-.25l-8.98,2.37c-6.35-3.3-11.32-3.18-17.62.13-5.47-2.46-9.86-2.67-13.17-.62-7.47.71-15.02-.03-22.67-2.22-4.05,2.84-7.55,2.92-10.5.24-11.73,1.85-23.41,2.12-35.01.82-5.79,2.01-11.17,1.67-16.13-1.02l-9.57,3.53c-10.67-1.51-21.33-2.45-32-2.8-2.77,2.19-6.18,1.89-10.24-.91l-10.2,2.73c-4.77-2.06-6.78-2.45-11.6,0-7.27-2.51-13.69-2.16-19.24,1.04-5.72-1.17-11.23-2.44-16.54-3.82-1.17-8.05-2.08-15.93-3-23.97Z"/>
      <path class="cls-13" d="M223.46,350.44c-2.62-8.59,1.42-13.55,9.77-8.4l7.03-1.64c2.56,1.11,5.03,1.15,7.41.13,29.36.4,58.94,1,88.73,1.8l13.17-1.98c3.88,1.41,7.52,1.13,10.94-.83l12.93,2.53c3.15-2.35,5.76-3.73,9.21-.85,9.64.7,19.39.26,29.01-.51,3.55,1.33,7.15,1.34,10.8.05l6.25,1.39c3.59-1.72,6.87-1.93,9.82-.64,3.63-1.92,7.67-2.72,11.08.1,3.68-2.68,8.14-2.51,13.38.53,13.09-1.17,26.12-1.67,39.33-.98,3.82-2.15,9.63-3.5,11.39,1.58,5.44-1.19,10.69-1.36,15.74-.49,1.77-2.52,4.05-3.22,6.29-.9,2.02-.33,12.44-.6,13.19.83,1.56,2.94,1.19,14.6,1.04,18.77-.02.5-.24.99-.51,1.48.02.78-.13,1.97-.62,2.02-13.01,1.14-27.36.82-40.39.19-6.11,1.5-11.84,1.41-17.18-.24-3.58,2.11-7.75,3.72-10.11-.82-21.06,2.84-43.73,2.65-64.77.69-2.74.78-5.05.83-6.92.17l-2.72.04c-12.88-12.03-35.42-10.15-45.6,4.41l-2.68.55c-1.58,2.32-4.32,2.49-8.22.5-3.96,2.9-9.09,3.09-15.39.58-4.54,2.88-8.47,2.98-11.77.28-3.66.71-6.35,1.15-9.4-1.45l-8.73,2.86c-17.71-.1-35.3-.61-52.77-1.55-2.49,2.73-6.42,2.69-11.81-.15-3.02,1.73-4.57,2.36-7.6-.05-4.09,2.04-6.86,2.03-8.31-.03-.46-6.87-1.13-12.8-1-19.98Z"/>
      <path class="cls-21" d="M223.46,324.47c3.79-5.32,5.35-5.71,11.54-2.77,9.05.32,18.18-.08,27.37-1.2,4.8,1.84,8.81,1.79,12.05-.14,10.19,1.45,20.54,2.16,31.04,2.12,10.39-.3,19.04,1.45,30-1,3,1.73,6.12,1.48,9.38-.74l4.08.68c3.47-2.93,5.99-1.44,8.99,1.09,5.93-3.33,10.44-3.58,16.47-.45,4.8-3.53,7.93-3.37,9.4.46,9.27-2.41,21.33-2.22,31.19-1.74,5.34,2.45,8.23,1.9,13.35-.18,9.4,2.04,21.32,2.89,30.57.05l9.39-.46c2.43,3.07,6.95,3.2,13.56.39l15.24,2.04c2.39-2.15,5.69-2.27,9.88-.38,11.46-.47,22.96-.89,34.48-1.26,3.73-.14,6.07,1.03,7.02,3.5,1.8,16.12,2.22,32.22,2.02,48.45-.02,1.69.64,4.44-1.02,5.48-2.7-1.25-2.72-2.75,0-4-2.77-3.65-2.8-8.35,0-11.99-.08-5.9.27-11.87-.22-17.76-2.45-2.42-4.44-1.08-7.02-1.4-4.84-.59-2.4-.28-6.41.03-1.35.1-2.27-1.6-2.86-1.62-.81-.03-1.78,2.29-3.1,2.55-1.17.24-3.78-1.01-5.88-.86s-9.59,2.19-11.34.97c-1.42-.99-.36-4.34-6.43-2.64-4.86,1.36-1.11,1.65-7.25,1.3-6.94-.39-8.52.91-16.25-.39-5-.84-12.98,2.51-19.5,1.6-2.39-.33-6.33-2.85-9.33-2.67-2.27.14-2.85,2.47-3.94,2.9-1.76.7-1.15-1.51-2.21-1.93-6.17-2.42-8.06,1.73-8.75,1.72-.51,0-1.65-1.81-3.88-1.77-1.92.03-4.24,1.56-6.29,1.66-2.34.11-5.86-1.78-8.03-1.42-1.7.28-2.93,2.02-4.78,1.81-.4-.05-.92-2.4-6.88-1.69-6.34.76-20.28,1.04-26.98.29-.95-.11-1.92-1.55-3.17-1.63-2.15-.12-3.7,2.46-5.01,2.58-1.82.17-10.91-2.73-14.08-2.54-2.14.13-2.89,2.58-3.91,2.67-.56.05-2.95-1.66-5.02-1.8-5.12-.36-11.13,2.08-15.05,1.94-18.6-.69-38.24-2.4-57.12-1.24-3.95.24-4.86.69-8.83.57-7.24-.22-14.19-2.1-21.94-1.16-1.92.23-3.67,2.05-5.02,2.01-.51-.02-.44-1.95-1.16-2.1-2.35-.47-6.45,1.85-8.9,1.61-3.52-.35-1.86-3.78-8.01-1.17-.51.22-1.4-.46-1.44-.4-.33.58.02,6.34-.01,7.99-1.66-1.04-1-3.79-1.02-5.48-.08-6.66-.64-14.08,1.02-20.49Z"/>
      <path class="cls-16" d="M230.46,422.35c4.72-2.77,14.49,2.4,17.38,1.78,1.16-.25,1.79-2.15,4.08-2.66,3.92-.88,11.18,1.41,14.21,1.7,1.12.11,3.01-1.96,5.83-1.96s4.47,2,5.85,1.94c2.03-.08,8.66-2.63,10.12-2.74,2.56-.19,4.89,2.58,6.22,2.75,1.26.16,2.33-1.65,3.84-1.82,9.48-1.09,23.13,2.58,32.14,2.78,1.63.04,7.7-3.46,9.62-3.52,2.69-.08,5.64,2.7,7.21,2.7.98,0,5.92-1.64,8.95-1.7,3.96-.08,13.58,1.56,16.01,1.31,6.02-.62,12.74-2.7,19.08-2.14,1.72.15,2.79,2.05,3.95,2.18,1.99.22,4.9-2.6,6.83-2.39,5.65.6,15.8,4.14,21.69,2.33,1.43-.44,2.66-2.24,3.66-2.4.56-.09,7.97,2.93,10.89,2.93,1.79,0,1.22-1.75,2.07-2,.44-.13,8.02-.64,8.86-.67,1.66-.06,3.78,2.53,6,2.52,1.97,0,5.39-2.38,9-2.39s8.48,2.5,11.04,2.36c1.97-.11,3.86-2.79,4.97-2.69.92.08,1.9,2.4,3.13,2.65,1.44.29,3.14-1.92,4.86-1.85,1.45.06,2.53,1.94,4,1.96,1.2.02,2.24-1.42,3.51-1.58,3-.38,4.88,1.38,6.27,1.34,4.91-.15,13.17-2.58,17.23-2.84,1.85-.12,1.35,2.62,4.17,2.89,1.55.15,8.58.42,9.82.32,3.31-.28,5.7-3.55,10.49-1.1-1.73,8.36-1.55,13.19-6,20.97-6.01,3.9-15.27,3.24-22.06.99-5.92,1.63-11.39,1.29-16.42-1.02-3.46,4.16-6.33,4.55-8.59,1.15-14.77-.37-29.41.17-43.92,1.6-2.33-2.23-5.89-2.45-10.69-.68-4.84-2.29-10.43-2-16.78.88-11.66-1.93-23.01-2.12-34.97-2.08-30.84.9-62.07,1.38-92.7.37-2.26,1.62-5.61,1.48-10.06-.43l-20.58,1.72c-7.7-1.29-14.27-1.6-22-.72-2.98-.08-4.19-.98-5.23-3.79-1.09-6.38-2.07-12.56-3-18.98Z"/>
      <path class="cls-5" d="M236.46,457.31c.74-5.03,9.52-7.15,13.92-3.97,8.43-1.32,16.81-1.11,25.15.62,2.98-2.7,6.6-2.99,10.86-.87,14.36.13,28.72-.15,43.06-.85l10.21,1.56c3.06-2.68,7.51-2.57,13.35.32,6.52-2.54,12.6-2.79,18.23-.75,22.54.7,44.94.49,67.2-.63,3.15.31,7.23.79,6.02,4.56-8.3,3.51-19.92,11.37-26,17.98-3.16,2.95-5.99,3.37-8.51,1.24-8.6,1.35-17.36,1.03-26.3-.95-1.84,1.88-3.8,3.07-6.54,2.83l-15.04-2.18c-5.15,2.56-8.76,2.4-10.82-.48-10.98,2.31-24.82,3.34-35.54-.4-8.06,2.18-16.74,2.25-26.04.2-6.83,2.61-13.94,2.84-21.35.67-1.7,2.27-4.51,2.26-8.45-.02-5.86.62-11.71,1.08-17.53,1.37l-1.89-1.28c-1.47-6.42-2.72-12.51-4-18.98Z"/>
      <path class="cls-1" d="M255.46,529.22c1.35-.95,3.24-1.03,5.68-.23,6.19-2.52,11.2-2.31,15.04.64,3.27-1.35,6.98-1.63,11.15-.84,3.83-3.03,6.47-3.12,7.92-.28,26.48-.19,53.34-.07,80.6.36l13.66-1.49c6.93.11,8.58.68,6.95,7.85.38,7.77-1.69,15.64-2,22.97-2.2,2.7-4.48,3.89-6.84,3.58-4.91-3.61-12.23-3.48-17.26-.44-4.33-.09-8.42-.36-12.52-2.25-3.39,1.72-6.46,1.77-9.21.15-12.66-.74-25.59.03-37.83,1.5-1.29-2.12-4.14-2.04-8.52.26-7.27-.9-14.61-1.42-22.01-1.56-4.59,2.08-9.39,1.66-13.81-.22-4.37-10.5-7.38-19.29-11-29.96Z"/>
      <path class="cls-27" d="M542.46,290.52c1.45,6.68,2.96,13.2,4,19.98-.99,3.25-4.24,4.31-9.75,3.18l-11.23-1.96c-19.32,1.7-38.3,2.42-57.45-.19-3,.76-6.01,1.6-9.02,2.53l-16.83-2.18c-3.83,3.91-6.01,2.32-9.69-.49-3.11,2.77-6.87,3.24-11.27,1.4-2.93.71-5.85,1.28-8.77,1.71l-10.48-1.91c-10.64.91-21.29,1.32-31.93,1.24-4.51.04-7.04-1.4-7.58-4.34,5.72-4.11,15.04-14.09,19-19.98,2.98-2.31,6.73-3.6,10.1-1.15,2.97-2,6.04-2.83,8.9-.12,2.34-2.06,4.65-2.47,7.06-.22l2.97-1.1c11.68,2.92,25.18,2.12,36.99-.13,7.83-.02,15.57.88,23.21,2.69,4.47-2.29,8.57-2.57,12.31-.83,5.29-2.09,8.05-2.26,13.11.69,5.64-2.8,17.12-3.17,22.25.1,4.82-3.28,8.89-3.95,12.21-2.02,4.59-1.22,8.23.68,11.86,3.1Z"/>
      <path class="cls-55" d="M240.46,476.28c4.85-2.75,8.46-1.08,13.43-1,1.94.03,3.92-1.15,6.06-1.07,2.57.09,4.48,2.15,5.99,2.13.59,0,.06-2.15,1.95-2.14,3.5.02,9.02,1.88,12.91,1.71,3.18-.14,6.99-2.39,8.97-2.36,5.56.08,15.45,2.24,21.19,1.58,1.97-.23,3.55-1.85,5.01-1.82,1.1.03,3.12,1.73,5.92,2.04,5.02.56,19.11.02,24.82-.3,1.6-.09,4.54-1.69,5.32-1.56,1.08.18,1.04,2.69,2.07,2.88,1.66.31,5.3-2.03,7.88-2.13,4.4-.16,12.81,3.12,17.78,1.9,1.32-.33,2.14-2.42,3.17-2.54,2.4-.26,14.63,2.11,17.99,2.22,2.71.08,7-1.4,9.26-1.26,1.57.09,2.47,1.6,3.85,1.77,2.28.28,3.55-2.74,4.43-1.04-4.58,4.97-11.3,15.73-14,21.97-3.6.4-7.38,1.05-11.33,1.95-13.14-2-24.62-2.17-37.49.73-3.74-2.6-7.92-2.83-12.55-.68-10.13-2.03-19.46-1.82-27.97.62-2.52-2.86-4.86-2.86-7.04.01l-4.4-1.8c-15.43-.15-30.81.35-46.13,1.49l-5.44-2.26c-2.15,4.32-5.07,2.34-6.65-1.06-1.8-6.74-3.44-13.16-5-19.98Z"/>
      <path class="cls-53" d="M233.46,441.33c5.74,3.54,10.91.91,16.49,1.02,2.82.06,6.02,1.41,9.04,1.49,7.21.19,17.56-2.49,24.89-1.53,1.68.22,3.1,2.37,4.99,2.1.93-.14,1.16-3,2.07-3.06.23-.01,1.73,1.53,3.14,1.68,12.34,1.37,24-.46,35.88-.5,10.62-.04,20.61,1.01,31,.6,10.9-.43,22.13-1.63,32.84-.46,5.98.65,2.96.21,8.15-.43,4.7-.58,12.7,2.24,16.94,2.03,2.48-.13,9.96-2.96,12.07-2.9,1.39.04,2.54,1.75,4.08,1.98,2.57.39,6.43-1.58,9.99-1.1,1.92.26,1.35,2.08,2.01,2.1,3.95.15,9.88-2.54,14.96-1.83,8.83,1.24,8.95.12,16.9-.16,2.52-.09,9.71-.44,11.85.1,1.4.35,2.77,2.85,3.22,2.85.68,0,2.7-3.93,4.98-3.97,1.4-.02,3.61,1.75,6,2.03,3.83.46,7.92-1.3,10.99-1.02,2.48.22,4.79,1.73,6.26,1.77,4.78.13,10.4-1.06,15.28-.79-15.09,26.4-33.96,9.57-54.46,7.95-13.39-1.05-26.21.81-38.54,6.03-3.12-4.25-12.48-2.05-17.4-2.09-16.7-.16-39.88,1.84-56.12.14-2.43-.25-4.18-1.86-5.94-1.93-3.01-.11-8.44,2.72-12.05,2.69-3.19-.03-7.91-2.9-9.92-2.85-.63.01-.6,1.66-1.28,2.06-2.6,1.53-8.73-1.15-12.81-1.09-14.72.24-28.01,1.5-42.74.84-1.91-.09-4.22-1.74-6.12-1.51-1.74.22-3.15,2.37-4.13,2.41-1.48.06-9.01-1.76-12-1.76-3.74,0-10.57,1.49-13.91,1.08-1.84-.22-3.31-1.9-4.92-1.77-1.51.12-6.87,2.87-8.67,3.78-1.06-5.39-2.07-10.54-3-15.98Z"/>
      <path class="cls-59" d="M358.46,369.42l1.12,2.2c-2.95,7.16-3.36,15.3-1.63,22.8l-1.49,1.97c-2.38.18-6.38-1.21-8.43-.94-1.86.24-3.77,2.04-4.92,1.8-1.36-.28-1.9-2.69-3.94-2.68-4.19.02-5.88,4.48-13.5,1.13-1.59-.7-.88-2.35-1.71-2.33-2.46.07-1.89,2.85-3.19,3.08-.65.12-7.39,1.04-7.8,1.04-2.21,0-3.38-1.88-5.08-2.12-2.33-.33-4.79,1.44-6.77,1.05-.71-.14-.6-1.99-1.27-2.09-2.06-.3-5.65,1.96-8,2-3.7.06-12.15-2.07-16.89-2.05-3.26.01-4.83,1.87-7.07,2.09-5.63.56-14.79-.92-20.95-.81-1.61.03-2.89,1.42-3.97,1.44-1.52.02-5.88-2.8-7.93-2.65-.6.04-.46,1.91-1.24,2.07-1.74.35-6.78-2.31-6.33,1.96-1.06-9.22-2.36-18.41-3-27.97,2.66.33,6.35-2.09,8.55-1.92,1.52.12,2.53,1.96,3.76,1.75.81-.13,1.66-1.61,3.13-1.73,2.82-.24,8.58,3.03,9.04,2.91,1.05-.25,1.14-2.96,2.11-3.04s3.65,1.2,5.91,1.13c15.84-.51,31.12.53,46.96.74,3.49.05,8.24-3.05,9.96-2.87,1.46.15,2.6,1.84,4.16,2.05,1.83.25,3.49-.99,5.45-.58,1.37.28,2.86,2.1,4.47,2.17,2.15.09,3.83-2.11,5.98-2.44,3.76-.56,8.14,2.56,12,1.84,2.18-.41,3.05-2.58,4.02-2.69.44-.05,6.68,2.56,8.5,1.69Z"/>
      <path class="cls-34" d="M266.46,559.18c2.2-2.39,5.59-.14,8.25-.23,1.73-.06,3.88-1.56,5.45-1.54,3.29.05,7.38.83,11.78.55,6.07-.39,6.45.76,10.18,1.02.99.07,7.3-2.91,7.8-2.81,1.04.22,1.14,2.91,2.18,3.08,1.37.21,4.81-1.4,6.86-1.6,7.09-.71,22.74-.87,29.94-.42,1.54.1,3.07,1.62,4.03,1.57s2.23-1.82,4.99-1.72c2.37.08,3.95,1.83,5.21,1.95,1.63.15,2.68-2.21,3.3-1.84.07.04-.18,1.24.33,1.62,3.03,2.28,3.49-.61,5.87-.97,1.65-.25,8.02-.82,9.32-.75,2.75.13,5.65,3.23,7.92,3.14.3-.01,1.83-4.36,4.57-2.04-.43,10.1.21,19.96,1,29.96-1.44.89-2.43.69-2.66-.93-10.86.13-21.78.73-32.76,1.81l-8.96-2.47c-5.25,2.57-11.32,2.9-18.21,1.01-19.03,1.89-36.83,1.75-53.42-.42-4.94-9.63-8.83-17.93-13-27.97Z"/>
      <path class="cls-58" d="M537.46,270.54c1.92,6.65,3.53,13.21,5,19.98-3.49,1.9-5.26-1.35-7.46-1.56-1.22-.12-2.76.67-4.79.4-1.19-.16-2.42-1.59-3.44-1.69-.69-.07-6.2,4.18-9.75,3.88-.63-.05-.51-2.02-1.13-2.07-.8-.06-15.06-.03-15.85.09-1.57.25-2.48,1.73-3.93,1.73s-5.8-2.69-6.97-2.57c-1.67.17-3.15,1.94-6.2,1.9-2.77-.03-4.92-2.11-5.81-1.97-1.07.17-2.3,2.06-3.63,2.44-5.68,1.59-13.14-2.39-16.73-2.38-3.19,0-1.4.95-7.05.13-3.36-.49-6.67,1.07-8.94,1.29-8.48.81-16.96.34-25.58.14-1.63-.04-3.94-1.57-5.28-1.39-1.28.17-2.49,2.62-2.96,2.61-.83-.01-1.19-2.94-2.08-3.06-1.98-.26-3.11,1.75-4.12,1.91-1.24.2-2.37-1.69-3.86-1.86-2.26-.26-3.64,1.67-5.11,1.82s-2.57-1.31-3.8-1.37c-2.05-.1-4.37,2.04-6.53.57,3.89-5.79,8.05-14.3,10-20.97.95-1.92,3.41-2.29,7.37-1.11,3.83-1.88,8.37-1.55,13.6.99l31.52-2.49c7.53,2.03,11.13,2.78,18.81-.13,5.21,2.7,10.05,2.64,14.52-.17,11.38,3.69,25.48,4.64,36.57,0l10.32,2.47c6.51-1.71,10.94-.89,13.29,2.45Z"/>
      <path class="cls-37" d="M249.46,510.24c2.19-2.45,5.73-3.45,10.63-2.99,17.56,1.08,35.3.95,53.22-.39l4.83,1.4c2.02-2.01,4.04-2.86,5.82-.42,16.12-.6,32.3-.73,48.54-.38,2.23,2.84,5.8.33,7.73-1.84,3.06-.13,6.16.78,9.32,2.72,3.44-.9,9.74-.27,9.91,3.9-1.43,7.29-.9,15.74-3,22.97-.05-1.1.2-4.81,0-5-.27-.26-6.91-.9-7.56-.87-3.69.15-8.87,1.53-13.83,1.53-15.74-.03-32.86-.72-49.09-.7-5.65,0-28.38,1.4-31.77-.03-.89-.37-.86-1.96-1.3-1.97-1.84-.03-3.07,2.01-4.44,2.41-2.67.76-6.74-.55-9.27-.19-1.38.19-2.85,1.91-4.2,1.9-.83,0-.41-2.63-3.05-3.12-4.61-.86-10.84,4.48-16.5.06-2.17-6.41-4.1-12.56-6-18.98Z"/>
      <path class="cls-31" d="M475.46,150.69c5.3,3.73,15.02,20.71,19,26.97,0,2.31-1.76,3.23-5.3,2.75-6.79-1.37-11.82-.12-18.35,1.87-2.1-1.72-4.32-2.74-6.68-3.08-10.98,1.26-23.09,2.18-34.34,1.52-3.35-.2-5.76-.35-8.5-2.54-6.41,2.1-13.36,3.14-20.85,3.12.91,6.91.25,13.02-1.99,18.33,2.98,1.63,2.17,9.96-1,10.99-.48-14.44.63-29.05.04-43.49-.22-5.36-.59-12.1-1.04-17.44.37-3.62,2.87-4.02,7.51-1.21,9.81-2.3,19.63-2.66,29.46-1.05,4.44-1.76,8.53-1.68,12.28.22,2.5-1.76,4.66-2.58,6.99-.11,2.7-2.63,6.19-2.89,10.47-.78,5.39-1.39,9.48-.08,12.29,3.93Z"/>
      <path class="cls-57" d="M362.46,309.49c1.71.29,2.7,1.46,4.47,1.83,10.96,2.28,23.69-.96,35.13-.72,3.06.06,8.64,2.21,10.78,1.95.77-.09.22-2.88,3.12-2.08.39.11.55,2.08.95,2.02.82-.11,2.37-1.57,4.17-1.68,2.19-.13,5.31,1.53,6.92,1.29,1.17-.18,1.96-2.44,4-2.67,3.01-.33,3.89,3.14,5.78,2.93,1.54-.16,3.05-2.45,4.2-2.52,4.1-.23,13.14,2.15,16.96,2.22,2.31.04,5.5-2.4,8.08-2.51,6.79-.29,15.52,1.47,21.97,1.91,11.33.77,24.11-1.71,35.95-1.76,6.73-.03,14.02,4.41,21.5.78.71,4.59,1.49,9.39,2,13.98-6.55-2.11-14.39-2.13-21.26-1.75-1.67.09-3.39,1.58-5.31,1.68-4.6.26-5.99-.94-12.23-.23-5.13.59-7.75-1.69-9.7-1.74-.63-.02-.4,2.01-1.11,2.11-4.12.58-13.25-2.43-17.89-1.93-4.15.45-6.62,3.55-12.31,1.18-1.46-.61-.95-2.43-1.71-2.35-1.44.15-2.18,1.58-3.13,1.75-1.25.22-2.85-.91-4.62-.59-3.62.66-4.48,2.51-10.28,1.75-7.52-.99-8.6.01-14.8-.22-2.01-.07-4.36-1.68-6.2-1.58-1.6.09-2.9,1.98-5.94,2.02-4.28.06-6.02-2.82-11.79-1.9-6.11.97-7.11-.55-12.11-.08-5.74.54-4.7.67-10.13.23-1.38-.11-3.2,2.73-5.52,1.16-.69-.47-.65-2.47-1.55-2.61-1.98-.31-4.22,2.38-6.3,2.62s-4.81-2.28-7.58-2.37c-3.47-.11-7.57,2.79-9.04,2.81-1.84.02-3.51-2.73-5.15-2.83-1.26-.08-2.21,1.59-3.79,1.74-1.03.1-2.32-.95-3.8-.68-3.39.62-5.99,5.55-9.75-1.21,6.91-1.54,21.23-7.84,27-11.99Z"/>
      <path class="cls-45" d="M279.46,587.15c-.48-3.15,1.27-1.9,3.19-1.71,3.06.3,7.6,1.75,10.32,1.72,12.69-.15,26.05-1.85,39.46-1.61,2.62.05,11.18,1.58,13.38,1.36,1.67-.17,3.31-2.2,5.12-2.32,2.79-.18,6.48,2.87,10.04,2.4,8.4-1.09,15.68-1.37,24.1-1.49,1.96-.03,6.86-.38,8.14-.22,2.15.28.95,1.63,2.24,2.86.52,6.56,1.01,13.49,2,19.98-4.32,1.07-8.85,1.99-13.58,2.76-7.95-1.26-16.17-2.34-23.66-.09-2.54-1.09-5.43-1.91-8.67-2.48-17.03,2.48-34.84,4.37-51.81.76-2.68.9-5.11,1.25-7.29,1.04-4.88-8-8.69-14.58-13-22.97Z"/>
      <path class="cls-56" d="M320.46,236.58c-.79-1.11-6.4-2.35-7.3-2.08-2.06,2.77-6.05,4.68-8.43,1.37-2.14,1.9-4.11,1.37-6.3-.14-8.63,2.18-16.8,1.78-24.52-1.2-7.84,2.24-31.97,3.61-38.11.73-.62-.29-.47-1.72-.33-2.67,27.33-11.68,56.99-19.48,86.62-22.85,7.85-.89,24.79-3.01,31.9-2.14,11.79,1.44,17.05,16.99,6.97,23.99-6.4,4.45-17.5,2.32-24.99,3-5.12.47-10.39,1.36-15.51,1.99Z"/>
      <path class="cls-22" d="M527.46,241.58c2.05,5.32,4.2,10.56,6,15.98l-1.96,1.54c-21.83.16-43.94.11-66.34-.16l-10.59,1.21c-20.41-.99-40.79-1.52-61.12-1.59,1.03-5.9,1.62-12,2-17.98.28-.87.62-.86,1,0,2.51-1.55,5.79-2.01,9.84-1.38,10.23-2.2,19.76-1.84,28.6,1.08,3.93-2.01,8.68-2.22,14.24-.62,15.13-1.28,30.31-1.34,45.55-.17,6.68-2.17,10.11-3.16,16.6.04l13.93-.68,2.24,2.73Z"/>
      <path class="cls-7" d="M450.46,119.73c8.78,9.84,18.16,19.58,25,30.96-5.8-4.07-7.04-1.65-12.46-1.94-2.15-.11-4.84-1.78-6.04-1.67s-2.69,2.37-4.16,2.47c-1.3.09-2.18-1.55-3.03-1.69-1.27-.21-2.29,1.69-3.78,1.78-1.61.1-3.44-1.51-5.16-1.64-2.42-.18-5.5,1.64-7.75,1.39-4.55-.52-8.43-1.22-12.69-1.24s-12.78,2.33-16.63,2.29c-1.95-.02-4.29-3.49-7.3-.76-.85-10.05-2.33-21.81-4-31.96.16-2.7,5.44-2.13,7.6-1.7,6.06,3.67,11.46,4.02,16.21,1.04l15.49,1.19c6.92-3.88,12.22-1.98,18.7,1.46Z"/>
      <path class="cls-51" d="M406.46,651.07c2.05,8.66,4.69,17.36,7,25.97-1.81,1.95-4.77,2.73-8.89,2.34-4.17,1.72-7.59,1.27-10.26-1.35-15.45,2.8-31.59,1.21-46.85-.99-9.34-8.12-16.87-15.64-25-24.97l.78-2.31c17.08.83,34.34,1.29,51.78,1.38,7.96-3.04,13.89-2.02,21.78-.11,4.88-2.48,8.1-2.47,9.65.04Z"/>
      <path class="cls-56" d="M514.46,212.61c2.82,5.63,5.46,11.21,8,16.98l-1.4,1.78-13.99-1.84c-2.79,1.68-5.16,1.85-7.12.51-2.57,2.02-5.76,1.74-9.57-.81-3.04-1.44-5.7-1.31-7.98.4-8.63-.83-17.84-1.41-26.38.72-6.6-1.95-12.29-1.53-17.08,1.26-8.72-1.26-17.48-1.74-26.31-1.44l-2.61-1.41c-3.03,5.48-9.2,3.15-13.57.84.04-6.29.7-11.84,1-17.98,3.23-2.95,10.98-1.25,14.84.87,3.27-3.14,7.35-3.39,12.24-.77,10.1-2.04,20.61-2.11,31.54-.24,18.76-.85,37.45-1.13,56.09-.84l2.29,1.97Z"/>
      <path class="cls-38" d="M533.46,257.56c1.39,4.18,2.78,8.75,4,12.98-4.78-2.92-7.9.08-13.52-.47-2.12-.21-8.74-2.49-9.96-2.49-1.5,0-3.88,2.42-6.44,2.49-5.82.17-14.35.76-20.56.23-3.21-.27-8.03-2.8-10.04-2.7s-3.22,2.44-5.09,2.67c-2.67.33-6.72-2.39-9.07-2.5-1.25-.06-7.7,2.39-9.79,2.39-2.85,0-5.36-2.19-7.01-2.23-9.34-.2-23.56,1.98-32.95,2.48-3.04.16-8.09-2.66-10.23-2.68-1.38,0-2.28,1.6-3.78,1.66-1.93.08-5.36-.8-7.54-.86.86-2.93,1.46-6.9,2-9.99,1.15-2.43,1.26-1.62,3.17-1.73,5.96-.33,13.17.53,19.21.42,13.58-.23,24.45-1.07,38.1.85,2.56.36,8.26-1.18,11.19-1.16,14.7.1,30.21-.57,43.78.68,7.47.69,17.08-2.46,24.56-.06Z"/>
      <path class="cls-52" d="M396.46,229.59c2.39-1.96,8.97,1.08,9.45.98.95-.2,1.54-3.83,4.21-3.78,1.31.03,2.14,1.38,2.87,1.42,10.21.56,13.72-1,26.03,1.42,1.81.35,1.21-1.83,2.11-2.03,5.33-1.18,10.48.23,14.99.75,1.58.18,4.1-1.38,6.41-1.41,6.55-.1,8.25.68,15.56-.06,1.51-.15,3.25,1.05,4.75.78.75-.14.52-2.13,1.13-2.1.35.02,5.56,1.36,6.59,1.62,2.08.53,5.72,3.25,7.68,2.14.27-.15.26-1.77.74-1.78,1.52-.03,2.9,1.78,3.96,1.7.78-.06,1.86-1.6,3.97-1.7,3.96-.18,11.47,1.33,15.55,2.05,1.77,4.02,3.41,7.87,5,11.99-1.73-1.59-3.64-.14-5.34-.35-5.67-.69-6.56.53-11.02.28-2.57-.14-6.45-2.55-7.14-2.54-1.31.02-6.57,2.64-9.91,2.52-14.15-.5-28.14-1.76-42.17,0-6.16.77-9.54-1.52-13.98-1.01-1.92.22-1.39,2.14-1.98,2.15-1.34.01-5.29-2.4-8.11-2.7-9.02-.97-21.24,2.81-31.35.65-.98-2.15-.74-5.52,0-7.99,0-1,0-2,0-3Z"/>
      <path class="cls-20" d="M400.46,621.1c1.04,5.61,1.8,11.4,3,16.98-1.36,1.78-4.15,2.2-8.38,1.27-7.91,4.52-12.53,4.11-13.86-1.24-2.95,3.5-7.51,3.57-13.69.24-4.26,2.61-8.96,2.9-14.1.86-4.6,2.82-10.44,2.8-17.51-.06-4.95,1.95-8.87,3.22-13.16-.81-2.1,2.8-5.87,2.71-11.3-.27-3.87-5.02-7.44-9.71-11-14.98-2.02-4.6,2.54-4.34,5.68-2.42l70.51-2.26c4.38.08,8.67.88,12.88,2.41,5.84-3.64,9.48-3.55,10.94.27Z"/>
      <path class="cls-47" d="M418.46,87.77c3.82,0,27.81,27.27,32,31.96-3.1,1.65-8.03-1.79-10.43-1.85-3.04-.07-6.36,2.23-8.08,2.38-3.11.26-12.92-1.92-16.61-1.02-1.52.37-2.39,2.32-4.19,2.29-2.01-.04-9.13-2.53-11.45-3.55l-7.23-.24c-1.49-9.1-3.85-18.96-6-27.97,2.82-1.53,6.33-2.78,9.54-3.02,6.47-.49,13.88.94,20.1,1.99,2.22.37,2.24-.97,2.37-.97Z"/>
      <path class="cls-39" d="M398.46,199.63c.79-3.9,4.23-4.02,10.32-.37,4.31-1.5,8.05-1.47,11.22.08,14.05-2.14,26.83-3.63,41.25-.8,6.17-2.31,11.81-2.26,16.92.16,6.28-2.74,11.72-2.72,16.32.04,1.92-2.85,4.69-2.63,7.3-.82,3.04-1.82,3.71-.99,5.66,1.7,2.38,4.33,4.78,8.55,7,12.98-6.24-.05-13.38,1.03-19.5.51-3.24-.28-7.91-.96-10.99-1.02-10.54-.2-20.61,1.77-31.01,1.3-6.72-.3-13.76-1.99-20.88-1.45-2.56.19-4.55,2.01-8.12,1.73-2.45-.19-4.35-2-6.01-2.01-2.46-.01-3.99,2.87-5.82,2.75-.98-.06-2.65-1.49-4.31-1.75-3.47-.55-6.94-.22-10.37-1.06.02-.33-.02-.67,0-1,.15-3.07.87-7.11,1-10.99Z"/>
      <path class="cls-72" d="M292.46,610.12c1.34-.83,2.48-1.92,4-2.48,5.24-1.91,10.62,1.68,16.48,1.44,7.68-.3,12-.39,19.81-.25,4.11.08,15.89-3.13,20.05-2.42,2.59.45,2.65,2.71,7.15-.31.82,5.99,2.52,1.71,4.99,1.49,7.15-.62,11.75.25,18.22,1.29,2.16.35,10.41-3.56,14.3-.77.63,4.16,2.21,8.71,3,12.98-4.21-3.41-7.61,1.59-10.27,1.73-2.93.15-7.05-2.12-9.19-2.25-9.77-.59-28.13.33-37.98.98-8.11.53-14.06.64-21.95.45-5.57-.14-9.91.63-15.15.65-1.73,0-4.04-3.43-5.45.45-3.1-4.6-5.2-8.4-8-12.98Z"/>
      <path class="cls-40" d="M235.46,232.59c2.05,2.11,5.54,1.64,8.38,1.65,6.49.01,12.95-.29,19.15.29,5.98.57,7.6-1.87,10.91-1.99s5.85,2.16,8.26,2.65c4.31.86,11.23-1.57,16.59-1.4,1.03.03,2.21,1.49,3.19,1.44.85-.04,2.09-1.95,3.94-1.72.93.11,1.04,2.79,2.08,3.08,2.16.59,2.21-3.8,4.98-4.03,2.38-.2,6.48,2.02,9.51,1.04l-1.99,2.99c-22.49,2.77-44.15,8.65-65.52,15.96-7.25,2.48-17.69,8.79-25,8.03s-12.55-7.84-11.25-15.27c1.58-9.08,9.97-9.81,16.77-12.72Z"/>
      <path class="cls-29" d="M347.46,677.03c1-1.59,3.87-1.16,5.48-1,7.14.7,9.84.23,17.07,1.42,3.49.58,12.49-.22,16.95-.32,4.69-.1,8.91-3.42,11.07,1.98,4.66-2.15,10.22-2.11,15.43-2.08,2.24,8.34,4.54,16.7,7,24.97-6.38-4.96-9.75-2.21-15.62-2.1-8.06.14-16.74-2.67-24.38,1.1-12.49-7.34-22.09-14.48-33-23.97Z"/>
      <path class="cls-36" d="M403.46,638.08c.92,4.26,1.99,8.72,3,12.98-2.97-.87-7.57,1.82-9.53,1.94-3.58.23-7.98-2.46-13.03-2.03-4.31.37-5.51,2.7-10.91,2.02-10.49-1.32-22.32.51-33.14-.04-5.51-.28-11.84-2.88-17.39-.9-3.98-4.57-7.32-9.21-11-13.98,2.54-3.21,6.43,1.05,8.44,1.07.88,0,.93-2.77,2.09-3.07,1.5-.38,3.96,2.72,6.04,3,3.16.43,5.63-1.98,7.94-1.92,1.99.06,11.24,2.66,12.98,2.58.95-.04,2.48-2.2,4.21-2.49,2.34-.4,5.06,1.56,7.64,1.48,2.75-.09,5.67-2.54,6.99-2.46,1.8.11,6.3,2.85,9.27,2.75,2.68-.09,2.63-4.46,4.89-3.94,1.88.94,1.32,5.65,3.04,6,.51.1,7.82-3.4,9.76-3.7,2.93-.45,5.8.67,8.71.69Z"/>
      <path class="cls-24" d="M404.46,497.26c-1.12,2.6-2.22,5.28-3,7.99-12.76,1.32-25.24.65-37.44-1.99-3.74,2.89-7.88,3.38-12.54,2.77-12.85-1.78-26-3.13-38.52.74-14.73-2.76-29.78-2.94-45.15-.56-3.81.25-7.29-.5-10.6-2.08-1.96,3.25-3.7,3.95-7.19,2.25l-1.56.87c-1.07-3.72-2-7.25-3-10.99l4.49,2.01c.35-6.54,5.9-.16,10.21-.26,2.21-.05,4.89-.82,8.93-.88,10.34-.15,26.55-3.03,35.76-.83,1.55.37,2.94,1.91,3.12,1.9,1-.02,1.93-4.47,3.98-3.94.98.25,2.18,3.96,3,3.96.18,0,1.38-1.59,3.08-1.93,7.83-1.56,18.04,1.06,24.95.98,2.78-.03,5.79-2.34,8.51-1.65,1.74.44,2.59,2.22,3.45,2.32,2.1.24,12.65-2,15.19-2.37,7.23-1.07,16.47,2.04,24.9,1.61,2.73-.14,4.47-3.81,9.44.09Z"/>
      <path class="cls-24" d="M401.46,505.25c-.54,1.87-1.7,5.48-2,6.99l-6.62-2.72c-4.7,3.05-8.74-3.1-11.71-2.22-.85.25-.78,1.74-1.39,1.99-.9.36-6.36,2.05-6.71,2.02-.57-.06-.47-1.93-1.22-2.09-2.1-.44-7.66.9-10.78.62-7.68-.67-7.5-1.69-15.98-.51-6.95.97-5.28.02-11.08-.19-3.54-.12-10.88,2.73-12.01-.9-2.32-.53-1.01,1.82-2.12,2.07-2.28.51-6.76-1.93-9.08-1.81-11.98.63-25.63,1.84-38.79,1.83-2.82,0-5.69-1.13-9-1.15-4.12-.03-9.33.64-13.5,1.07-.27-.9-.67-1.85-1-3-.93-5.7,3.2-1.57,5.36-1.91.95-.15.9-2.11,1.61-2.59,2.54-1.73,4.53.86,6.69,1.14,11,1.39,24.61-2.11,34.79-1.67,3.91.17,11.03,2.62,15.05,2.62,3.2,0,9.87-2.7,14.01-2.67,4.78.03,5.34.73,11.26.37,6.33-.38,14.15,2.49,20.92,1.46,2.66-.41,4.09-2.63,5.81-2.7,1.05-.04,7.32,1.83,9.97,2,7.54.49,15.9.14,23.53.45,1.56.06,3.11-1.36,4.01,1.52Z"/>
      <path class="cls-57" d="M305.46,322.48c-6.65.19-15.15,1.94-21.51,1.58-3.36-.19-6.61-1.94-10.03-1.69-1.97.14-1.01,2.22-2.9,2.2-2.55-.03-4.85-1.92-7.12-2.03-8.15-.4-21.03,2.49-27.92,1.44-2.74-.42-6.73-2.51-7.95-2.54-.27,0-2.12,3.46-4.57,3.05,4.12-15.92,21.02-22.67,36.21-18.69,15.31,4.01,29.89,13.88,45.79,16.69Z"/>
      <path class="cls-62" d="M138.46,288.52c8.32-2.39,19.58-5.59,27.18-.1,1.67-2.98,9.79-3.62,12.36-2.39,2.83,1.36,4.46,2.15,1.46,4.48-8.8,6.41-18.45,12.37-27,18.98-5.05,2.49-9.5,2.42-13.34-.21-3.01,3.11-5.87,3.14-8.3-.52-2.54.67-13.25,2.19-14.36.22-.45-.8-.36-1.67,0-2.49,7.18-6.26,14.44-12.18,22-17.98Z"/>
      <path class="cls-42" d="M179.46,290.52c1.12-4.19-9.48-2.79-10.77-2.32s-1.16,2.29-1.84,2.38c-2.71.34-4.71-2.83-7.87-3.13-5.8-.56-14.29,2.18-20.52,1.07,9.04-6.94,22.55-18.15,32.48-23,14.15-6.9,25.36,8.05,16.52,19.5-2.69,3.48-5.43,3.63-8,5.5Z"/>
      <path class="cls-21" d="M134.46,324.47c-6.84,5.9-14.72,12.88-21,18.98-3.24-2.49-5.15.52-8.23.85-1.97.21-5.48-2.46-7.35-1.49-1.77.91-.63,3.16-2.92,2.65-.97-.22-.5-2.33-2.11-2.87-.77-.26-8.87-.23-9.95,0-2.58.55-3.4,3.41-6.45,2.85,7.43-8.01,15.12-15.42,23-22.97l5.41-2.98c9.52,1.22,18.98,1.66,28.38,1.31,1.94.68,2.27,1.8,1.21,3.67Z"/>
      <path class="cls-33" d="M116.46,306.5c2.9,3.5,15.23-.35,15.89.12.72.51.17,3.54,3.61,2.91.81-.15.99-2.82,1.97-2.94s4.44,2.66,6.13,2.9c3.02.43,5.65-1.89,8.41,0-5.9,4.56-12.39,10.14-18,14.98-2.31-4.25-8.05-1.02-11.41-1.14-7.87-.27-15.7-3.45-23.59-.86,5.81-5.57,10.82-10.6,17-15.98Z"/>
      <path class="cls-56" d="M396.46,240.58h-1c.16-2.54-.89-6.28,1-7.99v7.99Z"/>
      <path class="cls-59" d="M549.46,374.41c-.04,1.33.05,2.67,0,4-.26,6.76-1.23,12.39-2,18.98.38-4.65-6.16.44-8.39.06-.67-.11-.52-2.01-1.19-2.06-3.3-.27-9.78,2.08-12.96,2.03-2.19-.03-3.71-1.44-5.79-1.75-2.86-.42-4.44,2.29-6.15,2.35-1.24.05-2.72-1.24-4.14-1.33-1.79-.11-3.52,1.16-5.66.55-1.44-.41-2.35-2.56-3.35-2.79-1.64-.38-2.52,2.74-4.79,2.86-4.62.24-12.67-1.83-18.02-1.86-3.18-.02-11.55,1.3-15.07,1.56-1.55.12-3.15-2.64-4.99-2.62-1.2.01-2.75,1.78-4.97,2.07-5.52.72-14.75-1.35-20.86-.7s-9.78,4.12-15.67.62c-1.51-2.41-1.8-5.84-.89-10.29-.79-4.57-.49-8.47.89-11.69.22-2.53,2.87-2.82,7.97-.86,11.65-.25,23.17.03,34.54.83,4.72-2.47,8.83-2.43,12.32.12,2.55-1.83,5.47-1.83,8.77.02,4.05-2.09,8.72-1.93,14.01.5l3.08-1.79c17.15.09,34.35-.03,51.59-.36l1.72,1.54Z"/>
      <path class="cls-23" d="M494.46,177.66c4.79,7.52,8.7,14.15,13,21.97-2.41-2.44-4.51.64-5.5.64-.65,0-2.07-1.66-4.03-1.75-1.79-.08-1.25,1.78-2.12,2.04-3.38,1.02-6.38-2.65-6.82-2.67-.58-.03-7.24,2.79-11.06,2.83-4.5.04-2.99-1.99-4.92-2.18-4.3-.42-8.89,2.17-12.11,2-5.74-.31-11.88-1.34-17.87-1.79-5.55-.42-17.19,2.68-23.22,2.59-1.37-.02-2.29-1.39-3.62-1.42-2.03-.04-4.71,1.54-7.08,1.4-3.99-.23-7.56-5.1-10.63-1.67.22-6.43-.12-12.92-.06-19.36l.7-.66c6.04-1.82,13.76-.31,19.66-1.98.86-.25.72-2,1.23-2.02,1.84-.07,4.5,2.87,7.02,3.01,7.48.43,15.27-.58,23.03-.04,6.99.48,11.48-2.82,17.66-.66,1.47.51,2.52,2.44,3.24,2.48.57.04,7.62-2.5,8.95-2.6,4.25-.31,10.03,1.65,14.57-.14Z"/>
      <path class="cls-37" d="M516.46,507.25c10.62-1.11,25.26-.56,37.75,0,7.99-1.42,14.69-.28,22.31,1.76l.94,2.25c-11.19,5.15-22.41,9.78-34,13.98l-1.73-.59c-8.87,3.4-16.84,3.04-23.91-1.06-7.47,2.65-14.74,2.51-22.79,2.03-11.71,1.31-22.9.94-33.58-1.1-2.24,2.58-7.21,2.21-7.99-1.29,21.01-5.21,42.21-9.95,63-15.98Z"/>
      <path class="cls-60" d="M453.46,523.23c1.85,0,4.11,1.25,5.39,1.06.68-.1.59-2.06,1.18-2.1,1.56-.12,5.28,2.03,7.94,2.04,12.51.05,25.24-1.1,37.16-.36,5.76.36,10.57-2.37,12.86-2.25,1.89.1,4.71,3.43,8.07,3.56,2.8.11,10.15-1.37,14.39-1.45,1.68-.03,3.48-1.92,3.02,1.51-11.8,4.27-24.92,8.59-37,11.99-2.91-.87-6.11-.65-9.58.66-13.41-1.33-26.72-1.28-39.95.13l-3.25-1.7c-8.03,1.2-16.12,1.93-24.28,2.2l-1.93-1.29c.98-12,16.2-13.94,26-13.98Z"/>
      <path class="cls-55" d="M638.46,476.28c-11.65,8.31-22.41,15.11-35,21.97-4.55,1.1-8.48.54-11.78-1.69-7.3,3.03-13.22,2.42-20.75,1.66-3.93,2.17-7.1,2.04-9.53-.39-2.76,1.09-6.81,2.39-6.95-1.57,6.81-8.6,29.83-16.66,41-22.97l2.93-.48c2.64,1.61,5.47,1.57,8.48-.13,10.35,1.18,20.6,2.1,30.66.23,1.94.6,2.15,1.65.93,3.37Z"/>
      <path class="cls-5" d="M626.46,453.31l4.36-1.48c3.79,2.29,7.46,2.14,11.02-.46,6.08,1.71,12.6,2.33,19.55,1.88,2.92.44,2.86,1.94,1.07,4.05-7.94,7.05-15.37,12.82-24,18.98-1.58-3.62-6.72-.24-9.61-.09-7.41.37-16.14-1.44-22.89-1.55-.65-.01-1.64,1.45-2.95,1.55-2.13.15-5.77-1.55-7.56-2.9,10.49-5.93,21.26-12.88,31-19.98Z"/>
      <path class="cls-65" d="M506.46,537.21c-15.18,4.27-51.14,14.2-65.5,14.07-7.97-.07-14.17-5.92-13.5-14.07,5.5-2.9,9.51-.9,14.45-.97,3.36-.04,7.77-2.36,11.07-2.12,2.29.16,3.48,1.94,5.02,2.08,4.41.4,11.59-1.4,16.13-1.61,8.59-.4,15.63,1.31,24.03,1.29,3.44-.01,6.04-3.81,8.3,1.33Z"/>
      <path class="cls-67" d="M694.46,423.35c-5.17,6.49-10.02,12.8-16,18.98-9.43,1.98-17.71,2.52-27.53.2-3.1,2.3-9.96,3.03-7.47-2.2,6.67-5.71,14.01-13.46,20-19.98,7.83,2.82,20.27-1.14,27.51.53,1.67.39,2.8.72,3.49,2.47Z"/>
      <path class="cls-4" d="M554.46,496.26c3.08,1.79,6.69-.72,7.52-.76.96-.04,1.89,2.8,3.8,2.61,1.06-.11,2.49-1.59,4.24-1.8,4.53-.53,8.45.89,12,.81,2.14-.05,7.56-2.77,9.99-2.49,1.83.21,1.69,2.61,8.66,2.33,1.66-.07,3.21-2.19,2.79,1.3-8.53,4.65-17.16,8.92-26,12.98l-13.64-2.93c-14.62,2.65-29-1.33-43.3.52-1.97.25-3.17.93-4.05-1.59,5.25-1.52,10.95-5.27,16.86-5.43,7.26-.2,10.94,6.32,18.18-1.02,1.58-1.61,1.95-3.26,2.96-4.54Z"/>
      <path class="cls-6" d="M678.46,442.33c-5.09,5.26-10.53,10.13-16,14.98.57-3.17-1.57-1.68-3.43-2.02-5.71-1.02-7.81.07-12.12-.1-1.9-.08-3.32-1.88-4.95-1.85-1.87.03-3.51,2.71-4.96,2.61-1.71-.12-7.53-3.2-10.53-2.64,5.29-3.85,12.12-8.81,17-12.98,2.03,4.57,5.3.26,7.3.24,3.97-.05,11.14,2.12,16.2,1.85,3.99-.22,9.22-4.26,11.51-.09Z"/>
      <path class="cls-15" d="M409.46,364.42c2.9-1.76,8.26,7.71,6,9.99,1.48,4.55,1.48,17.41,0,21.97-8.54,26.31-49.99,26.32-59,0-2.55-7.44-1.89-20.04,2-26.97,9.86-17.57,37.85-19.9,51-4.99Z"/>
      <path class="cls-54" d="M409.46,364.42c5.21-4.15,11.67-1.08,17.56-.99,14.26.22,29.52-.61,42.88-.13,1.71.06,13.09-2.38,13.56-1.88.59.65-1.39,2.91,1.52,3.06,3.14.16,4.23-1.86,6.03-2.05,2.28-.24,4.28,1.68,5.95,1.55,5.53-.41,12.03-2.49,18.01-.57l34.49-.99c.05,3.97.11,8.02,0,11.99-4.64,1.77-9.58.1-14.34.08-6.95-.03-13.04,1.08-20.18,1.33-5,.17-13.04-1.54-16.86-1.12-1.79.2-3.58,2.35-5.13,2.34s-7.65-2.3-9.16-2.45c-1.29-.13-2.63,1.88-4.81,1.92s-4.04-1.81-5-1.73c-.91.07-1.94,1.86-3.95,1.68-1.55-.14-2.76-2.1-5.06-2.14s-3.92,1.73-6.1,2.01c-2.47.31-6.42-.82-8.97-.8-8.72.07-19.37.6-27.92-.07-2.62-.2-4.29-2.4-6.54-1.04-.19-.57-5.44-9.35-6-9.99Z"/>
      <path class="cls-35" d="M393.18,383.68c5.89,5.98-3.1,15.74-9.18,8.67-5.21-6.06,4.1-13.83,9.18-8.67Z"/>
    </g>
  </g>
</svg>