<?xml version="1.0" encoding="UTF-8"?>
<svg xmlns="http://www.w3.org/2000/svg" xmlns:xlink="http://www.w3.org/1999/xlink" viewBox="0 0 959.28 959.28">
  <defs>
    <style>
      .cls-1 {
        fill: #e4f7fc;
      }

      .cls-2 {
        fill: #57aaf0;
      }

      .cls-3 {
        fill: #66b7f2;
      }

      .cls-4 {
        fill: #4795e0;
      }

      .cls-5 {
        fill: #71ccf9;
      }

      .cls-6 {
        fill: #fff;
        stroke-width: 10px;
      }

      .cls-6, .cls-7 {
        stroke: #000;
        stroke-miterlimit: 10;
      }

      .cls-8 {
        fill: #4eabf2;
      }

      .cls-9 {
        fill: #84d0f8;
      }

      .cls-10 {
        fill: #75c6f7;
      }

      .cls-11 {
        fill: #449be4;
      }

      .cls-12 {
        fill: #6ebff3;
      }

      .cls-13 {
        fill: #61b8f4;
      }

      .cls-14 {
        fill: #59aef1;
      }

      .cls-15 {
        fill: #4da1e5;
      }

      .cls-16 {
        fill: #3073d2;
      }

      .cls-17 {
        fill: #f2fcfc;
      }

      .cls-18 {
        fill: #dbf7fa;
      }

      .cls-19 {
        fill: #4eb2f5;
      }

      .cls-20 {
        fill: #3480d8;
      }

      .cls-21 {
        fill: #62b6f4;
      }

      .cls-7 {
        fill: url(#_무제_그라디언트_9);
      }

      .cls-22 {
        fill: #62b6f3;
      }

      .cls-23 {
        fill: #92e6f6;
      }

      .cls-24 {
        fill: #4398ea;
      }

      .cls-25 {
        fill: #3f93df;
      }

      .cls-26 {
        fill: #6dbff5;
      }

      .cls-27 {
        fill: #69bef6;
      }

      .cls-28 {
        fill: #53b4f5;
      }

      .cls-29 {
        fill: #81cef8;
      }

      .cls-30 {
        fill: #fdfdfc;
      }

      .cls-31 {
        fill: #5dbbf8;
      }

      .cls-32 {
        fill: #4b96dd;
      }

      .cls-33 {
        fill: #6fc1f4;
      }

      .cls-34 {
        fill: #4ba9f0;
      }

      .cls-35 {
        fill: #65b6f0;
      }

      .cls-36 {
        fill: #387cd7;
      }

      .cls-37 {
        fill: #499ee3;
      }

      .cls-38 {
        fill: #50b5f6;
      }

      .cls-39 {
        fill: #5eb0ef;
      }

      .cls-40 {
        fill: #499eec;
      }

      .cls-41 {
        fill: #70cbf8;
      }

      .cls-42 {
        fill: #b8e7fa;
      }

      .cls-43 {
        fill: #fcfdfe;
      }

      .cls-44 {
        fill: #93e6f5;
      }

      .cls-45 {
        fill: #81cdf7;
      }

      .cls-46 {
        fill: #fcfdfd;
      }

      .cls-47 {
        fill: #4ca8f0;
      }

      .cls-48 {
        fill: #b1eefb;
      }
    </style>
    <linearGradient x1=".5" y1="479.64" x2="958.78" y2="479.64" gradientUnits="userSpaceOnUse">
      <stop offset="0" stop-color="#fffb9a"/>
      <stop offset="1" stop-color="#b45dff"/>
    </linearGradient>
  </defs>
  <g>
    <g>
      <circle class="cls-7" cx="479.64" cy="479.64" r="479.14"/>
      <g>
        <g>
          <path class="cls-6" d="M888.8,330.58c-.92-.35-1.88-.63-2.83-.91-14.29-4.19-29.09-4.92-43.78-5.76-21.05-1.2-42.15-1.77-63.24-2.07-26.93-.38-53.88-.37-80.8.87-13.92.64-27.86,1.17-41.75,2.25-3.71.29-7.67.01-11.23,1.72h0c-13.75-.06-27.06,2.99-40.36,5.94-48.55,10.78-81.77,38.44-95.83,87.18-.43,1.51-.61,3.33-2.75,4.65-6.54-9.61-13.03-19.16-26.88-19.15-13.87,0-20,10.21-27.25,19.25-2.03-2.01-2.16-4.26-2.91-6.23-3.32-8.68-5.77-17.73-11.13-25.53-6.73-14.04-16.64-25.49-28.79-35.04-16.53-12.99-35.82-20.02-55.92-24.92-12.84-3.13-25.84-5.75-39.16-6h0c-1.44-.36-2.87-.93-4.33-1.05-12.74-1.03-25.47-2.34-38.23-2.88-33.88-1.44-67.79-1.45-101.7-1-1.96.03-4.01-.38-5.87.66-24.62-.12-49.18,1.33-73.69,3.39-9.08.76-18.08,2.6-26.14,7.38-9.14,3.83-12.11,8.03-11.91,17.82.65,31.61,3.97,62.99,8.41,94.26,1.09,7.66,4.84,10.66,12.8,12.45,3.9.88,9.31-1.4,11.41,2.32,1.86,3.28,1,8.1,1.33,12.24.07.83-.02,1.68.14,2.49,1.2,5.85,0,11.97,1.93,17.73.04,1.65-.06,3.33.14,4.96,2.05,17.16,5.23,34.12,9.95,50.74,7.85,27.65,17.65,54.45,35.78,77.38h0c8.72,12.95,20.27,22.88,33.52,30.85,15.51,9.32,32.33,15.01,50.32,17.19h0c.92.31,1.82.77,2.77.92,27.85,4.45,55.82,5.68,83.82,1.85,24.12-3.3,47.06-10.2,67.15-24.61,10.98-7.88,20.96-16.8,28.21-28.4h0c6.39-8.84,12.37-17.94,17.21-27.75,10.72-21.72,18.35-44.58,25.02-67.8,2.85-9.9,4.64-20.13,8.9-29.59,3.5-7.76,9.01-12.5,18.21-12.02,6.98.37,14,.34,20.98.06,8.27-.33,13.61,3.7,16.97,10.73,1.64,3.43,2.89,7.1,3.91,10.77,4.89,17.43,9.61,34.9,15.81,51.94,8.18,22.49,17.68,44.27,31.99,63.67,10.36,14.05,22.6,25.97,38.22,34.11h0c3.57,2.77,7.57,4.71,11.84,6.1h0c1.16.62,2.27,1.34,3.48,1.83,21.82,8.98,44.8,11.94,68.12,12.9,17.13.7,34.22-.29,51.15-2.96,12.02-1.9,24.1-3.78,35.39-8.72,3.5-.39,6.56-2.07,9.69-3.47,18.55-8.3,34.02-20.63,46.6-36.49,6.16-7.76,12.1-15.75,15.67-25.17,2.55-5.21,6.26-9.9,7.01-15.9,1.46-.79,1.76-2.32,2.31-3.67,4.34-10.64,7.77-21.56,11-32.61,7.68-26.34,11.82-53.21,13.74-80.48.64-9.15.51-9.16,9.46-10.51,9.99-1.51,13.44-4.7,14.99-14.83,2.89-18.88,4.97-37.87,6.62-56.91h0c1.32-10.18,1.82-20.41,1.91-30.67.16-17.55-.95-19.2-17.38-25.49h-.02,0ZM785.13,648.67h-.01s.02-.01.03-.02l-.02.02h0ZM758.19,410.13c-.04-.13-.09-.27-.16-.42.15.02.3.04.45.07-.09.12-.2.23-.3.35h0ZM314.21,444.76h-.03l.06-.06s-.02.05-.03.07h0Z"/>
          <g>
            <path class="cls-38" d="M438.05,392.77c5.35,7.79,7.81,16.85,11.13,25.53.75,1.96.88,4.22,2.91,6.23,7.25-9.04,13.38-19.24,27.25-19.25,13.85,0,20.34,9.54,26.88,19.15,2.13-1.33,2.31-3.15,2.75-4.65,14.06-48.74,47.28-76.4,95.83-87.18,13.31-2.96,26.61-6,40.36-5.94,10.02.68,19.41,4.21,29.01,6.68,19.62,5.04,39.11,10.63,58.3,17.15,1.83.62,4.53.36,4.75,3.38-5.11,3.67-10.94,2.43-16.42,1.91-13.42-1.28-26.8-2.25-40.3-1.72-7.6.3-14.48,3.77-21.95,4.42-6.42.56-12.83,1.87-19.31.54-.98-.2-2.04-.53-2.97-.28-15.85,4.26-32.89,2.5-48.19,9.68-10.48,4.92-20.02,11.17-28.76,18.69-16.88,16.48-25.65,36.67-27.42,60.05-.06.81.25,1.63.3,2.47-.79,13.91.85,27.63,3.1,41.3.37,2.27,1.08,4.5.81,6.85-.98,2.75-.57,5.46-.02,8.26,1.06,5.39-.28,7.69-5.38,10.08-5.53,2.59-9.69,1.09-12.5-4.48-.96-1.92-1.92-3.84-3.07-5.65-1.89-3.91-2.7-8.2-4.24-12.23-4.55-11.92-10.89-18.76-25.39-17.75-2.15.15-4.33.13-6.48,0-9.1-.52-17.96-.15-25.34,6.27-5.89-.8-11.09,1.45-16.32,3.65-4.21,1.78-6.33,5.15-7.56,9.34-.52,1.75-1.36,3.81-3.53,3.66-2.42-.17-2.21-2.5-2.48-4.27,2-15.25,3.75-30.52,2.63-45.94.53-11.71-2.55-22.77-7-33.34-10.51-24.92-29.69-40.64-54.5-50.26-17.35-6.73-35.33-10.4-53.81-12-14.91-1.19-29.82-2.63-44.77-1.68-14.41.91-28.86,1.46-43.14,3.74-2.63-.22-5.08.81-7.62,1.15-1.69.22-3.58.5-4.98-1.04-3.55-5.98-7.61-11.57-12.51-16.55-3.56-3.62-7.9-6.75-7.82-12.67.03-2.25-1.86-1.97-3.29-1.99-5.64-.07-11.28.04-16.92-.06-2.09-.04-4.38.47-6.03-1.47,1.86-1.04,3.9-.64,5.87-.66,33.91-.45,67.82-.44,101.7,1,12.76.54,25.49,1.85,38.23,2.88,1.46.12,2.89.69,4.33,1.05,9.1,2.91,17.01,8.26,25.31,12.74,17.97,9.71,36.1,19.13,54.08,28.84,13.3,7.18,26.84,13.91,40.15,21.07,1.65.88,2.98,2.09,4.33,3.31h.01Z"/>
            <path class="cls-44" d="M737.17,353.65c-18.3-6.7-37.15-11.59-55.84-17-12.02-3.48-24.4-5.62-36.16-10,3.56-1.71,7.52-1.43,11.23-1.72,13.89-1.08,27.83-1.61,41.75-2.25,26.92-1.24,53.86-1.25,80.8-.87,21.09.3,42.19.87,63.24,2.07,14.69.84,29.49,1.57,43.78,5.76.95.28,1.91.55,2.83.91,16.44,6.29,17.54,7.94,17.38,25.49-.09,10.26-.59,20.49-1.91,30.67-.36-.17-.37-.48-.48-.76-.13-.33-.33-.29-.34-.04-.37,8-3.2,15.45-5.3,23.05-1.05,3.8-2.2,7.63-4.63,10.89-2.85,1.67-5.15-.16-7.45-1.3-19.84-9.82-39.92-19.11-59.99-28.43-1.36-.63-2.77-1.13-4.18-1.63-3.82-1.43-6.67-4.33-9.91-6.63-15.03-10.71-32.03-16.69-49.79-20.87-6.63-1.56-13.33-2.83-19.9-4.65-1.89-.52-3.99-.7-5.14-2.67v-.02h0Z"/>
            <path class="cls-24" d="M164.05,322.54c8.46.05,16.92.11,25.37.13,2.49,0,4.67-.03,2.3,3.4-1.07,1.55-.3,3.1.9,4.49,5.7,6.57,11.19,13.32,17.1,19.69,1.69,1.82,1.33,3.54,1.52,5.42-.23,2.73-2.57,2.12-4.13,2.45-18.32,3.97-35.94,9.73-52.02,19.65-14.24,8.78-25.4,20.3-32.19,35.76-.74,1.68-1.43,3.39-3.19,4.32-3.97.5-3.91-4.04-7.11-5.54-3.79,7.2-10.01,12.04-17.41,16.3,6.27,5.76,14.85,9.07,16.91,18.21-.61,4.01-3.09,4.18-6.16,2.9-1.66-.69-3.19-1.67-4.88-2.35-3.48-1.41-6.78-2.63-9.86.86-.85.96-2.07.99-2.79-.47.24-8.21-2.36-13.42-11.7-14.86-5.37-.83-8.11-6.4-9.59-11.82-2.48-9.03-3.15-18.33-4.25-27.56-1.93-16.16-3.37-32.37-4.77-48.59-.47-5.45,2.31-8.68,6.11-11.63,8.06-4.78,17.06-6.62,26.14-7.38,24.51-2.05,49.07-3.51,73.69-3.39h.01Z"/>
            <path class="cls-12" d="M399.98,623.49c-7.25,11.6-17.23,20.52-28.21,28.4-20.09,14.41-43.03,21.31-67.15,24.61-28,3.83-55.97,2.6-83.82-1.85-.95-.15-1.85-.61-2.77-.92,1.4-5.09,5.8-7.22,9.69-9.87,8.99-.26,17.93.89,26.82,1.68,13.05,1.16,25.96.37,38.86-.62,17.32-1.32,34.28-4.71,50.52-11.2,13.13-5.24,24.96-12.54,35.47-21.98.73-.66,1.52-1.32,1.73-3.67-8.01,1.09-15.72-2.81-23.77.22-1.97.74-3.98,1.99-6.13.39-1.18-2.41.78-3.38,2.23-4.27,18.66-11.53,31.55-28.18,41.99-47.03.94-1.69,1.53-3.78,3.85-4.27,2.84.21,4.8-.88,5.71-3.69.62-1.9,2.06-3.04,3.94-3.45,3.91-.87,7.62-2.23,11.22-4,2.62-1.28,4.53-.62,5.06,2.54-1.18,6.99-5,12.95-7.75,19.31-3.03,7-6.73,13.69-10.81,20.16-3.76,5.96-6.44,12.33-6.68,19.52h0Z"/>
            <path class="cls-35" d="M767.2,666.76c-11.3,4.94-23.37,6.82-35.39,8.72-16.93,2.67-34.02,3.66-51.15,2.96-23.32-.96-46.3-3.91-68.12-12.9-1.21-.5-2.32-1.22-3.48-1.83-.07-.5-.32-1.11-.11-1.47,3.49-6.23-.54-8.86-5.23-11.38-2.33-1.25-4.55-2.78-6.27-4.88-1.55-1.9-2.51-3.92-1.16-6.39,1.37-2.51,3.08-4.17,6.28-3.95,6.44.44,12.92-1.22,19.36.38,1.3.32,2.47-.91,3.83-.97,7.35,1.39,14.32,4.2,21.67,5.61,9.79,1.88,19.73,2.69,29.61,3.92,4.41,1.27,8.94.39,13.4.7,1.93.13,4.49-.33,4.99,2.19s-1.67,3.97-3.72,4.66c-5.1,1.72-9.61,4.55-14.29,7.06-1.68.9-3.71,1.48-4.69,3.8,3.79,1.69,7.84,1.85,11.7,2.01,27.79,1.18,55.15-1.25,81.71-10.17,6.13-2.06,11.69-5.6,18.13-6.8,2.33,1.16.69,2.45.02,3.57-3.81,6.43-9.25,11.04-15.97,14.2-.45.21-.8.56-1.1.97h-.02Z"/>
            <path class="cls-8" d="M625.14,635.83c-1.16,1.91-2.81,1.9-4.76,1.42-4.39-1.09-8.83-.98-13.23-.07-1.34.28-2.58.52-3.87-.03-3.02-1.27-4.12.38-5.72,2.78-1.79,2.69-.45,4.21,1.05,5.46,2.9,2.42,6.07,4.53,9.29,6.52,3.36,2.08,7.13,3.72,2.65,8.29-.84.86-.09,2.69-1.49,3.49-4.28-1.39-8.28-3.33-11.84-6.1-1.87-2.9-5.69-4.82-4.13-9.42.5-1.47-1.58-2.33-2.68-3.3-13.9-12.21-27.47-24.69-37.13-40.79-9.44-15.75-17.49-32.14-23.58-49.47-4.85-13.82-9.33-27.76-13.23-41.88-.63-2.28-2.13-4.68-.26-7.11,2.46,2.8,3.36,6.45,5.28,9.54,1.56,2.52,3.2,5.42,6.04,1,.4-.63,1.22-1.12,1.95-1.39,5.74-2.09,6.29-3.35,5.24-9.34-.38-2.16-2.37-4.68.31-6.8,1.7,1.18,1.77,3.13,2.22,4.86,5.77,22.47,13.44,44.27,23.11,65.34,10.85,23.64,26.45,43.38,48.34,57.81,3.9,2.57,8.26,4.31,12.38,6.48,1.44.76,3.21,1.04,4.06,2.7h0Z"/>
            <path class="cls-15" d="M516.21,505.63c3.63,16.88,9.33,33.14,15.04,49.37,6.78,19.26,15.77,37.48,27.19,54.49,9.27,13.81,21.7,24.47,33.97,35.34,1.3,1.15,6.33,2.13,1.41,5.41-.96.64.4,1.67.93,2.44,1.04,1.52,2.78,2.71,2.47,4.92-15.62-8.14-27.85-20.06-38.22-34.11-14.31-19.4-23.81-41.18-31.99-63.67-6.2-17.04-10.92-34.51-15.81-51.94-1.03-3.67-2.27-7.34-3.91-10.77-3.36-7.03-8.69-11.06-16.97-10.73-6.98.28-14,.3-20.98-.06-9.2-.48-14.72,4.26-18.21,12.02-4.26,9.46-6.06,19.69-8.9,29.59-6.67,23.22-14.3,46.07-25.02,67.8-4.84,9.81-10.82,18.91-17.21,27.75-2.61-6.35.71-11.67,3.61-16.61,7.98-13.56,15.23-27.44,20.62-42.24.46-3.24,1.22-6.37,2.33-9.48,6.04-16.86,11.16-34,15.49-51.38,1.53-6.13,3.99-11.94,6.89-17.55,1-1.92,1.96-3.88,4.27-4.58,5.52-5.95,12.49-7.58,20.31-7.05,4.14.28,8.33.32,12.46,0,14.94-1.14,21.88,6.68,26.25,18.77,1.46,4.04,2.66,8.18,3.97,12.27h.01Z"/>
            <path class="cls-3" d="M227.24,664.63c-.05.33,0,.86-.18.95-3.68,1.98-5.85,5.62-9.03,8.14-17.99-2.18-34.81-7.87-50.32-17.19-13.25-7.96-24.8-17.9-33.52-30.85-.85-3.47-2.61-6.72-1.55-10.61.46-1.71-1.48-3.22-2.48-4.73-11.47-17.32-19.88-36.07-26.13-55.84-.5-1.59-1-3.18-.9-4.88.41-4.11,3.15-5.71,6.73-7.03,5.13-1.89,9.92-1.66,14.74.67,2.89,1.86,2.75,5.17,3.58,7.92,5.16,17.16,12.32,33.34,22.7,48.04,3.73,5.28,8.83,9.52,11.68,15.46-1.63,3.12-3.76,1.03-5.46.29-5.92-2.57-10.03,2.25-14.95,3.6-1.57.43-.06,2.33.77,3.22,9.2,9.88,19.08,18.91,31.15,25.33,14.54,7.73,30.17,12.02,46.18,15.26,2.39.48,5.02.36,6.98,2.24h0Z"/>
            <path class="cls-23" d="M438.05,392.77c-16.52-8.52-33.07-16.96-49.53-25.58-13.53-7.08-27-14.27-40.4-21.58-11.35-6.19-23.05-11.76-33.93-18.79,13.32.25,26.32,2.87,39.16,6,20.1,4.89,39.39,11.93,55.92,24.92,12.15,9.55,22.06,21,28.79,35.04h-.01Z"/>
            <path class="cls-36" d="M64.22,333.3c-7.81,7.11-3.93,16.18-3.56,24.36.52,11.7,2.25,23.35,3.67,34.99,1.06,8.69,1.87,17.39,3.67,26,1.84,8.8,6.56,14.28,15.52,14.69,4.88.22,5.29,3.07,5.65,6.32.33,2.96.11,5.99.13,8.99,2.78,3.65,1.5,8.04,1.93,12.04.76,7.06,1.81,14.15,1.38,21.31-.48,2.07-.86,4.15-1.21,6.25-.31,1.81-.44,4.05-3.06,4.36-1.94-5.77-.73-11.88-1.93-17.73-.17-.8-.08-1.66-.14-2.49-.33-4.14.53-8.96-1.33-12.24-2.1-3.72-7.51-1.44-11.41-2.32-7.96-1.8-11.71-4.8-12.8-12.45-4.44-31.27-7.77-62.65-8.41-94.26-.2-9.79,2.77-13.99,11.91-17.82h-.01,0Z"/>
            <path class="cls-4" d="M893.05,419.47c4.36-11.62,7.65-23.54,10.47-35.67,1.07.73.28,2.01.76,2.91-1.65,19.03-3.72,38.02-6.62,56.91-1.55,10.13-5,13.32-14.99,14.83-8.96,1.35-8.82,1.36-9.46,10.51-1.91,27.28-6.06,54.14-13.74,80.48-3.22,11.05-6.66,21.97-11,32.61-.55,1.35-.85,2.88-2.31,3.67-1.64-1.71-1.07-3.65-.55-5.56.81-3.03,1.33-6.09,1.2-9.24,1.42-7.33,4.75-14.05,6.67-21.24,2-7.5,3.83-15.04,5.69-22.58,4.86-21.66,7.32-43.62,8.54-65.76.43-7.81,1.08-15.6.99-23.43-.03-2.97,1.01-5.38,4.37-5.6,7.65-.51,13.86-3.23,17.37-10.54.5-1.05,1.83-1.41,2.6-2.29h.01Z"/>
            <path class="cls-32" d="M88.34,492.61c2.65-2.83,1.15-6.88,2.94-9.97,2.62.3,2.16,2.5,2.43,4.12.75,4.52.88,9.11,1.56,13.64,1.96,13.47,4.37,26.86,7.81,40.04.8,3.06.65,6.15,1.21,9.19,2.07,9.95,5.86,19.35,9.93,28.55,5.03,11.37,10.59,22.53,17.85,32.72,1.48,2.08,3.24,3.82,1.45,6.94-1.36,2.36,2.49,4.98.69,7.84-18.13-22.92-27.93-49.73-35.78-77.38-4.72-16.62-7.9-33.58-9.95-50.74-.2-1.64-.1-3.31-.14-4.96h0Z"/>
            <path class="cls-39" d="M767.2,666.76c-.13-2.62,2.46-2.45,3.78-3.34,5.83-3.92,10.07-9.27,14.17-14.8-.22-2.46,2-2.87,3.4-3.71,17.51-10.42,31.1-24.72,41.86-41.88.94-1.5,1.59-3.37,3.66-3.85,2.04.12,4.06.26,5.1,2.45-3.57,9.42-9.51,17.41-15.67,25.17-12.59,15.86-28.06,28.18-46.6,36.49-3.13,1.4-6.18,3.09-9.69,3.47h-.01Z"/>
            <path class="cls-34" d="M839.15,601.62c-1.45-1.24-3.72-.42-5.03-2.02-.44-4.28,2.65-7.16,4.2-10.66,2.32-4.79,4.45-9.66,6.58-14.54.65-1.49.68-3.79,3.23-3.77.83,5.22-2.02,9.96-1.98,15.08-.75,6-4.46,10.69-7.01,15.9h.01Z"/>
            <path class="cls-46" d="M625.14,635.83c-11.75-3.56-21.38-10.7-30.63-18.39-18.55-15.41-30.14-35.66-39.51-57.41-8.1-18.79-14.18-38.25-19.53-57.96-.3-1.1-.3-2.29-.45-3.44-1.98-11.86-3.87-23.72-4.37-35.77-.2-4.8-.12-9.55.27-14.31.91-6.83,4.78-12.48,7.48-18.58.44-1,1.37-1.93,2.8-1.28,1.7,2.14.79,4.5.37,6.69-1.26,6.55-1.59,13.27-1.45,19.78.2,9.22.39,18.55,2.16,27.7.63,3.25,1.07,6.54,1.65,9.79,5.66,29.13,15.4,56.91,29.4,83.02,13.54,25.26,33.29,43.89,61.04,53.04,3.58,1.41,7.36,2.08,11.07,3,18.65,4.01,37.41,5.35,56.49,3.8,14.94-1.21,29.84-2.28,44.43-5.93,33.21-8.31,55.87-28.85,69.47-59.93,3.08-7.03,5.56-14.25,7.55-21.66,5.75-17.78,8.85-36.1,11.24-54.56,2.5-19.35,3-38.71.62-58.1-.2-1.65-.43-3.33.94-4.67,1.56-.54,2.12.71,2.53,1.67,3.01,6.94,6.81,13.53,8.97,20.84,1.54,8.61.13,17.25-.33,25.8-.87,16.42-3.3,32.72-6.98,48.78-4.38,19.18-9.89,37.97-19,55.55-2.31,4.45-5.33,8.43-7.61,12.88-8.44,11.74-18.44,21.83-30.72,29.64-16.39,10.42-34.58,15.26-53.51,18.18-9.02,1.39-18.25,1.09-27.14,3.59-3.68,1.03-7-1.67-10.74-1.57-4.8.13-9.64.49-14.43-.25-17.78-1.08-35.25-3.82-52.07-9.93h0Z"/>
            <path class="cls-46" d="M162.2,614.7c-13.43-13.92-23.38-30.03-30.03-48.16-2.79-7.6-5.25-15.32-7.86-22.99-2.33-1.36-2.35-3.84-2.87-6.05-3.08-13.2-5.48-26.52-7.33-39.94-3.17-14.1-2.75-28.41-1.98-42.65.33-5.98,4.19-11.07,7.53-16.06.54-.43,1.1-.46,1.68-.11,1.74,1.92,1.47,4.32,1.48,6.6.05,6.95.07,13.9.01,20.84-.17,3.78-.57,7.58.47,11.31.82,3.34-.1,6.86,1.01,10.18.65,7.28,1.63,14.51,2.92,21.7,1.99,13.39,5.37,26.46,9.08,39.44,2.39,8.71,5.57,17.13,9.63,25.21,1.88,4.07,3.81,8.12,6.1,11.99,3.89,6.59,8.33,12.75,13.93,18.02,6.1,6.82,13.22,12.28,21.54,16.14,16.91,9.14,35.36,12.29,54.17,13.99,11.9,1.07,23.82,2.34,35.78,1.94,20.38-.68,40.38-3.49,59.22-11.99,4.27-1.92,8.24-4.32,12.22-6.7,12.11-7.1,21.32-17.24,29.54-28.4,5.43-7.65,10.13-15.71,13.58-24.47,8.01-18.8,16-37.6,20.48-57.65.54-2.43,1.2-4.84,1.49-7.32,4.74-21.52,6.44-43.18,3.14-65.08-.3-1.97-.52-3.97.91-5.68.88-.61,1.7-.23,2.1.5,3.23,5.76,6.73,11.42,7.32,18.25,1.94,11.95.67,23.83-.77,35.71-.5,4.1-1.01,8.19-1.51,12.28-2.33,23.91-11.36,45.82-20.34,67.72-1.47,3.58-2.07,7.79-5.75,10.18-6.18,11.02-12.49,21.97-20.92,31.48-7.87,8.88-16.92,16.37-27.03,22.56-.8,2.56-3.15,3.3-5.19,4.33-16.09,8.18-33.35,12.26-51.15,14.13-27.84,2.94-55.45.62-82.75-5.08-17.14-3.58-32.92-10.44-46.34-22.06-1.39-1.2-2.85-2.31-3.5-4.12h-.01Z"/>
            <path class="cls-37" d="M846.4,452.57c-3.12-7.15-6.24-14.29-9.35-21.44-4.77-4.3-6.25-10.73-10.13-15.61-1.02-1.29-1.64-2.86-2.63-4.19-9.86-12.84-21.61-23.32-36.88-29.38-8.8-4.93-18.42-7.57-28.09-10.02-8.05-2.05-16.16-3.85-24.43-4.86-1.93-.03-3.87.05-5.77-.39-13.38-3.75-27.01-5.09-40.9-4.61-6.79.23-13.55-.99-20.38-1.02-24.55-.11-47.64,6.11-70.06,15.48-7.22,3.02-14.13,6.64-20.69,10.92-1.4.91-2.85,1.74-4.62,1.61-1.91-1.21-4-1.18-6.19-1.12-2.73.06-5.66.87-8.07-1.27,16.87-15.48,36.05-25.63,59.53-26.04,2.13-.04,4.41-.22,6.34-1.02,9.87-4.08,20.15-.85,30.19-1.82,7.18-.69,13.79-3.43,20.8-4.57,5.72-.93,11.5-.39,17.24-.71,12.6-.7,24.95,2.57,37.51,2.13,2.46-.09,4.9-.64,7.36-.98,13.09,3.56,26.48,5.88,39.47,9.86,14.77,4.53,28.52,10.92,40.62,20.66,1.54,1.24,3.29,2.21,4.94,3.31,12.23,8.56,18.54,21.01,22.67,34.82,2.49,8.35,2.87,17.03,3.18,25.67.06,1.57.92,3.8-1.65,4.59h0Z"/>
            <path class="cls-31" d="M399.09,573.45c7.52-17.47,14.94-34.99,19.91-53.41,2.19-8.13,4.13-16.33,6.18-24.49.17.92-.24,2.3.94,2.56,1.52.34,1.91-1.05,2.13-2.19,2.3-11.71,12.08-12.96,21.17-15.18,1.4-.34,2.6.32,3.8.9-7.13,10.5-9.68,22.68-13.04,34.62-4.59,16.35-9.07,32.76-15.96,48.37-.23-2.85-1.71-2.84-3.71-1.61-3.12,1.94-6.39,3.37-10.12,3.78-2.4.27-3.95,1.44-4.62,4.26-.83,3.5-3.26,4.95-6.68,2.38h0Z"/>
            <path class="cls-25" d="M427.46,447.56c-2.77-6.27-5.54-12.54-8.3-18.81-3.82-3.92-5.43-9.31-8.91-13.46-7.89-13.24-18.79-23.35-32.17-30.87-13.73-8.22-28.74-12.79-44.33-15.78-2.28-.44-4.59-.76-6.82-1.44-1.46-.17-2.95-.16-4.38-.55-1.85-1.75-5.17.11-6.61-2.67.55-2.12-1.01-3.25-2.07-4.7-1.62-2.23-3.5-4.53-1.66-7.57,17.18,1.76,34.02,4.96,50.27,11.01,13.84,5.15,26.62,11.99,37.45,22.17,15.36,14.43,23.99,32.36,27.22,53.01.5,3.17,2.26,6.38.31,9.66h0Z"/>
            <path class="cls-16" d="M119.21,417.76c3.6-6.68,6.54-13.7,11.22-19.81,10.8-14.12,25.17-23.31,41.19-30.2,12.49-5.37,25.45-9.25,38.9-11.44.27-.04.49-.42.73-.64,3.33-.65,6.66-1.3,9.98-1.95.59,3.2.69,6.51,3.38,9.03.92.87.56,2.46-.52,3.52-4.27,2.37-9.17,2.15-13.74,3.27-3.33.82-6.64,1.7-9.97,2.5-22.18,5.54-42.32,14.77-58.16,31.93-4.44,4.81-8.06,10.13-11.4,15.7-1.09,1.82-1.88,3.98-4.3,4.59-3.85-.57-6.65-2.33-7.3-6.5h0Z"/>
            <path class="cls-20" d="M224.23,365.61c-.19-.96-.06-2.47-.62-2.79-3.99-2.29-3.69-5.53-2.38-9.1,14.39-2.07,28.89-3.02,43.39-3.8,9.07-.49,18.2-.78,27.31.39,6.71.86,13.57.06,20.27,1.4.26,3.58,1.46,6.64,4.58,8.76,1.98,1.34,1.98,2.54-.56,3.19-1.74,1.79-3.95,1.48-6.08,1.24-26.18-3.02-52.28-1.75-78.34,1.49-2.55.32-5.25,1.4-7.57-.78h0Z"/>
            <path class="cls-11" d="M558.21,386.67c3.73-.28,7.52.6,11.2-.6,2.48-.81,2.78.73,2.78,2.59.38,2.12-1.43,2.89-2.62,3.81-11.09,8.55-19.19,19.49-25.73,31.71-.93,1.73-1.61,3.67-3.59,4.6-3.11,6.6-6.21,13.19-9.32,19.79-.36-9.65,1.98-18.82,5.13-27.81,4.6-13.16,11.93-24.56,22.15-34.08h0Z"/>
            <path class="cls-48" d="M484.64,428.54c-4.5,0-7.63.13-10.75-.04-2.48-.14-4-1.48-3.76-4.22.13-1.46-.29-3.17,1.23-4.09,1.66-1.01,2.8.47,3.94,1.28,2.8,2.01,5.51,4.15,9.34,7.07Z"/>
            <path class="cls-34" d="M846.4,452.57c.97-22.62-3.61-43.39-20.05-60.23-1.48-1.52-3.38-2.72-4.16-4.86,10.1,3.32,19.39,8.47,29.01,12.86,12.51,5.72,24.78,11.94,37.15,17.94,1.48.72,2.9,1.69,4.69,1.18-1.53,2.74-2.81,5.66-4.63,8.2-3.55,4.95-9.16,5.51-14.59,5.89-2.78.2-3.92,1.05-3.71,3.83.77,10.29-.31,20.59-1.2,30.77-1.75,19.96-2.98,40.08-8.78,59.48-3.81-3.47-8.41-3.59-13.89-.35-1.55.92-2.86,2.31-4.68,2.68-1.11.22-2.78.87-2.54-1.47,1.8-11.94,4.36-23.75,5.55-35.79,1.32-13.35,2.41-26.7,1.81-40.14h.02Z"/>
            <path class="cls-18" d="M867.1,331.81c7.33-.46,13.46.68,19.6,2.13,6.48,1.52,8.09,8.51,7.3,12.99-.79,4.47-8.24,5.5-12.36,1.79-5.32-4.8-9.22-10.8-14.55-16.9h.01Z"/>
            <path class="cls-40" d="M120.3,438.6c-.26.77-.36,1.66-.8,2.3-6.4,9.23-7.03,19.56-6.32,30.33.58,8.79.56,17.62,2.14,26.33.52.98.74,2.05-.75,2.05-1,0-1.51-1.15-2.1-1.95-3.94-5.34-9.08-5.65-13.84-.86-1.36,1.37-2.14,3.42-4.34,3.84-1.58-4.32-1.26-8.93-1.99-13.38-.25-1.56.49-3.33-1.01-4.62-.06-11.37-2.31-22.61-1.98-34,5.82-5.92,7.2-5.97,15.89-.7,2.51,1.52,5.19,3.34,6.17-1.52,2.76-2.86,4.06-7.39,8.94-7.83h-.01Z"/>
            <path class="cls-43" d="M120.3,438.6c-2.74,1.31-4.34,3.76-6.04,6.1-.73,1.01-1.15,2.48-2.91,1.73-3.66-8.5-11.42-12.61-18.93-17.64,7.94-4.36,15.23-9.31,19.4-17.6.96-1.91,1.86-1.3,2.76.18,1.37,2.25,2.47,4.7,4.62,6.38,1.79,2.6,4.15,4.55,6.89,6.07.94.29,1.93.36,2.82.84,4.95,2.63,5.11,5.04.23,7.92-3.12,1.84-5.5,4.73-8.93,6.07l.07-.06h.02Z"/>
            <path class="cls-45" d="M162.2,614.7c5.58,3.29,10.14,7.95,15.72,11.32,15.53,9.38,32.58,14.03,50.31,16.44,17.79,2.42,35.68,3.97,53.66,3.09,24.32-1.2,47.75-5.93,69.24-18.05,1.48,1.98,2.98.62,4.4-.04,4.55-2.11,9.19-2.23,14.08-1.3,3.06.58,6.28.24,9.41.49,1.69.14,4.1-1.04,4.85,1.22.67,2.02-1.54,3.15-2.82,4.32-6.6,6.06-13.75,11.45-21.61,15.74-18.86,10.3-39.16,15.73-60.52,17.76-12.38,1.18-24.76,2.59-37.15,1.77-11.52-.76-23.11-.87-34.54-2.84-16.07-1.95-31.47-6.29-46.33-12.7-15.6-6.73-28.18-17.43-39.55-29.75-1.13-1.23-2.56-2.38-1.85-4.29.71-1.9,2.56-1,3.92-1.32.8-.19,1.71-.31,2.34-.78,4.79-3.54,9.63-4.18,14.71-.61.58.41,1.27.12,1.72-.49v.02h.01Z"/>
            <path class="cls-33" d="M677.21,645.77c7.94.2,15.85-.49,23.83.41,3.47.39,7.24-1.41,11.04-1.74,19.57-1.71,38.92-4.48,57.07-12.72,16.72-7.6,30.55-18.67,41.32-33.55.68-.94,1.51-1.76,2.27-2.63,5.47-7.53,13.41-9.48,22.08-9.71,2.56-.07,5.27-.17,4.32,3.81-1.67,3.33-3.34,6.65-5.01,9.98-6.08,9.08-12.01,18.24-19.61,26.22-8.67,9.09-18.86,16.12-29.37,22.78-12.77,5.56-25.74,10.46-39.45,13.35-20.6,4.33-41.41,5.24-62.35,4.55-3.76-.12-7.5-1.11-11.23-1.8-2.6-.48-3.38-1.94-.89-3.44,5.95-3.58,11.64-7.68,18.41-9.72.95-.29,1.93-.59,2.76-1.11,1.08-.67,2.63-1.36,2.15-2.94-.44-1.43-1.99-.77-3.08-.87-4.74-.44-9.59.9-14.26-.87h0Z"/>
            <path class="cls-2" d="M94.28,500.64c2.42-3.77,4.78-7.15,9.83-8.33,4.63-1.08,7.32-.27,9.07,4.07.64,1.57.79,1.51,2.13,1.18,1.97,10.68,3.9,21.38,5.94,32.05.89,4.67,2.03,9.3,3.06,13.94-.49,2.67-1.62,1.7-3.01.64-5.06-3.87-14.95-.67-17.03,5.45-4.05-10.97-5.85-22.47-7.93-33.9-.91-4.98-2.58-9.9-2.06-15.09h0Z"/>
            <path class="cls-39" d="M839.14,589.63c-.21-1.94-1.08-3.13-3.24-2.76-7.66,1.3-15.94.98-21.27,8.31-.27.38-1.24.24-1.89.35,8.49-13.88,15.51-28.44,20.03-44.11,2.19-7.61,4.18-15.28,6.26-22.92,2.26,2.09,3.66-.14,4.9-1.27,3.86-3.51,8.68-3.6,13.34-3.9,2.41-.15,2.9,2.2,2.87,4.32-2.38,14.79-7.35,28.85-12.01,43-3.44,6.12-5.16,13.06-9,18.99h0Z"/>
            <path class="cls-34" d="M825.36,410.65c4.23,6.63,8.47,13.26,11.68,20.48-1.86,2.39-.03,4.79.21,7.09,3.21,31.24-.79,61.88-7.53,92.28-1.39,6.26-2.42,12.67-5.4,18.49-2.24-2.27-4.82-2.3-7.58-1.14-4.56.46-8.6,1.97-12.11,5.1-3.63,3.24-8.5,4.32-12.74,6.51-13.08,6.76-26.84,11.91-40.75,16.66-.44.23-.9.41-1.37.58-12.74,5.99-26.79,8.69-39.06,15.99-3.97,2.36-9.07,2.99-13.62,4.18-9.77,2.55-18.09,8.34-27.67,11.12-6.64,1.93-13.07,4.34-19.5,6.96-5.05,2.05-8.57,6.16-13.63,7.92-2.06.72-1.57,2.53-.67,4.19.82,1.52,1.69,3.33-1.52,2.62-12.45-3.16-23.14-9.65-33.02-17.6-18.81-15.12-30.24-35.36-39.31-57.17-7.56-18.19-13.97-36.76-18.15-56.05-.35-1.61-.37-3.28-.55-4.92-.63-2.04-.28-3.28,2-1.83,1.83,1.16,2.77,3.12,3.31,5.17,3.42-7.26,9.81-11.83,15.52-17,6.02-5.45,13.1-9.52,19.53-14.46,5.25-4.03,11.25-8.35,18.96-6.92,2.2.41,3.59-1.44,5.07-2.76,1.53-1.37,3.08-2.61,5.34-1.65,5.89,2.51,11.34,1.5,16.53-1.99,1.36-.91,3.19-2.26,4.49-.79,1.34,1.52-.5,3.06-1.42,4.32-4.97,6.76-11.99,11.51-17.52,17.7-5.72,6.41-12.82,11.52-17.61,18.82,11.86-10.4,24-20.43,35.03-31.81,5.33-5.49,10.67-11.36,17.37-15.47,1.22-.75,1.94-1.77,2.49-3.01,6.63-7.15,13.73-13.78,21.46-19.72.54-.41,1.23-.43,1.91-.35,2.02,1.28,3.85,2.06,6.4.65,4.07-2.25,8.06-1.26,11.43,1.75,2.09,1.86,4.58,3.25,7.13,3.16,5.19-.19,9.85,1.65,14.47,3.25,5.38,1.87,9.76.75,13.94-2.5,7.21-5.6,14.47-11.13,21.8-16.58,2.07-1.54,3.97-3.73,7.05-2.78,1.68,2.8-.87,3.81-2.33,5.04-6.23,5.23-11.62,11.32-17.6,16.8-10.77,10.07-21.79,19.87-32.1,30.42-11.57,10.48-23.09,21.02-34.13,32.08-2.24,2.24-4.25,4.67-6.13,7.21-1.69,2.29-1.66,4.15.84,5.88,4.56,3.15,9.19,6.05,15.05,5.85,2.45-.08,4.55.76,6.33,2.45.6.57,1.29,1.05,1.99,1.5,8.37,5.33,14.46,5.11,21.59-1.29,9.14-8.21,18.24-16.48,27.12-24.98,9.89-9.55,20.15-18.7,30.15-28.13,17.57-16.2,35.24-32.28,52.73-48.57,1.21-1.12,2.42-2.3,4.1-2.75h0Z"/>
            <path class="cls-38" d="M653.14,442.58c0,1.92-1.16,3.04-2.71,3.85-.87.46-2.13.57-2.63,1.26-4.88,6.75-12.51,10.61-17.67,17.19-3.84,4.9-8.96,8.82-13.7,12.97-6.1,5.34-12.38,10.47-18.59,15.67-.87.73-1.76,1.49-3.97,1.28,11.46-16.26,28.08-27.09,39.97-42.56-1.93-.48-2.93.52-3.92,1.27-5.48,4.14-11.31,5.17-17.52,1.88-1.69-.89-2.69-.08-3.36.98-3.7,5.83-9.81,3.17-14.82,4.31-.39.09-.87-.24-1.31-.37-1.87,6.35-9.01,5.18-12.96,9.13-5.95,5.96-14.16,9.7-19.93,15.79-3.89,4.1-9.4,7.31-11.15,14-1.54-2.37-2.65-4.49-4.16-6.27-1.3-1.53-1.36.14-1.63.97-2.53-7.77-3.15-15.86-3.77-23.9-1.02-13.22-1.13-26.45,1.55-39.55.1-.51-.39-1.14-.6-1.71,7.28-16.05,17.78-29.54,31.94-40.11,14.06-9.32,29.35-16.09,45.39-21.1,10.56-3.3,21.4-5.39,32.39-6.98,18.42-2.66,36.76.66,55.14.29,8.22-.17,16.49,1.7,24.16,5.22-1.15,4.54-5.02,6.99-8.18,9.67-8.12,6.87-14.94,15.1-23.28,21.71-6.92,6.05-12.65,13.36-20.03,18.92-8.07,8.08-16.29,16.01-24.75,23.7-.69.63-3.26,1.85.12,2.5h-.02,0Z"/>
            <path class="cls-21" d="M817.13,546.64c3.02-1.13,6.15-2.58,7.19,2.35-3.64,16.3-10.83,30.98-20.53,44.45-16.95,23.55-40.87,35.41-68.8,40.03-18.55,3.06-37.28,4.72-56.09,3.95-11.4-.47-22.87-1.06-33.87-4.69,1.38-7.27,4.93-13.35,12.24-15.29,5.41-1.43,10.19-3.34,14.62-6.71,5.3-4.03,12.2-3.78,18.21-6.18,12.11-4.82,24.78-8.24,35.96-15.28,2.38-1.5,4.9-3.04,7.69-3.52,6.88-1.19,12.57-4.11,16.41-10.12h.02c2.13-1.15,4.51-1.2,6.77-1.1,4.6.21,8.46-1.25,11.8-4.29,1.01-.91,2.1-1.62,3.43-1.9,9.94-2.07,18.15-7.89,26.87-12.57,5.96-3.2,12.51-5.21,18.09-9.14h-.01Z"/>
            <path class="cls-38" d="M750.14,575.63c-1.11,7.38-7.15,9.32-12.9,10.62-4.36.99-8.03,3.04-11.91,4.86-8.38,3.94-15.96,9.29-25.57,11.04-4.11.75-9.07,2.51-12.94,5.32-1.16.84-2.34,1.2-3.71,1.15-5.98-.24-10.74,2.48-14.83,6.46-1.79,1.74-3.65,2.39-6.14,2.65-5.3.54-10.24,1.58-12.42,7.91-.82,2.39-3.67,4.32-4.71,7.09-3.82-.37-7.51-1.24-10.92-3.06,2.97-.73.73-1.89.06-2.49-2.98-2.66-1.37-4.2,1.18-5.62,6.71-3.76,13.3-7.76,20.42-10.74,3.14-1.32,6.32-2.12,9.73-2.75,3.66-.68,7.81-2.16,11.3-4.28,8.1-4.93,17.16-8.1,26.03-10.43,10.17-2.67,18.58-9.2,28.74-11.2,6.57-1.29,11.86-5.88,18.58-6.51v-.02h.01Z"/>
            <path class="cls-13" d="M415.11,500.63c-2.7,15.04-7.43,29.48-13.06,43.63-2.84,7.16-5.97,14.2-8.96,21.3-3.39-6.23-8.44-4.12-13.34-2.62-12.42,3.79-25.23,5.83-37.88,8.63-2.8.62-5.63.58-8.46.51-4.38-.11-8.64.1-12.5,2.6-1.57,1.02-3.45,1.24-5.31.95-8.8-1.37-17.62-.15-26.42-.11-8.77.04-17.53.9-26.29,1.5-2.68.18-5.29.59-7.86,1.33-2.78.81-5.65.99-8.37,0-6.39-2.31-12.84-1.59-19.24-.48-7.85,1.36-15.82,1.72-23.64,3.62-5.29,1.29-11,0-16.35-.86-10.29-1.67-20.19.04-30.19,1.81-2,.35-2.77,1.45-3.32,3.16-.41,1.27-1.32,1.92-2.68,1.04-2.68-3.66-4.73-7.65-6.25-11.93,2.11-2.6,4.83-3.37,8.02-2.6,1.48.36,2.91.38,4.43.13,8.54-1.44,17.06-.56,25.54.62,1.77.25,3.32.04,4.72-1,3.27-2.43,7.45-2.75,10.9-4.82,2.99-1.8,6.02,2.13,8.46.89,2.2-1.12,2.69-4.86,5.77-5.74,2.2-.63,4.38-.37,4.91,1.96.85,3.76,2.56,2.43,4.52,1.27,2.28-1.35,4.46-2.89,7.26-3.12,2.27-.18,2.49-1.78,2.22-3.64-.65-4.4,3.13-5.47,5.76-7.17,1.46-.94,2.34.52,2.69,1.96.39,1.62-.34,3.3.25,5.61,2.47-2.2,3.14-4.96,4.4-7.29,1.05-1.96,2.15-3.21,3.97-.91,2.1,2.66,3.51.92,4.6-.78,1.8-2.83,3.72-6.42,6.3-7.54,5.93-2.58,6.73-8.78,10.69-12.59,1.77-1.7,2.14-3.23-.74-4.99-3.06-1.87-5.33-4.83-5.77-8.87-.5-4.58-3.9-8.03-5.35-12.28-.89-3.01.37-5.44,2.09-7.75,2.74-3.69,5.78-7.14,8.46-10.88,5.83-5.16,11.09-10.93,16.87-16.15,7.9-6.83,15.21-14.31,23.02-21.24,1.57-1.39,2.61-4.15,5.61-2.92-.81,8.26,3.33,14.85,7.31,21.48.94,1.57,2.3,2.95,2.8,4.7,1.74,6,4.71,11.26,8.92,15.86-2.15,5.54-7.03,8.65-11.11,12.45-10.34,9.63-20.57,19.37-29.77,30.13-.65.76-1.31,1.51-1.84,2.36-.43.69-1.04,1.44-.42,2.26.59.78,1.52.64,2.28.34,3.01-1.19,6.24-.88,9.33-1.46,8.62-1.61,17.43-1.91,26.01-3.82,2.27-.51,4.79-.56,6.74-1.73,9.89-5.94,21.35-5.59,32.05-8.28.48-.12,1.02-.11,1.46-.32,6.81-3.33,14.12-4.59,21.56-5.52,3.53-.44,6.71-1.7,7.97-5.76.61-1.96,2.61-2.94,4.44-3.81,2.55-1.21,5.22-2.15,7.56-3.8,1.91-1.35,3.74-1.17,5.27.72l-.04-.04h0Z"/>
            <path class="cls-47" d="M224.23,365.61c12.48-1.19,24.95-2.56,37.44-3.53,11.59-.91,23.22-.66,34.83-.11,6.59.31,13.15,1.12,19.73,1.7,1.41,2.28,4.58-.7,5.87,1.96.66.86.2,1.61-.4,2.16-12.44,11.38-24.28,23.4-36.82,34.68-11.69,11.08-23.23,22.3-35.2,33.08-24,21.5-46.45,44.67-70.82,65.77-2.89,2.51-5.92,4.84-9.2,6.83-2.91,1.76-6,2.84-9.5,2.09-1.98-.42-3.97-.18-5.94.22-3.91.8-7.61.35-10.97-1.97-2.1-1.46-4.61-1.83-6.96-2.66-3.01-1.06-5.51-.84-7.2,2.33-.61,1.14-1.48,2.31-3.16,1.65-1.66-7.24-2.64-14.58-2.99-22,.19-.64.3-1.29.44-1.94,1.64-7.74,2.29-7.81,10.1-5.75,6.54,1.73,13.44,1.15,20.18,1.63,4.5.32,9.38,1.06,13.22-2.74.67-.67,1.95-.56,2.9-.28,5.38,1.58,9.76-.79,13.98-3.57,2.36-1.56,4.76-3.03,7.27-4.34,2.97-1.56,5.84-3.26,6.59-6.99.16-.8.71-1.56,1.36-2.06,7.19-5.47,8.87-14.05,12.37-21.63,5.63-12.19,3.37-23.92-1.67-35.54-1.13-2.61-2.44-5.27-2.43-8.07.04-7.57-3.45-13.69-7.44-19.66-1.35-2.01-2.74-3.9-.55-6.17,8.32-1.7,16.65-3.4,24.97-5.11v.02h0Z"/>
            <path class="cls-40" d="M199.26,370.72c-.38,1.63-.32,2.88.87,4.49,4.41,6,8.27,12.12,8.33,20.22.05,6.29,3.94,11.81,5.89,17.76,2.09,6.4,2.55,13.14,1.31,19.35-.68,3.4-2.93,7.22-4.02,10.88-1.44,4.85-4.65,8.82-5.89,13.73-.34,1.36-2.13,2.47-3.44,3.43-1.5,1.09-3.75,2.23-3.65,3.83.32,4.98-3.85,6.19-6.65,7.5-4.54,2.13-8.19,5.65-12.86,7.43-.15.06-.27.29-.4.29-7.19-.05-13.88,2.59-20.85,3.75-6.49,1.08-12.83-2.24-19.37-.75-2.99.68-5.47-1.12-8.06-2.1-3.23-1.22-5.17-.89-5.25,3.1-.03,1.72-.74,3.22-2.28,4.2-1.27-3.25-.56-6.64-.77-9.97-1.1-3.66.31-7.51-.79-11.17-.02-7.7.01-15.4-.1-23.09-.02-1.65.98-3.65-1.06-4.91,2.17-3.2,5.16-5.53,8.53-7.19,4.19-2.06,3.64-3.63,0-5.53-.98-.52-1.77-1.4-2.65-2.11,4.22-3.88,5.93-9.43,9.33-13.88,12.68-16.57,29.36-27.39,48.75-34.37,4.96-1.79,10.04-3.25,15.07-4.87v-.02h0Z"/>
            <path class="cls-28" d="M415.11,500.63c-4.79-.97-15.68,5.15-16.83,9.7-.4,1.6-1.19,2.16-2.53,2.6-4.25,1.41-8.47,2.99-13.07,2.7-2.22-.14-4.21.4-6.24,1.35-8.77,4.1-18.19,5.68-27.72,6.61-3.06.3-5.97.96-8.43,2.69-2.53,1.77-5.29,2.74-8.22,3.37-11.38,2.45-22.93,3.75-34.48,4.91-1.93.19-3.43.95-5.06,1.75-1.46.72-2.9.21-4.07-1-1.45-1.5,0-2.49.7-3.41,2.43-3.14,4.8-6.37,7.57-9.19,10.71-10.91,21.5-21.76,32.88-31.99,1.34-1.21,2.42-2.71,3.63-4.08.31-1.97,1.82-3.09,3.16-4.28,10.39-9.15,20.25-18.86,30.31-28.37,8.27-6.47,15.27-14.32,23.06-21.31,5.93-5.32,12.14-10.38,17.54-16.29.98-1.07,2.07-2.25,3.83-1.86,3.25,4.41,6.31,8.93,8.01,14.2-2.33,4.21.18,8.28.53,12.36,1.73,20.12.36,39.94-4.57,59.52v.02h0Z"/>
            <path class="cls-14" d="M125.94,509.82c.15-.07.32-.12.44-.23,2.54-2.08,2.83-7.63,7.92-5.69,3.36,1.28,7.33,1,10.11,3.83.44.45,1.11.9,1.7.94,8.06.46,16.36,2.29,23.84-2.26,8.54-5.2,15.55-12.39,22.9-19.04,10.59-9.59,20.53-19.9,30.94-29.69,8.33-7.84,16.95-15.37,25.44-23.03,1.13.84,1.45,2.03,1.42,3.36-.5,1.72-1.99,2.61-3.16,3.76-18.72,18.43-38.86,35.37-57.21,54.19-1.51,1.55-3.16,2.98-4.35,4.8-2.09,3.2-1.03,5.91,2.42,5.13,5.26-1.19,10.64.09,15.69-1.33,4.64-1.31,9.14-1.37,13.8-.68,5.26.78,10.77,1.54,15.85.89,5.77-.73,11.57-3.05,16.61-6.44,5.24-3.53,10.55-6.96,15.26-11.23,1.27-1.15,2.54-2.9,4.7-1.47-2.79,3.62-5.48,7.33-8.41,10.83-1.79,2.14-2.84,4.37-2.59,7.17-.58,6.41-4.58,11.09-8.69,15.3-3.21,3.28-6.93,6.14-10.28,9.37-2.63,2.54-5.67,4.52-9.42,5.33-2.44.52-4.54,1.98-6.47,3.63-7.84,6.69-16.76,10.37-27.21,10.88-7.46.36-14.87,1.6-22.37.85-5.94-.6-11.75-2.14-17.8-2.05-7.35.1-14.71-.21-21.7,2.68-4.37-12.97-7.31-26.28-9.36-39.8h-.02Z"/>
            <path class="cls-27" d="M151.25,586.63c.32-.08.92-.15.92-.25.38-9.04,7.99-5.31,12.36-6.55,5.16-1.47,10.83-2.07,16.18-1.69,5.54.38,11.17,1.01,16.64,1.93,4.04.68,7.65.04,11.23-.83,10.48-2.52,21.21-2.87,31.82-4.19,1.8-.22,3.82.98,5.68,1.68,3.1,1.17,6.06.94,9.25.07,5.23-1.42,10.66-1.28,16.03-1.65,5.16-.36,10.34-.76,15.53-.92,9.37-.27,18.74-1.35,28.09-.11,1.91.25,3.76.68,5.2-.56,3.47-3,7.53-2.96,11.74-2.99,10.61-.06,20.84-2.62,31.08-5.05,8.35-1.98,16.79-3.66,24.88-6.64,2.26-.83,3.41.5,4.11,2.45.49,1.37-.27,3.07,1.1,4.21-3.66,8.58-8.03,16.75-13.87,24.07-5.39,2.85-10.79,3.78-17.17,3.4-10.95-.66-22.09-3.25-33.06.66-2.8,1-5.96.53-8.95.34-3.97-.26-7.95-1.25-11.77.73-.29.15-.7.26-.97.14-7.63-3.48-14.57,2.22-21.96,1.65-7.46-.58-14.88-1.75-22.41-1.47-3.83.14-7.68.03-11.44.87-9.14,2.04-18.24.8-27.34-.2-3.03-.34-5.96-.4-8.9.42-3.43.95-6.87.93-10.4.46-6.28-.83-12.47,1.89-18.84.58-2.24-.46-4.64-.26-6.96-.55-5.99-.75-8.72.74-11.62,6.2-.53,1-.82,2.29-2.42,1.93-5.77-5.15-10.31-11.24-13.78-18.14h.02Z"/>
            <path class="cls-26" d="M165.03,604.77c2.5-1.62.24-5.2,3.57-7.12,4-2.3,7.41-2.83,12.01-2.44,6.08.51,12.41,2.23,18.59-.33,1.78-.74,3.96-.53,5.89.19,2.11.79,4.47,1.06,6.39.39,7.9-2.75,15.65-1.03,23.48.06,5.49.76,10.97-.09,16.33-1.04,10.79-1.9,21.54-.9,32.19.39,4.78.58,8.72-1.16,13.02-1.9,1.13-.19,2.5-1.34,3.27-.98,5.61,2.63,11.19-.59,16.79.16,5.22.7,10.35.48,15.71-.71,5.92-1.31,12.12-1.61,18.55-.9,7.64.84,15.73,3.44,23.51-.36,1.39-.68,3.25-.4,4.89-.56-7.65,11.46-17.09,21.1-28.92,28.29-3.06-10.95-12.63-8.92-19.69-8.23-15.03,1.47-30.14,1.45-45.12,3.33-6.64.83-13.22-.52-19.88-.29-16.93.59-33.65,3.71-50.65,3.57-7.6-.06-15.24,1.16-22.89.67-3.11-.2-4.3,2-5.86,3.88-8.19-3.87-15.28-9.19-21.18-16.08h0Z"/>
            <path class="cls-22" d="M135.3,549.62c2.63-4.19,6.68-2.81,10.59-3.48,6.87-1.18,13.6-1.03,20.05.31,11.92,2.48,23.71,1.1,35.47,0,8.1-.77,15.69-4.03,21.64-10.05,1.95-1.97,4.38-3.37,6.85-3.91,5.84-1.3,9.5-5.2,13.39-9.22,3.51-3.62,7.87-6.24,10.83-10.66,1.95-2.9,2.33-6.62,5.12-8.95,2.49,4.39,5.84,8.27,6.16,13.79.18,3.12,2.98,6.54,5.46,6.77,5.86.53,2.57,4.26,1.72,5.08-2.62,2.54-3.72,6.06-6.26,8.56-.42.41-.97,1.2-.84,1.59,1.33,3.81.49,3.81-3.28,3.08-2.48-.48-3.73,3.91-5.93,5.76-.85.71-1.25,1.92-1.97,2.81-3.77,4.71-4.76,4.62-7.26-1.06-1.39,3.02-2.63,5.73-3.89,8.44-.63,1.37-1.25,2.95-3.18,2.39-1.86-.55-1.98-2.12-1.42-3.66.58-1.61.95-3.16.14-5.32-2.86,2.69-7.8,3.55-5.27,9.18.78,1.73-.54,2.66-2.01,2.5-4.82-.54-7.9,2.78-11.47,4.94-1.96,1.19-3.41,1.2-3.23-1.3.13-1.92.94-3.97-1.64-4.27-2.46-.29-5.15,1.19-5.41,3.51-.63,5.66-3.05,4.34-6.04,2.11-1.33-1-3.27-1.51-4.19-.65-3.29,3.07-8.36,2.12-11.46,5.44-.62.66-2.05,1.46-2.55,1.19-4.66-2.55-9.76.04-14.48-1.45-3.42-1.08-6.94-.49-10.3.23-5.18,1.1-10.67-1.56-15.64,1.43-4.36-7.92-7.49-16.33-9.7-25.08v-.04h0Z"/>
            <path class="cls-10" d="M186.21,620.85c-1.31-5.08,1.51-5.8,5.61-5.51,13.1.91,26.11-1.49,39.13-1.39,10.51.07,20.58-2.63,31.08-2.56,14.28.09,28.6-.21,42.92-1.36,8.63-.69,17.24-1.92,25.89-2.29,4.75-.2,9.62.28,14.3,1.14,4.81.88,6.17,4.46,5.15,9.04-12.81,9.29-27.56,13.65-42.81,16.59-20.74,4-41.58,3.41-62.51,1.45-14.09-1.32-28.03-3.13-41.55-7.42-6.02-1.91-11.89-4.21-17.22-7.68h0Z"/>
            <path class="cls-14" d="M121.39,466.67c1.82,3.61.58,7.44.79,11.17-1.37-3.64-.8-7.43-.79-11.17Z"/>
            <path class="cls-38" d="M758.49,409.75c-2.86-.57-4.72,1.4-6.65,2.84-6.5,4.86-12.97,9.78-19.28,14.89-5.8,4.7-11.63,8.18-19.35,4.24-5.46-2.79-11.78-2.04-17.56-3.86-3.28-1.03-4.34-5.2-8.49-4.87-1.82.14-3.49-.29-5,1.14-3,2.84-5.24,1.69-7.01-1.49-.5-2.9,2.2-3.84,3.46-5.67,6.76-5.79,13.18-11.95,19.6-18.11,4.64-5.45,10.8-9.19,15.94-14.14,5.48-5.27,11.08-10.44,16.5-15.78,1.32-1.3,2.99-2.06,4.38-3.22,17.75,2.51,35.06,6.62,51.52,13.91,1.08.48,1.54,1.15,1.63,2.22-1.02,4.98-5.34,7.41-8.64,10.37-4.93,4.43-9.65,9.05-14.42,13.62-1.88,1.8-3.67,3.89-6.64,3.91h.01Z"/>
            <path class="cls-30" d="M758.49,409.75c10.26-8.91,20.24-18.13,29.69-27.9,1.75-.61,3.17.15,4.68.94,12.99,6.78,23.96,15.9,32.5,27.87-6.39,7.65-14.34,13.67-21.52,20.5-10.59,10.06-21.46,19.84-32.23,29.71-.72.66-1.62,1.12-2.43,1.67-1.46-.07-2.38-1.07-3.31-1.99-8.9-8.84-17.77-17.71-26.61-26.61-.92-.93-1.92-1.85-1.98-3.31,5.18-6.08,10.8-11.73,16.94-16.82,1.53-1.27,3.06-2.46,4.27-4.04v-.02h0Z"/>
            <path class="cls-17" d="M735.03,365.72c-4.55,6.6-11.01,11.29-16.73,16.71-6.24,5.9-12.87,11.39-19.33,17.06-2.11.04-2.85-.79-1.76-2.78,10.69-10.21,21.37-20.42,32.06-30.63,1.88-.73,3.84-.39,5.77-.36h-.01Z"/>
            <path class="cls-19" d="M314.24,444.66c-7.74,7.24-15.47,14.48-23.23,21.7-1.42,1.32-2.46,3.24-4.77,3.3-1.44-2.43.62-3.67,1.84-5.08,4.09-4.75,4.97-10.02,3.66-16.12-1.11-5.15-.31-10.53,1.76-15.29,1.07-2.47,1.4-3.88-.72-5.46-2.11-1.57-3.51-3.35-3.25-6.27.24-2.64-1.92-4.09-3.64-5.65-4.53-4.1-4.57-4.34-.79-9.3.73-.95,1.29-1.92,1.46-3.11,2.86-5.22,7.99-8.23,12.15-12.13,7.22-6.76,14.95-12.98,21.81-20.15,1.96-2.05,4.3-3.59,6.51-5.31,13.09,2.8,26.28,5.23,38.6,10.8,4.69,2.12,9.4,4.17,13.65,7.13.41,1.83-.97,2.66-2.05,3.65-11.86,10.88-23.3,22.21-35.35,32.89-7.13,7.62-15.48,13.96-22.66,21.54-1.34,1.42-2.73,2.96-5,2.85h.02Z"/>
            <path class="cls-30" d="M341.21,419.65c12.7-11.97,25.39-23.94,38.09-35.92,13.24,7.56,24.23,17.44,31.84,30.81-13.37,12.48-26.72,24.98-40.12,37.42-1.06.99-2.47,1.61-3.72,2.4-1.72-.15-2.48-1.56-3.37-2.7-6.96-8.84-13.73-17.82-20.6-26.73-1.15-1.49-2.74-3-2.13-5.29h.01Z"/>
            <path class="cls-1" d="M327.05,365.8c.3,1.68-1.08,2.23-2.04,3.1-12.65,11.54-25.29,23.1-37.93,34.66-.09.83-.51,1.35-1.39,1.41-1.56-.64-2.67-1.47-1.41-3.31,9.86-9.38,19.72-18.75,29.57-28.13,2.76-2.63,5.5-5.27,8.26-7.91,1.65.06,3.3.11,4.95.17h-.01Z"/>
            <path class="cls-38" d="M739.16,490.65c-5.94,6.99-13.38,12.39-19.81,18.87-1.98,2-4.22,3.75-6.25,5.7-8.07,7.76-17.47,8.15-25.97.76-1.92-1.66-3.74-2.52-6.24-2.37-7.06.42-12.2-3.87-17.47-7.56-2.55-1.78-.56-3.92.6-5.64,3.28-4.86,7.51-8.9,11.79-12.84,9.77-9,18.89-18.7,29.35-26.94,4.15,7.07,9.13,13.12,16.72,17.01,4.03,2.06,6.86,6.11,10.68,8.82,2.15,1.52,4.54,2.6,6.62,4.19h-.02,0Z"/>
            <path class="cls-41" d="M739.16,490.65c-5.96.68-8.49-4.74-12.59-7.3-2.98-1.86-4.99-5.03-8.51-6.54-5.47-2.34-8.52-7.43-12.06-11.9-1.04-1.31-.77-2.81-.86-4.27,9.91-10.86,20.7-20.79,32.14-30.03,10.63,10.64,21.27,21.28,31.9,31.92-6.55,6.3-13.06,12.64-19.67,18.88-3.36,3.18-6.9,6.17-10.36,9.24h0Z"/>
            <path class="cls-38" d="M817.13,546.64c-1.42,5.24-6.68,5.39-10.32,6.66-7.02,2.46-12.6,7.17-19.1,10.35-3.27,1.6-6.27,3.7-10,4.27-3.61.55-6.72,1.79-9.54,4.53-5.1,4.95-11.84,2.98-18.02,3.16,5.99-3.85,12.98-5.25,19.55-7.54,8.59-3,16.05-8.36,24.65-11.15,6-1.95,10.26-6.76,16.05-9.03,2.23-.88,4.37-1.4,6.72-1.26h.01Z"/>
            <path class="cls-9" d="M679.25,417.76c-1.37,1.63-2.73,3.26-4.1,4.89-7.76,6.18-14.84,13.1-22.02,19.93-1.41.31-2.53,3.23-4.07,1.04-1.03-1.47,1.19-2.46,2.16-3.39,8.61-8.22,17.31-16.37,25.97-24.53.99.38,1.7,1.05,2.05,2.07h.01Z"/>
            <path class="cls-42" d="M679.25,417.76c-1.24-.14-2.01-.74-2.05-2.07,6.67-6.33,13.34-12.65,20-18.98.05,1.27.47,2.3,1.76,2.78-6,6.7-12.86,12.48-19.71,18.27h0Z"/>
            <path class="cls-47" d="M286.04,404.32c.35-.25.69-.51,1.04-.76,2.41,2.73-.92,3.37-1.92,4.52-2.04,2.36-2.53,3.78.46,5.93,3.04,2.19,6.73,4.3,5.13,9.6-.62,2.06,2.93,2.7,4.35,4.27,1.74,1.92,2.64,3.4.07,5.22-.66.47-1.77,1.28-1.67,1.68,1.17,4.69-2.07,9.13-.45,13.94,1.98,5.91.41,11.37-3.54,16.14-1.24,1.5-3.23,2.47-3.27,4.79-4.78,5.89-10.48,10.84-16,15.99-4.9,2.19-8.56,6.15-12.61,9.41-6.79,5.47-14.6,8.87-22.59,11.1-5.26,1.46-11.48-.15-17.21-.9-4.66-.61-8.98-.42-13.67.63-5.85,1.31-12.09,1.09-18.16,1.04-3.25-.03-4.21-1.98-2.42-5.09,1.11-1.92,2.52-3.48,4.01-5.05,14.43-15.2,30.35-28.84,45.54-43.24,5.64-5.35,11.02-11.03,17.1-15.92-.51-2.15,1.39-2.76,2.49-3.87,8.99-9.08,19.07-16.96,28.1-25.99,1.54-1.54,3.4-2.41,5.21-3.45h.01Z"/>
            <path class="cls-5" d="M341.21,419.65c8.7,11.57,17.4,23.15,26.09,34.72-3.93,5.62-9.52,9.53-14.39,14.19-6.44,6.17-12.6,12.62-19.67,18.09-3.46-1.1-5.97-4.06-6.6-6.9-2-8.94-8.78-15.37-11.56-23.91-1.27-3.91-2.58-7.28-.84-11.19,8.99-8.34,17.98-16.67,26.97-25.01h0Z"/>
            <path class="cls-29" d="M286.04,404.32c-10.92,11.24-22.98,21.25-34.56,31.78-.48.44-.83,1.01-1.24,1.52-1.16-.71-.95-1.89-1.01-2.98,11.68-10.99,23.37-21.99,35.05-32.98.13,1.19.31,2.35,1.76,2.66h0Z"/>
            <path class="cls-13" d="M259.31,538.37c-.69,2.62-2.6,3.7-4.96,4.17-.85.17-2.11-.5-1.63-1.19,1.32-1.9,3.54-2.98,5-4.92.46-.62,1.21,1.06,1.59,1.94h0Z"/>
          </g>
        </g>
      </g>
    </g>
  </g>
</svg>